{
.appVersion = "895";
classes = (
{
automatic = 1;
code = "A B C D E F G H I J K L M N O P Q R S T U V W X Y Z Agrave Aacute Acircumflex Atilde Adieresis Aring AE Ccedilla Egrave Eacute Ecircumflex Edieresis Igrave Iacute Icircumflex Idieresis Eth Ntilde Ograve Oacute Ocircumflex Otilde Odieresis Oslash Ugrave Uacute Ucircumflex Udieresis Yacute Thorn Cacute Ccaron Gbreve Idotaccent Lslash OE Scedilla Scaron Ydieresis Zcaron Omega Delta";
name = Uppercase;
}
);
copyright = "Original Fonts are © Bitstream. OpenDyslexic changes and additional glyphs by Abelardo Gonzalez are licensed under a Creative Commons Attribution 3.0 Unported License.\012Based on a work at http://dyslexicfonts.com. ♡2012 by Abelardo Gonzalez. Copying is an act of love. Please copy.\012Bitstream license available here: http://opendyslexic.org/legal/";
customParameters = (
{
name = openTypeOS2Type;
value = (
);
},
{
name = glyphOrder;
value = (
.notdef,
uni0000,
uni000D,
NULL,
space,
exclam,
quotedbl,
numbersign,
dollar,
percent,
ampersand,
quotesingle,
parenleft,
parenright,
asterisk,
plus,
comma,
hyphen,
period,
slash,
zero,
one,
two,
three,
four,
five,
six,
seven,
eight,
nine,
colon,
semicolon,
less,
equal,
greater,
question,
at,
A,
B,
C,
D,
E,
F,
G,
H,
I,
J,
K,
L,
M,
N,
O,
P,
Q,
R,
S,
T,
U,
V,
W,
X,
Y,
Z,
bracketleft,
backslash,
bracketright,
asciicircum,
underscore,
grave,
a,
b,
c,
d,
e,
f,
g,
h,
i,
j,
k,
l,
m,
n,
o,
p,
q,
r,
s,
t,
u,
v,
w,
x,
y,
z,
braceleft,
bar,
braceright,
asciitilde,
uni00A0,
exclamdown,
cent,
sterling,
currency,
yen,
brokenbar,
section,
dieresis,
copyright,
ordfeminine,
guillemotleft,
logicalnot,
sfthyphen,
registered,
macron,
degree,
plusminus,
twosuperior,
threesuperior,
acute,
mu,
paragraph,
periodcentered,
cedilla,
onesuperior,
ordmasculine,
guillemotright,
onequarter,
onehalf,
threequarters,
questiondown,
Agrave,
Aacute,
Acircumflex,
Atilde,
Adieresis,
Aring,
AE,
Ccedilla,
Egrave,
Eacute,
Ecircumflex,
Edieresis,
Igrave,
Iacute,
Icircumflex,
Idieresis,
Eth,

glyphs = (
{
glyphname = .notdef;
lastChange = "2014-11-05 03:31:33 +0000";
layers = (
{
layerId = "D5D14868-B3D8-4E08-9530-062F6179E82D";
paths = (
{
closed = 1;
nodes = (
"73 -168 LINE",
"73 706 LINE",
"585 706 LINE",
"585 -168 LINE"
);
},
{
closed = 1;
nodes = (
"164 5 LINE",
"495 5 LINE",
"495 616 LINE",
"164 616 LINE"
);
}
);
width = 658;
}
);
},
{
glyphname = exclam;
lastChange = "2014-11-05 03:31:33 +0000";
layers = (
{
layerId = "D5D14868-B3D8-4E08-9530-062F6179E82D";
paths = (
{
closed = 1;
nodes = (
"89 152 LINE",
"220 152 LINE",
"231 0 LINE",
"77 0 LINE"
);
},
{
closed = 1;
nodes = (
"83 715 LINE",
"216 717 LINE",
"221 401 LINE",
"236 219 LINE",
"73 219 LINE",
"83 401 LINE",
"83 400 LINE"
);
}
);
width = 310;
}
);
unicode = 0021;
},
{
glyphname = quotedbl;
lastChange = "2014-11-05 03:31:33 +0000";
layers = (
{
layerId = "D5D14868-B3D8-4E08-9530-062F6179E82D";
paths = (
{
closed = 1;
nodes = (
"220 717 LINE",
"226 413 LINE",
"73 413 LINE",
"103 717 LINE"
);
},
{
closed = 1;
nodes = (
"402 717 LINE",
"430 413 LINE",
"279 413 LINE",
"284 717 LINE"
);
}
);
width = 503;
}
);
unicode = 0022;
},
{
glyphname = numbersign;
lastChange = "2014-11-05 03:31:33 +0000";
layers = (
{
layerId = "D5D14868-B3D8-4E08-9530-062F6179E82D";
paths = (
{
closed = 1;
nodes = (
"473 411 LINE",
"378 411 LINE",
"350 295 LINE",
"445 295 LINE"
);
},
{
closed = 1;
nodes = (
"452 707 LINE",
"404 517 LINE",
"500 517 LINE",
"548 707 LINE",
"658 707 LINE",
"611 517 LINE",
"748 517 LINE",
"748 411 LINE",
"584 411 LINE",
"582 400 OFFCURVE",
"580 391 OFFCURVE",
"578 381 CURVE SMOOTH",
"573 363 OFFCURVE",
"569 345 OFFCURVE",
"564 326 CURVE SMOOTH",
"562 317 OFFCURVE",
"559 306 OFFCURVE",
"556 295 CURVE",
"696 295 LINE",
"696 188 LINE",
"529 188 LINE",
"482 0 LINE",
"371 0 LINE",
"418 188 LINE",
"322 188 LINE",
"275 0 LINE",
"165 0 LINE",
"212 188 LINE",
"73 188 LINE",
"73 295 LINE",
"238 295 LINE",
"267 411 LINE",
"125 411 LINE",
"125 517 LINE",
"294 517 LINE",
"301 548 OFFCURVE",
"309 580 OFFCURVE",
"317 613 CURVE SMOOTH",
"325 646 OFFCURVE",
"333 677 OFFCURVE",
"340 707 CURVE"
);
}
);
width = 821;
}
);
unicode = 0023;
},
{
glyphname = dollar;
lastChange = "2014-11-05 03:31:33 +0000";
layers = (
{
layerId = "D5D14868-B3D8-4E08-9530-062F6179E82D";
paths = (
{
closed = 1;
nodes = (
"368 -134 LINE",
"247 -132 LINE",
"258 5 LINE",
"202 11 OFFCURVE",
"140 27 OFFCURVE",
"73 57 CURVE",
"75 211 LINE",
"147 164 OFFCURVE",
"209 139 OFFCURVE",
"262 134 CURVE",
"262 146 OFFCURVE",
"262 159 OFFCURVE",
"263 171 CURVE SMOOTH",
"263 183 OFFCURVE",
"263 194 OFFCURVE",
"264 206 CURVE",
"264 218 OFFCURVE",
"264 229 OFFCURVE",
"264 242 CURVE SMOOTH",
"265 254 OFFCURVE",
"265 267 OFFCURVE",
"265 280 CURVE",
"204 293 OFFCURVE",
"162 313 OFFCURVE",
"132 340 CURVE SMOOTH",
"99 371 OFFCURVE",
"82 411 OFFCURVE",
"80 461 CURVE",
"82 567 OFFCURVE",
"151 630 OFFCURVE",
"275 641 CURVE",
"277 750 LINE",
"359 749 LINE",
"357 642 LINE",
"411 638 OFFCURVE",
"460 626 OFFCURVE",
"517 606 CURVE",
"514 493 LINE",
"455 525 OFFCURVE",
"402 543 OFFCURVE",
"356 548 CURVE",
"355 532 OFFCURVE",
"355 517 OFFCURVE",
"355 503 CURVE SMOOTH",
"354 489 OFFCURVE",
"354 474 OFFCURVE",
"354 460 CURVE SMOOTH",
"354 446 OFFCURVE",
"354 431 OFFCURVE",
"354 417 CURVE SMOOTH",
"353 402 OFFCURVE",
"353 387 OFFCURVE",
"353 371 CURVE",
"481 346 OFFCURVE",
"546 298 OFFCURVE",
"551 192 CURVE",
"550 135 OFFCURVE",
"530 90 OFFCURVE",
"490 57 CURVE SMOOTH",
"454 28 OFFCURVE",
"416 11 OFFCURVE",
"361 6 CURVE"
);
},
{
closed = 1;
nodes = (
"266 544 LINE",
"218 534 OFFCURVE",
"181 504 OFFCURVE",
"181 461 CURVE SMOOTH",
"181 424 OFFCURVE",
"208 396 OFFCURVE",
"263 382 CURVE"
);
},
{
closed = 1;
nodes = (
"353 133 LINE",
"375 137 OFFCURVE",
"393 142 OFFCURVE",
"406 147 CURVE SMOOTH",
"418 153 OFFCURVE",
"424 165 OFFCURVE",
"424 183 CURVE SMOOTH",
"424 222 OFFCURVE",
"401 245 OFFCURVE",
"349 259 CURVE"
);
}
);
width = 624;
}
);
unicode = 0024;
},
{
glyphname = percent;
lastChange = "2014-11-05 03:31:33 +0000";
layers = (
{
layerId = "D5D14868-B3D8-4E08-9530-062F6179E82D";
paths = (
{
closed = 1;
nodes = (
"677 299 OFFCURVE",
"652 262 OFFCURVE",
"652 199 CURVE SMOOTH",
"652 137 OFFCURVE",
"677 99 OFFCURVE",
"719 99 CURVE SMOOTH",
"759 99 OFFCURVE",
"784 137 OFFCURVE",
"784 199 CURVE SMOOTH",
"784 262 OFFCURVE",
"759 299 OFFCURVE",
"719 299 CURVE SMOOTH"
);
},
{
closed = 1;
nodes = (
"826 394 OFFCURVE",
"894 313 OFFCURVE",
"894 190 CURVE SMOOTH",
"894 129 OFFCURVE",
"879 80 OFFCURVE",
"846 43 CURVE SMOOTH",
"814 5 OFFCURVE",
"772 -13 OFFCURVE",
"719 -13 CURVE SMOOTH",
"610 -13 OFFCURVE",
"543 66 OFFCURVE",
"543 190 CURVE SMOOTH",
"543 313 OFFCURVE",
"612 394 OFFCURVE",
"719 394 CURVE SMOOTH"
);
},
{
closed = 1;
nodes = (
"208 635 OFFCURVE",
"182 595 OFFCURVE",
"182 529 CURVE SMOOTH",
"182 461 OFFCURVE",
"207 422 OFFCURVE",
"249 422 CURVE SMOOTH",
"290 422 OFFCURVE",
"315 461 OFFCURVE",
"315 529 CURVE SMOOTH",
"315 594 OFFCURVE",
"290 635 OFFCURVE",
"249 635 CURVE SMOOTH"
);
},
{
closed = 1;
nodes = (
"654 729 LINE",
"770 729 LINE",
"318 -13 LINE",
"202 -13 LINE"
);
},
{
closed = 1;
nodes = (
"354 729 OFFCURVE",
"424 648 OFFCURVE",
"424 526 CURVE SMOOTH",
"424 402 OFFCURVE",
"356 322 OFFCURVE",
"249 322 CURVE SMOOTH",
"140 322 OFFCURVE",
"73 402 OFFCURVE",
"73 526 CURVE SMOOTH",
"73 587 OFFCURVE",
"89 636 OFFCURVE",
"120 673 CURVE SMOOTH",
"153 710 OFFCURVE",
"195 729 OFFCURVE",
"249 729 CURVE SMOOTH"
);
}
);
width = 967;
}
);
unicode = 0025;
},
{
glyphname = ampersand;
lastChange = "2014-11-05 03:31:33 +0000";
layers = (
{
layerId = "D5D14868-B3D8-4E08-9530-062F6179E82D";
paths = (
{
closed = 1;
nodes = (
"237 377 LINE",
"194 334 OFFCURVE",
"175 295 OFFCURVE",
"175 250 CURVE SMOOTH",
"175 172 OFFCURVE",
"240 113 OFFCURVE",
"328 113 CURVE SMOOTH",
"375 113 OFFCURVE",
"417 126 OFFCURVE",
"454 154 CURVE"
);
},
{
closed = 1;
nodes = (
"538 236 LINE",
"548 255 OFFCURVE",
"555 274 OFFCURVE",
"559 293 CURVE SMOOTH",
"564 320 OFFCURVE",
"568 356 OFFCURVE",
"570 401 CURVE",
"692 401 LINE",
"690 381 OFFCURVE",
"688 356 OFFCURVE",
"685 331 CURVE SMOOTH",
"682 306 OFFCURVE",
"678 281 OFFCURVE",
"675 261 CURVE SMOOTH",
"667 224 OFFCURVE",
"653 187 OFFCURVE",
"628 150 CURVE",
"775 0 LINE",
"609 0 LINE",
"550 61 LINE",
"486 10 OFFCURVE",
"419 -13 OFFCURVE",
"341 -13 CURVE SMOOTH",
"262 -13 OFFCURVE",
"199 9 OFFCURVE",
"149 54 CURVE SMOOTH",
"99 99 OFFCURVE",
"73 157 OFFCURVE",
"73 229 CURVE SMOOTH",
"73 307 OFFCURVE",
"112 377 OFFCURVE",
"188 438 CURVE",
"164 475 OFFCURVE",
"151 512 OFFCURVE",
"151 547 CURVE SMOOTH",
"151 602 OFFCURVE",
"170 646 OFFCURVE",
"208 680 CURVE",
"207 680 LINE",
"244 712 OFFCURVE",
"293 729 OFFCURVE",
"354 729 CURVE SMOOTH",
"407 729 OFFCURVE",
"466 715 OFFCURVE",
"531 688 CURVE",
"482 588 LINE",
"421 622 OFFCURVE",
"370 639 OFFCURVE",
"331 639 CURVE SMOOTH",
"304 639 OFFCURVE",
"282 632 OFFCURVE",
"265 618 CURVE",
"265 618 LINE",
"250 605 OFFCURVE",
"242 587 OFFCURVE",
"242 566 CURVE SMOOTH",
"242 554 OFFCURVE",
"246 542 OFFCURVE",
"253 528 CURVE",
"252 529 LINE",
"261 515 OFFCURVE",
"278 494 OFFCURVE",
"305 466 CURVE",
"305 466 LINE"
);
}
);
width = 849;
}
);
unicode = 0026;
},
{
glyphname = quotesingle;
lastChange = "2014-11-05 03:31:33 +0000";
layers = (
{
layerId = "D5D14868-B3D8-4E08-9530-062F6179E82D";
paths = (
{
closed = 1;
nodes = (
"188 717 LINE",
"188 427 LINE",
"73 427 LINE",
"73 717 LINE"
);
}
);
width = 261;
}
);
unicode = 0027;
},
{
glyphname = parenleft;
lastChange = "2014-11-05 03:31:33 +0000";
layers = (
{
layerId = "D5D14868-B3D8-4E08-9530-062F6179E82D";
paths = (
{
closed = 1;
nodes = (
"370 739 LINE",
"266 593 OFFCURVE",
"208 457 OFFCURVE",
"203 320 CURVE",
"208 184 OFFCURVE",
"218 53 OFFCURVE",
"302 -125 CURVE",
"164 -116 LINE",
"100 42 OFFCURVE",
"73 189 OFFCURVE",
"73 330 CURVE",
"85 468 OFFCURVE",
"144 605 OFFCURVE",
"255 749 CURVE"
);
}
);
width = 443;
}
);
unicode = 0028;
},
{
glyphname = parenright;
lastChange = "2014-11-05 03:31:33 +0000";
layers = (
{
layerId = "D5D14868-B3D8-4E08-9530-062F6179E82D";
paths = (
{
closed = 1;
nodes = (
"263 752 LINE",
"306 668 OFFCURVE",
"335 592 OFFCURVE",
"349 520 CURVE",
"349 520 LINE",
"362 448 OFFCURVE",
"370 379 OFFCURVE",
"370 310 CURVE SMOOTH",
"370 239 OFFCURVE",
"355 169 OFFCURVE",
"326 100 CURVE SMOOTH",
"297 34 OFFCURVE",
"264 -35 OFFCURVE",
"222 -112 CURVE",
"73 -103 LINE",
"177 44 OFFCURVE",
"231 184 OFFCURVE",
"245 319 CURVE",
"245 387 OFFCURVE",
"240 455 OFFCURVE",
"229 524 CURVE SMOOTH",
"218 594 OFFCURVE",
"192 672 OFFCURVE",
"150 762 CURVE"
);
}
);
width = 443;
}
);
unicode = 0029;
},
{
glyphname = asterisk;
lastChange = "2014-11-05 03:31:33 +0000";
layers = (
{
layerId = "D5D14868-B3D8-4E08-9530-062F6179E82D";
paths = (
{
closed = 1;
nodes = (
"534 580 LINE",
"384 498 LINE",
"434 470 OFFCURVE",
"488 441 OFFCURVE",
"534 416 CURVE",
"489 339 LINE",
"348 425 LINE",
"348 267 LINE",
"260 267 LINE",
"260 425 LINE",
"236 411 OFFCURVE",
"212 396 OFFCURVE",
"188 382 CURVE SMOOTH",
"164 367 OFFCURVE",
"141 353 OFFCURVE",
"119 339 CURVE",
"73 416 LINE",
"224 498 LINE",
"198 511 OFFCURVE",
"173 525 OFFCURVE",
"147 540 CURVE SMOOTH",
"121 554 OFFCURVE",
"97 567 OFFCURVE",
"73 580 CURVE",
"118 657 LINE",
"260 571 LINE",
"260 729 LINE",
"348 729 LINE",
"348 571 LINE",
"372 585 OFFCURVE",
"396 600 OFFCURVE",
"420 615 CURVE SMOOTH",
"444 630 OFFCURVE",
"467 644 OFFCURVE",
"489 657 CURVE"
);
}
);
width = 607;
}
);
unicode = 002A;
},
{
glyphname = plus;
lastChange = "2014-11-05 03:31:33 +0000";
layers = (
{
layerId = "D5D14868-B3D8-4E08-9530-062F6179E82D";
paths = (
{
closed = 1;
nodes = (
"440 622 LINE",
"440 368 LINE",
"694 368 LINE",
"694 254 LINE",
"440 254 LINE",
"440 0 LINE",
"327 0 LINE",
"327 254 LINE",
"73 254 LINE",
"73 368 LINE",
"327 368 LINE",
"327 622 LINE"
);
}
);
width = 767;
}
);
unicode = 002B;
},
{
glyphname = comma;
lastChange = "2014-11-05 03:31:33 +0000";
layers = (
{
layerId = "D5D14868-B3D8-4E08-9530-062F6179E82D";
paths = (
{
closed = 1;
nodes = (
"126 147 LINE",
"277 147 LINE",
"277 27 LINE",
"167 -131 LINE",
"73 -131 LINE",
"126 36 LINE"
);
}
);
width = 351;
}
);
unicode = 002C;
},
{
glyphname = hyphen;
lastChange = "2014-11-05 03:31:33 +0000";
layers = (
{
layerId = "D5D14868-B3D8-4E08-9530-062F6179E82D";
paths = (
{
closed = 1;
nodes = (
"78 329 LINE",
"360 334 LINE",
"356 223 LINE",
"73 218 LINE"
);
}
);
width = 434;
}
);
unicode = 002D;
},
{
glyphname = period;
lastChange = "2014-11-05 03:31:33 +0000";
layers = (
{
layerId = "D5D14868-B3D8-4E08-9530-062F6179E82D";
paths = (
{
closed = 1;
nodes = (
"49 184 LINE",
"221 184 LINE",
"221 0 LINE",
"49 0 LINE"
);
}
);
width = 294;
}
);
unicode = 002E;
},
{
glyphname = slash;
lastChange = "2014-11-05 03:31:33 +0000";
layers = (
{
layerId = "D5D14868-B3D8-4E08-9530-062F6179E82D";
paths = (
{
closed = 1;
nodes = (
"350 708 LINE",
"455 706 LINE",
"217 -91 LINE",
"73 -86 LINE"
);
}
);
width = 528;
}
);
unicode = 002F;
},
{
glyphname = zero;
lastChange = "2014-11-05 03:31:33 +0000";
layers = (
{
layerId = "D5D14868-B3D8-4E08-9530-062F6179E82D";
paths = (
{
closed = 1;
nodes = (
"248 656 OFFCURVE",
"207 579 OFFCURVE",
"207 424 CURVE SMOOTH",
"207 340 OFFCURVE",
"217 281 OFFCURVE",
"236 242 CURVE",
"235 243 LINE",
"252 209 OFFCURVE",
"281 192 OFFCURVE",
"322 192 CURVE SMOOTH",
"362 192 OFFCURVE",
"393 213 OFFCURVE",
"415 253 CURVE SMOOTH",
"437 293 OFFCURVE",
"450 352 OFFCURVE",
"456 425 CURVE",
"456 579 OFFCURVE",
"415 656 OFFCURVE",
"331 656 CURVE SMOOTH"
);
},
{
closed = 1;
nodes = (
"496 729 OFFCURVE",
"580 599 OFFCURVE",
"580 357 CURVE SMOOTH",
"573 117 OFFCURVE",
"486 -13 OFFCURVE",
"322 -13 CURVE SMOOTH",
"157 -13 OFFCURVE",
"73 116 OFFCURVE",
"73 358 CURVE SMOOTH",
"77 479 OFFCURVE",
"100 571 OFFCURVE",
"143 634 CURVE SMOOTH",
"186 696 OFFCURVE",
"249 729 OFFCURVE",
"331 729 CURVE SMOOTH"
);
},
{
closed = 1;
nodes = (
"368 324 OFFCURVE",
"378 373 OFFCURVE",
"378 410 CURVE SMOOTH",
"378 480 OFFCURVE",
"368 523 OFFCURVE",
"327 523 CURVE SMOOTH",
"281 523 OFFCURVE",
"275 467 OFFCURVE",
"275 410 CURVE SMOOTH",
"275 373 OFFCURVE",
"285 324 OFFCURVE",
"327 324 CURVE SMOOTH"
);
}
);
width = 653;
}
);
unicode = 0030;
},
{
glyphname = one;
lastChange = "2014-11-05 03:31:33 +0000";
layers = (
{
layerId = "D5D14868-B3D8-4E08-9530-062F6179E82D";
paths = (
{
closed = 1;
nodes = (
"86 164 LINE",
"237 164 LINE",
"237 592 LINE",
"73 560 LINE",
"73 681 LINE",
"253 717 LINE",
"364 717 LINE",
"364 164 LINE",
"515 164 LINE",
"515 0 LINE",
"86 0 LINE"
);
}
);
width = 588;
}
);
unicode = 0031;
},
{
glyphname = two;
lastChange = "2014-11-05 03:31:33 +0000";
layers = (
{
layerId = "D5D14868-B3D8-4E08-9530-062F6179E82D";
paths = (
{
closed = 1;
nodes = (
"542 168 LINE",
"542 0 LINE",
"73 0 LINE",
"73 159 LINE",
"122 199 OFFCURVE",
"178 245 OFFCURVE",
"232 286 CURVE SMOOTH",
"286 326 OFFCURVE",
"320 354 OFFCURVE",
"334 371 CURVE SMOOTH",
"362 403 OFFCURVE",
"382 429 OFFCURVE",
"393 451 CURVE SMOOTH",
"403 472 OFFCURVE",
"409 492 OFFCURVE",
"409 511 CURVE SMOOTH",
"409 572 OFFCURVE",
"362 615 OFFCURVE",
"290 615 CURVE SMOOTH",
"235 615 OFFCURVE",
"166 591 OFFCURVE",
"78 542 CURVE",
"78 678 LINE",
"163 712 OFFCURVE",
"233 729 OFFCURVE",
"288 729 CURVE SMOOTH",
"363 729 OFFCURVE",
"423 710 OFFCURVE",
"469 672 CURVE SMOOTH",
"515 633 OFFCURVE",
"538 581 OFFCURVE",
"538 517 CURVE SMOOTH",
"538 486 OFFCURVE",
"532 458 OFFCURVE",
"521 430 CURVE SMOOTH",
"510 403 OFFCURVE",
"490 373 OFFCURVE",
"460 337 CURVE",
"457 333 OFFCURVE",
"449 324 OFFCURVE",
"437 311 CURVE SMOOTH",
"424 298 OFFCURVE",
"408 281 OFFCURVE",
"388 259 CURVE SMOOTH",
"357 228 OFFCURVE",
"335 198 OFFCURVE",
"323 168 CURVE"
);
}
);
width = 615;
}
);
unicode = 0032;
},
{
glyphname = three;
lastChange = "2014-11-05 03:31:33 +0000";
layers = (
{
layerId = "D5D14868-B3D8-4E08-9530-062F6179E82D";
paths = (
{
closed = 1;
nodes = (
"542 470 OFFCURVE",
"513 420 OFFCURVE",
"458 389 CURVE",
"481 379 OFFCURVE",
"500 365 OFFCURVE",
"516 347 CURVE",
"543 314 OFFCURVE",
"558 273 OFFCURVE",
"558 225 CURVE SMOOTH",
"558 146 OFFCURVE",
"532 86 OFFCURVE",
"484 46 CURVE SMOOTH",
"435 7 OFFCURVE",
"364 -13 OFFCURVE",
"273 -13 CURVE SMOOTH",
"214 -13 OFFCURVE",
"148 0 OFFCURVE",
"73 25 CURVE",
"73 214 LINE",
"140 175 OFFCURVE",
"208 155 OFFCURVE",
"271 155 CURVE SMOOTH",
"324 155 OFFCURVE",
"363 167 OFFCURVE",
"390 189 CURVE SMOOTH",
"417 212 OFFCURVE",
"430 229 OFFCURVE",
"430 239 CURVE SMOOTH",
"430 289 OFFCURVE",
"379 335 OFFCURVE",
"288 335 CURVE SMOOTH",
"191 335 LINE",
"191 447 LINE",
"292 447 LINE SMOOTH",
"371 447 OFFCURVE",
"414 478 OFFCURVE",
"414 534 CURVE SMOOTH",
"414 592 OFFCURVE",
"370 625 OFFCURVE",
"288 625 CURVE SMOOTH",
"239 625 OFFCURVE",
"178 612 OFFCURVE",
"94 583 CURVE",
"94 696 LINE",
"173 719 OFFCURVE",
"239 729 OFFCURVE",
"296 729 CURVE SMOOTH",
"371 729 OFFCURVE",
"430 712 OFFCURVE",
"474 677 CURVE",
"474 678 LINE",
"519 643 OFFCURVE",
"542 595 OFFCURVE",
"542 535 CURVE SMOOTH"
);
}
);
width = 631;
}
);
unicode = 0033;
},
{
glyphname = four;
lastChange = "2014-11-05 03:31:33 +0000";
layers = (
{
layerId = "D5D14868-B3D8-4E08-9530-062F6179E82D";
paths = (
{
closed = 1;
nodes = (
"380 587 LINE",
"200 305 LINE",
"376 305 LINE"
);
},
{
closed = 1;
nodes = (
"365 717 LINE",
"509 717 LINE",
"513 305 LINE",
"605 305 LINE",
"605 192 LINE",
"514 192 LINE",
"514 177 OFFCURVE",
"515 161 OFFCURVE",
"516 145 CURVE SMOOTH",
"517 128 OFFCURVE",
"518 112 OFFCURVE",
"519 95 CURVE SMOOTH",
"520 79 OFFCURVE",
"521 63 OFFCURVE",
"521 46 CURVE SMOOTH",
"522 30 OFFCURVE",
"523 15 OFFCURVE",
"523 0 CURVE",
"361 0 LINE",
"371 192 LINE",
"73 192 LINE",
"73 272 LINE"
);
}
);
width = 679;
}
);
unicode = 0034;
},
{
glyphname = five;
lastChange = "2014-11-05 03:31:33 +0000";
layers = (
{
layerId = "D5D14868-B3D8-4E08-9530-062F6179E82D";
paths = (
{
closed = 1;
nodes = (
"102 717 LINE",
"500 717 LINE",
"500 612 LINE",
"214 612 LINE",
"214 478 LINE",
"242 483 OFFCURVE",
"262 486 OFFCURVE",
"285 486 CURVE SMOOTH",
"445 486 OFFCURVE",
"550 389 OFFCURVE",
"550 236 CURVE SMOOTH",
"550 79 OFFCURVE",
"446 -13 OFFCURVE",
"271 -13 CURVE SMOOTH",
"212 -13 OFFCURVE",
"147 -2 OFFCURVE",
"73 21 CURVE",
"73 208 LINE",
"144 169 OFFCURVE",
"207 151 OFFCURVE",
"269 151 CURVE SMOOTH",
"317 151 OFFCURVE",
"354 163 OFFCURVE",
"378 188 CURVE SMOOTH",
"404 211 OFFCURVE",
"417 232 OFFCURVE",
"417 250 CURVE SMOOTH",
"417 333 OFFCURVE",
"363 373 OFFCURVE",
"269 373 CURVE SMOOTH",
"222 373 OFFCURVE",
"168 359 OFFCURVE",
"102 329 CURVE"
);
}
);
width = 623;
}
);
unicode = 0035;
},
{
glyphname = six;
lastChange = "2014-11-05 03:31:33 +0000";
layers = (
{
layerId = "D5D14868-B3D8-4E08-9530-062F6179E82D";
paths = (
{
closed = 1;
nodes = (
"262 377 OFFCURVE",
"218 326 OFFCURVE",
"218 236 CURVE SMOOTH",
"218 188 OFFCURVE",
"258 155 OFFCURVE",
"334 155 CURVE SMOOTH",
"410 155 OFFCURVE",
"450 188 OFFCURVE",
"450 236 CURVE SMOOTH",
"450 326 OFFCURVE",
"406 377 OFFCURVE",
"334 377 CURVE SMOOTH"
);
},
{
closed = 1;
nodes = (
"535 571 LINE",
"475 600 OFFCURVE",
"421 615 OFFCURVE",
"377 615 CURVE SMOOTH",
"282 615 OFFCURVE",
"226 555 OFFCURVE",
"207 440 CURVE",
"244 471 OFFCURVE",
"288 486 OFFCURVE",
"340 486 CURVE SMOOTH",
"413 486 OFFCURVE",
"471 464 OFFCURVE",
"515 418 CURVE SMOOTH",
"558 373 OFFCURVE",
"580 313 OFFCURVE",
"580 236 CURVE SMOOTH",
"580 86 OFFCURVE",
"482 -13 OFFCURVE",
"334 -13 CURVE SMOOTH",
"163 -13 OFFCURVE",
"73 120 OFFCURVE",
"73 358 CURVE SMOOTH",
"73 581 OFFCURVE",
"190 729 OFFCURVE",
"374 729 CURVE SMOOTH",
"422 729 OFFCURVE",
"473 718 OFFCURVE",
"535 696 CURVE"
);
}
);
width = 653;
}
);
unicode = 0036;
},
{
glyphname = seven;
lastChange = "2014-11-05 03:31:33 +0000";
layers = (
{
layerId = "D5D14868-B3D8-4E08-9530-062F6179E82D";
paths = (
{
closed = 1;
nodes = (
"73 717 LINE",
"542 717 LINE",
"542 657 LINE",
"369 0 LINE",
"163 0 LINE",
"414 612 LINE",
"73 612 LINE"
);
}
);
width = 616;
}
);
unicode = 0037;
},
{
glyphname = eight;
lastChange = "2014-11-05 03:31:33 +0000";
layers = (
{
layerId = "D5D14868-B3D8-4E08-9530-062F6179E82D";
paths = (
{
closed = 1;
nodes = (
"254 332 OFFCURVE",
"211 291 OFFCURVE",
"211 219 CURVE SMOOTH",
"211 184 OFFCURVE",
"255 137 OFFCURVE",
"334 137 CURVE SMOOTH",
"374 137 OFFCURVE",
"404 146 OFFCURVE",
"426 166 CURVE",
"425 166 LINE",
"446 184 OFFCURVE",
"457 202 OFFCURVE",
"457 219 CURVE SMOOTH",
"457 291 OFFCURVE",
"414 332 OFFCURVE",
"334 332 CURVE SMOOTH"
);
},
{
closed = 1;
nodes = (
"140 353 OFFCURVE",
"162 370 OFFCURVE",
"188 381 CURVE",
"133 413 OFFCURVE",
"107 466 OFFCURVE",
"107 535 CURVE SMOOTH",
"107 643 OFFCURVE",
"191 720 OFFCURVE",
"334 720 CURVE SMOOTH",
"406 720 OFFCURVE",
"462 703 OFFCURVE",
"501 668 CURVE SMOOTH",
"541 632 OFFCURVE",
"561 588 OFFCURVE",
"561 535 CURVE SMOOTH",
"561 466 OFFCURVE",
"535 413 OFFCURVE",
"480 381 CURVE",
"532 358 OFFCURVE",
"595 305 OFFCURVE",
"595 209 CURVE SMOOTH",
"595 65 OFFCURVE",
"492 -13 OFFCURVE",
"334 -13 CURVE SMOOTH",
"254 -13 OFFCURVE",
"191 6 OFFCURVE",
"145 44 CURVE SMOOTH",
"97 83 OFFCURVE",
"73 138 OFFCURVE",
"73 209 CURVE SMOOTH",
"73 257 OFFCURVE",
"89 298 OFFCURVE",
"120 332 CURVE SMOOTH"
);
},
{
closed = 1;
nodes = (
"227 494 OFFCURVE",
"265 459 OFFCURVE",
"334 459 CURVE SMOOTH",
"402 459 OFFCURVE",
"442 494 OFFCURVE",
"442 553 CURVE SMOOTH",
"442 602 OFFCURVE",
"407 624 OFFCURVE",
"380 632 CURVE SMOOTH",
"367 636 OFFCURVE",
"352 638 OFFCURVE",
"334 638 CURVE SMOOTH",
"299 638 OFFCURVE",
"272 630 OFFCURVE",
"253 613 CURVE",
"253 613 LINE",
"235 597 OFFCURVE",
"227 577 OFFCURVE",
"227 553 CURVE SMOOTH"
);
}
);
width = 668;
}
);
unicode = 0038;
},
{
glyphname = nine;
lastChange = "2014-11-05 03:31:33 +0000";
layers = (
{
layerId = "D5D14868-B3D8-4E08-9530-062F6179E82D";
paths = (
{
closed = 1;
nodes = (
"117 200 LINE",
"177 170 OFFCURVE",
"231 155 OFFCURVE",
"275 155 CURVE SMOOTH",
"332 155 OFFCURVE",
"374 166 OFFCURVE",
"403 186 CURVE SMOOTH",
"423 200 OFFCURVE",
"438 230 OFFCURVE",
"445 277 CURVE",
"408 246 OFFCURVE",
"363 230 OFFCURVE",
"313 230 CURVE SMOOTH",
"239 230 OFFCURVE",
"181 253 OFFCURVE",
"137 297 CURVE SMOOTH",
"95 342 OFFCURVE",
"73 403 OFFCURVE",
"73 479 CURVE SMOOTH",
"73 555 OFFCURVE",
"96 615 OFFCURVE",
"140 660 CURVE SMOOTH",
"185 706 OFFCURVE",
"244 729 OFFCURVE",
"318 729 CURVE SMOOTH",
"403 729 OFFCURVE",
"468 696 OFFCURVE",
"512 634 CURVE SMOOTH",
"556 571 OFFCURVE",
"579 479 OFFCURVE",
"579 358 CURVE SMOOTH",
"579 135 OFFCURVE",
"462 -13 OFFCURVE",
"279 -13 CURVE SMOOTH",
"230 -13 OFFCURVE",
"179 -2 OFFCURVE",
"117 20 CURVE"
);
},
{
closed = 1;
nodes = (
"358 404 OFFCURVE",
"396 409 OFFCURVE",
"423 420 CURVE SMOOTH",
"445 428 OFFCURVE",
"456 453 OFFCURVE",
"456 494 CURVE SMOOTH",
"456 581 OFFCURVE",
"400 634 OFFCURVE",
"311 634 CURVE SMOOTH",
"220 634 OFFCURVE",
"165 582 OFFCURVE",
"165 494 CURVE SMOOTH",
"165 453 OFFCURVE",
"175 428 OFFCURVE",
"197 420 CURVE SMOOTH",
"224 409 OFFCURVE",
"262 404 OFFCURVE",
"311 404 CURVE SMOOTH"
);
}
);
width = 652;
}
);
unicode = 0039;
},
{
glyphname = colon;
lastChange = "2014-11-05 03:31:33 +0000";
layers = (
{
layerId = "D5D14868-B3D8-4E08-9530-062F6179E82D";
paths = (
{
closed = 1;
nodes = (
"73 176 LINE",
"229 176 LINE",
"229 0 LINE",
"73 0 LINE"
);
},
{
closed = 1;
nodes = (
"73 538 LINE",
"229 538 LINE",
"229 372 LINE",
"73 372 LINE"
);
}
);
width = 302;
}
);
unicode = 003A;
},
{
glyphname = semicolon;
lastChange = "2014-11-05 03:31:33 +0000";
layers = (
{
layerId = "D5D14868-B3D8-4E08-9530-062F6179E82D";
paths = (
{
closed = 1;
nodes = (
"118 536 LINE",
"265 536 LINE",
"265 366 LINE",
"118 366 LINE"
);
},
{
closed = 1;
nodes = (
"120 136 LINE",
"263 136 LINE",
"263 26 LINE",
"173 -149 LINE",
"73 -149 LINE",
"120 33 LINE"
);
}
);
width = 338;
}
);
unicode = 003B;
},
{
glyphname = less;
lastChange = "2014-11-05 03:31:33 +0000";
layers = (
{
layerId = "D5D14868-B3D8-4E08-9530-062F6179E82D";
paths = (
{
closed = 1;
nodes = (
"711 454 LINE",
"266 338 LINE",
"685 147 LINE",
"672 -1 LINE",
"73 277 LINE",
"84 405 LINE",
"722 575 LINE"
);
}
);
width = 795;
}
);
unicode = 003C;
},
{
glyphname = equal;
lastChange = "2014-11-05 03:31:33 +0000";
layers = (
{
layerId = "D5D14868-B3D8-4E08-9530-062F6179E82D";
paths = (
{
closed = 1;
nodes = (
"73 460 LINE",
"694 460 LINE",
"694 347 LINE",
"73 347 LINE"
);
},
{
closed = 1;
nodes = (
"73 288 LINE",
"694 288 LINE",
"694 161 LINE",
"73 161 LINE"
);
}
);
width = 767;
}
);
unicode = 003D;
},
{
glyphname = greater;
lastChange = "2014-11-05 03:31:33 +0000";
layers = (
{
layerId = "D5D14868-B3D8-4E08-9530-062F6179E82D";
paths = (
{
closed = 1;
nodes = (
"113 512 LINE",
"124 633 LINE",
"722 354 LINE",
"711 226 LINE",
"73 56 LINE",
"86 205 LINE",
"531 320 LINE"
);
}
);
width = 795;
}
);
unicode = 003E;
},
{
glyphname = question;
lastChange = "2014-11-05 03:31:33 +0000";
layers = (
{
layerId = "D5D14868-B3D8-4E08-9530-062F6179E82D";
paths = (
{
closed = 1;
nodes = (
"157 161 LINE",
"313 161 LINE",
"313 -4 LINE",
"157 -4 LINE"
);
},
{
closed = 1;
nodes = (
"315 183 LINE",
"160 183 LINE",
"160 271 LINE SMOOTH",
"160 304 OFFCURVE",
"165 332 OFFCURVE",
"174 356 CURVE SMOOTH",
"184 379 OFFCURVE",
"203 406 OFFCURVE",
"232 434 CURVE SMOOTH",
"278 475 LINE",
"301 494 OFFCURVE",
"318 507 OFFCURVE",
"328 519 CURVE",
"336 527 OFFCURVE",
"342 535 OFFCURVE",
"344 546 CURVE",
"344 568 OFFCURVE",
"335 587 OFFCURVE",
"318 605 CURVE SMOOTH",
"303 623 OFFCURVE",
"281 632 OFFCURVE",
"253 632 CURVE SMOOTH",
"208 632 OFFCURVE",
"148 604 OFFCURVE",
"73 553 CURVE",
"73 669 LINE",
"139 709 OFFCURVE",
"204 729 OFFCURVE",
"269 729 CURVE SMOOTH",
"330 729 OFFCURVE",
"378 713 OFFCURVE",
"414 680 CURVE SMOOTH",
"450 647 OFFCURVE",
"468 604 OFFCURVE",
"468 550 CURVE SMOOTH",
"468 523 OFFCURVE",
"460 498 OFFCURVE",
"444 474 CURVE SMOOTH",
"431 454 OFFCURVE",
"411 429 OFFCURVE",
"385 401 CURVE SMOOTH",
"379 395 OFFCURVE",
"374 389 OFFCURVE",
"369 383 CURVE SMOOTH",
"363 377 OFFCURVE",
"358 371 OFFCURVE",
"352 365 CURVE",
"348 359 OFFCURVE",
"345 354 OFFCURVE",
"342 349 CURVE SMOOTH",
"335 338 OFFCURVE",
"329 330 OFFCURVE",
"325 323 CURVE",
"322 319 OFFCURVE",
"321 316 OFFCURVE",
"320 313 CURVE",
"316 302 OFFCURVE",
"315 287 OFFCURVE",
"315 257 CURVE SMOOTH"
);
}
);
width = 542;
}
);
unicode = 003F;
},
{
glyphname = at;
lastChange = "2014-11-05 03:31:33 +0000";
layers = (
{
layerId = "D5D14868-B3D8-4E08-9530-062F6179E82D";
paths = (
{
closed = 1;
nodes = (
"382 234 OFFCURVE",
"419 194 OFFCURVE",
"485 194 CURVE SMOOTH",
"549 194 OFFCURVE",
"587 234 OFFCURVE",
"587 300 CURVE SMOOTH",
"587 366 OFFCURVE",
"546 407 OFFCURVE",
"484 407 CURVE SMOOTH",
"453 407 OFFCURVE",
"428 397 OFFCURVE",
"409 378 CURVE",
"391 359 OFFCURVE",
"382 333 OFFCURVE",
"382 300 CURVE SMOOTH"
);
},
{
closed = 1;
nodes = (
"607 81 LINE",
"572 52 OFFCURVE",
"533 40 OFFCURVE",
"480 40 CURVE SMOOTH",
"365 40 OFFCURVE",
"286 132 OFFCURVE",
"286 263 CURVE SMOOTH",
"286 328 OFFCURVE",
"303 381 OFFCURVE",
"340 423 CURVE SMOOTH",
"376 465 OFFCURVE",
"423 486 OFFCURVE",
"480 486 CURVE SMOOTH",
"531 486 OFFCURVE",
"574 473 OFFCURVE",
"607 445 CURVE",
"607 477 LINE",
"709 477 LINE",
"709 146 LINE",
"738 155 OFFCURVE",
"762 172 OFFCURVE",
"780 195 CURVE",
"802 226 OFFCURVE",
"814 267 OFFCURVE",
"814 316 CURVE SMOOTH",
"814 376 OFFCURVE",
"796 430 OFFCURVE",
"761 475 CURVE SMOOTH",
"700 551 OFFCURVE",
"612 591 OFFCURVE",
"511 591 CURVE SMOOTH",
"439 591 OFFCURVE",
"374 573 OFFCURVE",
"318 536 CURVE SMOOTH",
"227 476 OFFCURVE",
"174 376 OFFCURVE",
"174 266 CURVE SMOOTH",
"174 220 OFFCURVE",
"182 184 OFFCURVE",
"198 157 CURVE",
"197 157 LINE",
"213 130 OFFCURVE",
"245 92 OFFCURVE",
"280 53 CURVE",
"310 24 OFFCURVE",
"343 4 OFFCURVE",
"378 -7 CURVE SMOOTH",
"416 -19 OFFCURVE",
"457 -24 OFFCURVE",
"503 -24 CURVE SMOOTH",
"576 -24 OFFCURVE",
"652 0 OFFCURVE",
"723 53 CURVE",
"688 43 OFFCURVE",
"650 39 OFFCURVE",
"607 38 CURVE"
);
},
{
closed = 1;
nodes = (
"810 88 OFFCURVE",
"774 68 OFFCURVE",
"730 55 CURVE",
"787 -58 LINE",
"699 -126 OFFCURVE",
"600 -162 OFFCURVE",
"503 -162 CURVE SMOOTH",
"384 -162 OFFCURVE",
"280 -120 OFFCURVE",
"198 -41 CURVE SMOOTH",
"116 40 OFFCURVE",
"73 145 OFFCURVE",
"73 266 CURVE SMOOTH",
"73 381 OFFCURVE",
"118 488 OFFCURVE",
"198 569 CURVE SMOOTH",
"281 650 OFFCURVE",
"390 694 OFFCURVE",
"510 694 CURVE SMOOTH",
"645 694 OFFCURVE",
"763 636 OFFCURVE",
"843 534 CURVE SMOOTH",
"891 471 OFFCURVE",
"917 396 OFFCURVE",
"917 318 CURVE SMOOTH",
"917 232 OFFCURVE",
"891 165 OFFCURVE",
"838 115 CURVE SMOOTH"
);
}
);
width = 990;
}
);
unicode = 0040;
},
{
glyphname = A;
lastChange = "2014-11-05 03:31:33 +0000";
layers = (
{
anchors = (
{
name = bottom;
position = "{415, -5}";
},
{
name = ogonek;
position = "{672, 0}";
},
{
name = top;
position = "{417, 729}";
}
);
layerId = "D5D14868-B3D8-4E08-9530-062F6179E82D";
paths = (
{
closed = 1;
nodes = (
"417 565 LINE",
"409 539 OFFCURVE",
"400 514 OFFCURVE",
"392 489 CURVE SMOOTH",
"384 464 OFFCURVE",
"376 439 OFFCURVE",
"368 415 CURVE SMOOTH",
"359 390 OFFCURVE",
"351 365 OFFCURVE",
"342 339 CURVE SMOOTH",
"334 313 OFFCURVE",
"325 287 OFFCURVE",
"316 260 CURVE",
"520 260 LINE"
);
},
{
closed = 1;
nodes = (
"361 729 LINE",
"474 729 LINE",
"762 0 LINE",
"585 0 LINE",
"559 113 LINE",
"275 113 LINE",
"240 0 LINE",
"73 0 LINE"
);
}
);
width = 835;
}
);
unicode = 0041;
},
{
glyphname = B;
lastChange = "2016-08-14 16:54:07 +0000";
layers = (
{
layerId = "D5D14868-B3D8-4E08-9530-062F6179E82D";
paths = (
{
closed = 1;
nodes = (
"204 331 LINE",
"204 174 LINE",
"336 174 LINE SMOOTH",
"383 174 OFFCURVE",
"417 181 OFFCURVE",
"438 193 CURVE",
"456 205 OFFCURVE",
"465 228 OFFCURVE",
"465 264 CURVE SMOOTH",
"465 274 OFFCURVE",
"456 287 OFFCURVE",
"436 304 CURVE SMOOTH",
"415 322 OFFCURVE",
"381 331 OFFCURVE",
"336 331 CURVE SMOOTH"
);
},
{
closed = 1;
nodes = (
"204 629 LINE",
"204 443 LINE",
"324 443 LINE SMOOTH",
"402 443 OFFCURVE",
"441 472 OFFCURVE",
"441 529 CURVE SMOOTH",
"441 588 OFFCURVE",
"406 629 OFFCURVE",
"324 629 CURVE SMOOTH"
);
},
{
closed = 1;
nodes = (
"73 729 LINE",
"308 729 LINE SMOOTH",
"386 729 OFFCURVE",
"446 712 OFFCURVE",
"487 680 CURVE SMOOTH",
"528 647 OFFCURVE",
"549 600 OFFCURVE",
"549 540 CURVE SMOOTH",
"549 469 OFFCURVE",
"526 421 OFFCURVE",
"479 395 CURVE",
"569 362 OFFCURVE",
"610 298 OFFCURVE",
"610 212 CURVE SMOOTH",
"610 76 OFFCURVE",
"504 0 OFFCURVE",
"340 0 CURVE SMOOTH",
"73 0 LINE"
);
}
);
width = 684;
}
);
leftKerningGroup = Block;
rightKerningGroup = Block;
unicode = 0042;
},
{
glyphname = C;
lastChange = "2014-11-05 03:31:33 +0000";
layers = (
{
anchors = (
{
name = bottom;
position = "{394, 0}";
},
{
name = top;
position = "{394, 729}";
}
);
layerId = "D5D14868-B3D8-4E08-9530-062F6179E82D";
paths = (
{
closed = 1;
nodes = (
"668 540 LINE",
"557 616 OFFCURVE",
"496 627 OFFCURVE",
"420 627 CURVE SMOOTH",
"273 627 OFFCURVE",
"209 536 OFFCURVE",
"209 364 CURVE SMOOTH",
"211 215 OFFCURVE",
"284 166 OFFCURVE",
"435 166 CURVE SMOOTH",
"511 166 OFFCURVE",
"586 202 OFFCURVE",
"668 277 CURVE",
"668 62 LINE",
"594 12 OFFCURVE",
"516 -14 OFFCURVE",
"430 -14 CURVE SMOOTH",
"209 -14 OFFCURVE",
"73 132 OFFCURVE",
"73 364 CURVE SMOOTH",
"73 595 OFFCURVE",
"194 732 OFFCURVE",
"415 742 CURVE SMOOTH",
"500 746 OFFCURVE",
"565 741 OFFCURVE",
"668 691 CURVE"
);
}
);
width = 741;
}
);
unicode = 0043;
},
{
glyphname = D;
lastChange = "2014-11-05 03:31:33 +0000";
layers = (
{
anchors = (
{
name = bottom;
position = "{315, 1}";
},
{
name = center;
position = "{345, 365}";
},
{
name = top;
position = "{345, 729}";
}
);
layerId = "D5D14868-B3D8-4E08-9530-062F6179E82D";
paths = (
{
closed = 1;
nodes = (
"208 615 LINE",
"208 211 LINE",
"303 211 LINE SMOOTH",
"394 211 OFFCURVE",
"456 223 OFFCURVE",
"490 246 CURVE",
"520 269 OFFCURVE",
"547 315 OFFCURVE",
"561 376 CURVE",
"561 456 OFFCURVE",
"541 516 OFFCURVE",
"498 556 CURVE SMOOTH",
"456 596 OFFCURVE",
"391 615 OFFCURVE",
"303 615 CURVE SMOOTH"
);
},
{
closed = 1;
nodes = (
"73 729 LINE",
"284 729 LINE SMOOTH",
"420 729 OFFCURVE",
"525 698 OFFCURVE",
"592 641 CURVE",
"657 581 OFFCURVE",
"692 488 OFFCURVE",
"692 365 CURVE SMOOTH",
"692 241 OFFCURVE",
"658 148 OFFCURVE",
"591 88 CURVE SMOOTH",
"524 29 OFFCURVE",
"422 0 OFFCURVE",
"284 0 CURVE SMOOTH",
"73 0 LINE"
);
}
);
width = 765;
}
);
unicode = 0044;
},
{
glyphname = E;
lastChange = "2014-11-05 03:31:33 +0000";
layers = (
{
anchors = (
{
name = bottom;
position = "{306, 0}";
},
{
name = ogonek;
position = "{307, 0}";
},
{
name = top;
position = "{306, 729}";
}
);
layerId = "D5D14868-B3D8-4E08-9530-062F6179E82D";
paths = (
{
closed = 1;
nodes = (
"73 729 LINE",
"548 729 LINE",
"548 613 LINE",
"204 613 LINE",
"204 445 LINE",
"533 445 LINE",
"533 330 LINE",
"204 330 LINE",
"204 181 LINE",
"556 181 LINE",
"556 0 LINE",
"73 0 LINE"
);
}
);
width = 629;
}
);
leftKerningGroup = Block;
rightKerningGroup = Block;
unicode = 0045;
},
{
glyphname = F;
lastChange = "2014-11-05 03:31:33 +0000";
layers = (
{
layerId = "D5D14868-B3D8-4E08-9530-062F6179E82D";
paths = (
{
closed = 1;
nodes = (
"98 729 LINE",
"513 729 LINE",
"513 608 LINE",
"227 608 LINE",
"226 580 OFFCURVE",
"225 554 OFFCURVE",
"223 528 CURVE SMOOTH",
"221 502 OFFCURVE",
"220 476 OFFCURVE",
"219 446 CURVE",
"488 446 LINE",
"488 312 LINE",
"224 312 LINE",
"233 0 LINE",
"73 0 LINE"
);
}
);
width = 586;
}
);
unicode = 0046;
},
{
glyphname = G;
lastChange = "2014-11-05 03:31:33 +0000";
layers = (
{
anchors = (
{
name = bottom;
position = "{413, 0}";
},
{
name = top;
position = "{413, 729}";
}
);
layerId = "D5D14868-B3D8-4E08-9530-062F6179E82D";
paths = (
{
closed = 1;
nodes = (
"571 257 LINE",
"423 257 LINE",
"423 385 LINE",
"715 385 LINE",
"715 73 LINE",
"633 15 OFFCURVE",
"541 -14 OFFCURVE",
"437 -14 CURVE SMOOTH",
"324 -14 OFFCURVE",
"234 20 OFFCURVE",
"169 86 CURVE SMOOTH",
"105 154 OFFCURVE",
"73 247 OFFCURVE",
"73 364 CURVE SMOOTH",
"73 600 OFFCURVE",
"210 742 OFFCURVE",
"437 742 CURVE SMOOTH",
"531 742 OFFCURVE",
"614 721 OFFCURVE",
"692 672 CURVE",
"692 532 LINE",
"606 605 OFFCURVE",
"527 637 OFFCURVE",
"445 637 CURVE SMOOTH",
"288 637 OFFCURVE",
"209 549 OFFCURVE",
"209 374 CURVE",
"213 297 OFFCURVE",
"232 242 OFFCURVE",
"268 215 CURVE",
"267 215 LINE",
"305 188 OFFCURVE",
"364 175 OFFCURVE",
"445 175 CURVE SMOOTH",
"478 175 OFFCURVE",
"505 177 OFFCURVE",
"530 183 CURVE",
"529 183 LINE",
"547 187 OFFCURVE",
"561 192 OFFCURVE",
"571 200 CURVE"
);
}
);
width = 788;
}
);
unicode = 0047;
},
{
glyphname = H;
lastChange = "2014-11-05 03:31:33 +0000";
layers = (
{
anchors = (
{
name = bottom;
position = "{358, -11}";
},
{
name = center;
position = "{360, 365}";
},
{
name = top;
position = "{360, 729}";
}
);
layerId = "D5D14868-B3D8-4E08-9530-062F6179E82D";
paths = (
{
closed = 1;
nodes = (
"83 729 LINE",
"218 729 LINE",
"218 399 LINE",
"502 399 LINE",
"502 729 LINE",
"638 729 LINE",
"647 0 LINE",
"502 0 LINE",
"502 232 LINE",
"218 232 LINE",
"218 0 LINE",
"73 0 LINE"
);
}
);
width = 721;
}
);
leftKerningGroup = Block;
rightKerningGroup = Block;
unicode = 0048;
},
{
glyphname = I;
lastChange = "2014-11-05 03:31:33 +0000";
layers = (
{
anchors = (
{
name = ogonek;
position = "{153, 0}";
},
{
name = top;
position = "{155, 729}";
}
);
layerId = "D5D14868-B3D8-4E08-9530-062F6179E82D";
paths = (
{
closed = 1;
nodes = (
"88 729 LINE",
"214 729 LINE",
"223 0 LINE",
"73 0 LINE"
);
}
);
width = 296;
}
);
unicode = 0049;
},
{
glyphname = J;
lastChange = "2014-11-05 03:31:33 +0000";
layers = (
{
anchors = (
{
name = top;
position = "{279, 729}";
}
);
layerId = "D5D14868-B3D8-4E08-9530-062F6179E82D";
paths = (
{
closed = 1;
nodes = (
"265 731 LINE",
"400 723 LINE",
"374 47 LINE SMOOTH",
"372 -41 OFFCURVE",
"353 -104 OFFCURVE",
"318 -141 CURVE SMOOTH",
"282 -179 OFFCURVE",
"225 -199 OFFCURVE",
"145 -200 CURVE",
"73 -193 LINE",
"73 0 LINE",
"139 -15 LINE",
"172 -13 OFFCURVE",
"200 -4 OFFCURVE",
"215 10 CURVE SMOOTH",
"230 24 OFFCURVE",
"238 39 OFFCURVE",
"238 54 CURVE SMOOTH"
);
}
);
width = 473;
}
);
unicode = 004A;
},
{
glyphname = K;
lastChange = "2014-11-05 03:31:33 +0000";
layers = (
{
anchors = (
{
name = bottom;
position = "{347, 0}";
},
{
name = top;
position = "{347, 729}";
}
);
layerId = "D5D14868-B3D8-4E08-9530-062F6179E82D";
paths = (
{
closed = 1;
nodes = (
"93 729 LINE",
"223 729 LINE",
"215 461 LINE",
"499 729 LINE",
"673 729 LINE",
"309 387 LINE",
"695 0 LINE",
"420 0 LINE",
"217 288 LINE",
"218 265 OFFCURVE",
"220 241 OFFCURVE",
"221 216 CURVE SMOOTH",
"224 167 OFFCURVE",
"227 117 OFFCURVE",
"229 69 CURVE SMOOTH",
"231 45 OFFCURVE",
"232 22 OFFCURVE",
"233 0 CURVE",
"73 0 LINE"
);
}
);
width = 769;
}
);
unicode = 004B;
},
{
glyphname = L;
lastChange = "2014-11-05 03:31:33 +0000";
layers = (
{
anchors = (
{
name = bottom;
position = "{300, -32}";
},
{
name = dot;
position = "{380, 428}";
},
{
name = top;
position = "{240, 729}";
}
);
layerId = "D5D14868-B3D8-4E08-9530-062F6179E82D";
paths = (
{
closed = 1;
nodes = (
"83 729 LINE",
"213 729 LINE",
"209 181 LINE",
"547 181 LINE",
"536 0 LINE",
"73 0 LINE"
);
}
);
width = 620;
}
);
unicode = 004C;
},
{
glyphname = M;
lastChange = "2014-11-05 03:31:33 +0000";
layers = (
{
anchors = (
{
name = top;
position = "{459, 663}";
}
);
layerId = "D5D14868-B3D8-4E08-9530-062F6179E82D";
paths = (
{
closed = 1;
nodes = (
"103 729 LINE",
"272 729 LINE",
"433 376 LINE",
"602 729 LINE",
"763 729 LINE",
"792 0 LINE",
"620 0 LINE",
"636 501 LINE",
"502 110 LINE",
"363 110 LINE",
"229 502 LINE",
"231 418 OFFCURVE",
"234 334 OFFCURVE",
"237 250 CURVE SMOOTH",
"239 165 OFFCURVE",
"242 82 OFFCURVE",
"245 0 CURVE",
"73 0 LINE"
);
}
);
width = 865;
}
);
leftKerningGroup = Block;
rightKerningGroup = Block;
unicode = 004D;
},
{
glyphname = N;
lastChange = "2014-11-05 03:31:33 +0000";
layers = (
{
anchors = (
{
name = bottom;
position = "{367, 0}";
},
{
name = top;
position = "{367, 729}";
}
);
layerId = "D5D14868-B3D8-4E08-9530-062F6179E82D";
paths = (
{
closed = 1;
nodes = (
"92 715 LINE",
"238 715 LINE",
"508 220 LINE",
"521 729 LINE",
"644 729 LINE",
"644 0 LINE",
"479 0 LINE",
"206 515 LINE",
"210 429 OFFCURVE",
"214 343 OFFCURVE",
"218 256 CURVE SMOOTH",
"222 168 OFFCURVE",
"226 83 OFFCURVE",
"230 0 CURVE",
"73 0 LINE"
);
}
);
width = 717;
}
);
leftKerningGroup = Block;
rightKerningGroup = Block;
unicode = 004E;
},
{
glyphname = O;
lastChange = "2014-11-05 03:31:33 +0000";
layers = (
{
anchors = (
{
name = horncomb;
position = "{691, 507}";
},
{
name = top;
position = "{412, 729}";
}
);
layerId = "D5D14868-B3D8-4E08-9530-062F6179E82D";
paths = (
{
closed = 1;
nodes = (
"352 628 OFFCURVE",
"301 603 OFFCURVE",
"265 560 CURVE",
"229 513 OFFCURVE",
"209 445 OFFCURVE",
"209 364 CURVE SMOOTH",
"209 299 OFFCURVE",
"227 257 OFFCURVE",
"260 235 CURVE",
"297 213 OFFCURVE",
"348 202 OFFCURVE",
"413 202 CURVE SMOOTH",
"542 202 OFFCURVE",
"615 235 OFFCURVE",
"615 364 CURVE SMOOTH",
"615 531 OFFCURVE",
"536 628 OFFCURVE",
"413 628 CURVE SMOOTH"
);
},
{
closed = 1;
nodes = (
"515 742 OFFCURVE",
"597 707 OFFCURVE",
"659 638 CURVE SMOOTH",
"720 569 OFFCURVE",
"751 479 OFFCURVE",
"751 364 CURVE SMOOTH",
"751 250 OFFCURVE",
"720 159 OFFCURVE",
"659 90 CURVE SMOOTH",
"597 21 OFFCURVE",
"515 -14 OFFCURVE",
"413 -14 CURVE SMOOTH",
"310 -14 OFFCURVE",
"227 21 OFFCURVE",
"165 90 CURVE SMOOTH",
"104 159 OFFCURVE",
"73 250 OFFCURVE",
"73 364 CURVE SMOOTH",
"73 479 OFFCURVE",
"104 569 OFFCURVE",
"165 638 CURVE SMOOTH",
"227 707 OFFCURVE",
"310 742 OFFCURVE",
"413 742 CURVE SMOOTH"
);
}
);
width = 824;
}
);
unicode = 004F;
},
{
glyphname = P;
lastChange = "2014-11-05 03:31:33 +0000";
layers = (
{
layerId = "D5D14868-B3D8-4E08-9530-062F6179E82D";
paths = (
{
closed = 1;
nodes = (
"237 652 LINE",
"235 613 OFFCURVE",
"234 577 OFFCURVE",
"233 542 CURVE SMOOTH",
"231 506 OFFCURVE",
"230 470 OFFCURVE",
"229 429 CURVE",
"336 429 LINE SMOOTH",
"418 429 OFFCURVE",
"464 469 OFFCURVE",
"464 541 CURVE SMOOTH",
"464 612 OFFCURVE",
"418 652 OFFCURVE",
"336 652 CURVE SMOOTH"
);
},
{
closed = 1;
nodes = (
"103 729 LINE",
"327 729 LINE SMOOTH",
"496 729 OFFCURVE",
"581 652 OFFCURVE",
"581 504 CURVE SMOOTH",
"581 429 OFFCURVE",
"559 372 OFFCURVE",
"516 331 CURVE SMOOTH",
"473 290 OFFCURVE",
"411 269 OFFCURVE",
"327 269 CURVE SMOOTH",
"232 269 LINE",
"223 0 LINE",
"73 0 LINE"
);
}
);
width = 654;
}
);
unicode = 0050;
},
{
glyphname = Q;
lastChange = "2014-11-05 03:31:33 +0000";
layers = (
{
layerId = "D5D14868-B3D8-4E08-9530-062F6179E82D";
paths = (
{
closed = 1;
nodes = (
"352 628 OFFCURVE",
"301 603 OFFCURVE",
"265 560 CURVE",
"229 513 OFFCURVE",
"209 445 OFFCURVE",
"209 364 CURVE SMOOTH",
"209 300 OFFCURVE",
"226 258 OFFCURVE",
"259 238 CURVE SMOOTH",
"296 217 OFFCURVE",
"330 205 OFFCURVE",
"354 202 CURVE SMOOTH",
"386 196 LINE",
"389 202 OFFCURVE",
"393 207 OFFCURVE",
"396 213 CURVE",
"400 220 OFFCURVE",
"404 226 OFFCURVE",
"407 232 CURVE SMOOTH",
"411 238 OFFCURVE",
"415 244 OFFCURVE",
"418 250 CURVE SMOOTH",
"421 255 OFFCURVE",
"424 260 OFFCURVE",
"427 265 CURVE",
"468 246 OFFCURVE",
"509 233 OFFCURVE",
"543 228 CURVE",
"591 255 OFFCURVE",
"615 301 OFFCURVE",
"615 364 CURVE SMOOTH",
"615 530 OFFCURVE",
"536 628 OFFCURVE",
"413 628 CURVE SMOOTH"
);
},
{
closed = 1;
nodes = (
"806 -123 LINE",
"536 -123 LINE",
"439 -13 LINE",
"432 -13 OFFCURVE",
"425 -14 OFFCURVE",
"421 -14 CURVE SMOOTH",
"417 -14 OFFCURVE",
"412 -14 OFFCURVE",
"408 -14 CURVE SMOOTH",
"208 -14 OFFCURVE",
"73 135 OFFCURVE",
"73 364 CURVE SMOOTH",
"73 592 OFFCURVE",
"206 742 OFFCURVE",
"413 742 CURVE SMOOTH",
"617 742 OFFCURVE",
"750 592 OFFCURVE",
"750 364 CURVE SMOOTH",
"750 281 OFFCURVE",
"737 214 OFFCURVE",
"711 165 CURVE SMOOTH",
"688 123 OFFCURVE",
"667 88 OFFCURVE",
"643 59 CURVE"
);
}
);
width = 879;
}
);
unicode = 0051;
},
{
glyphname = R;
lastChange = "2014-11-05 03:31:33 +0000";
layers = (
{
anchors = (
{
name = bottom;
position = "{307, 0}";
},
{
name = top;
position = "{307, 729}";
}
);
layerId = "D5D14868-B3D8-4E08-9530-062F6179E82D";
paths = (
{
closed = 1;
nodes = (
"543 432 OFFCURVE",
"513 374 OFFCURVE",
"460 342 CURVE",
"493 317 OFFCURVE",
"522 274 OFFCURVE",
"552 216 CURVE SMOOTH",
"568 185 OFFCURVE",
"587 146 OFFCURVE",
"607 107 CURVE SMOOTH",
"626 69 OFFCURVE",
"646 31 OFFCURVE",
"661 0 CURVE",
"485 0 LINE",
"411 189 LINE",
"411 188 LINE",
"369 275 OFFCURVE",
"339 292 OFFCURVE",
"273 292 CURVE SMOOTH",
"222 292 LINE",
"222 0 LINE",
"73 0 LINE",
"73 729 LINE",
"303 729 LINE SMOOTH",
"379 729 OFFCURVE",
"438 711 OFFCURVE",
"479 675 CURVE SMOOTH",
"521 639 OFFCURVE",
"543 584 OFFCURVE",
"543 511 CURVE SMOOTH"
);
},
{
closed = 1;
nodes = (
"213 643 LINE",
"213 425 LINE",
"313 425 LINE SMOOTH",
"376 425 OFFCURVE",
"440 468 OFFCURVE",
"440 511 CURVE SMOOTH",
"440 615 OFFCURVE",
"375 643 OFFCURVE",
"313 643 CURVE SMOOTH"
);
}
);
width = 734;
}
);
unicode = 0052;
},
{
glyphname = S;
lastChange = "2014-11-05 03:31:33 +0000";
layers = (
{
anchors = (
{
name = bottom;
position = "{323, 0}";
},
{
name = top;
position = "{323, 729}";
}
);
layerId = "D5D14868-B3D8-4E08-9530-062F6179E82D";
paths = (
{
closed = 1;
nodes = (
"556 567 LINE",
"468 608 OFFCURVE",
"401 628 OFFCURVE",
"345 628 CURVE SMOOTH",
"255 628 OFFCURVE",
"204 594 OFFCURVE",
"204 533 CURVE SMOOTH",
"204 508 OFFCURVE",
"211 489 OFFCURVE",
"225 478 CURVE",
"225 478 LINE",
"241 464 OFFCURVE",
"273 453 OFFCURVE",
"321 444 CURVE SMOOTH",
"378 433 LINE",
"377 433 LINE",
"527 404 OFFCURVE",
"597 333 OFFCURVE",
"597 209 CURVE SMOOTH",
"597 63 OFFCURVE",
"500 -14 OFFCURVE",
"313 -14 CURVE SMOOTH",
"246 -14 OFFCURVE",
"165 3 OFFCURVE",
"76 36 CURVE",
"76 229 LINE",
"168 177 OFFCURVE",
"246 150 OFFCURVE",
"313 150 CURVE SMOOTH",
"363 150 OFFCURVE",
"400 160 OFFCURVE",
"427 179 CURVE SMOOTH",
"451 196 OFFCURVE",
"462 211 OFFCURVE",
"462 226 CURVE SMOOTH",
"462 239 OFFCURVE",
"453 253 OFFCURVE",
"437 269 CURVE",
"419 284 OFFCURVE",
"384 298 OFFCURVE",
"343 307 CURVE SMOOTH",
"286 318 LINE SMOOTH",
"139 346 OFFCURVE",
"73 410 OFFCURVE",
"73 525 CURVE SMOOTH",
"73 660 OFFCURVE",
"175 742 OFFCURVE",
"334 742 CURVE SMOOTH",
"401 742 OFFCURVE",
"475 728 OFFCURVE",
"556 701 CURVE"
);
}
);
width = 670;
}
);
unicode = 0053;
},
{
glyphname = T;
lastChange = "2014-11-05 03:31:33 +0000";
layers = (
{
anchors = (
{
name = bottom;
position = "{384, 0}";
},
{
name = center;
position = "{384, 365}";
},
{
name = top;
position = "{384, 729}";
}
);
layerId = "D5D14868-B3D8-4E08-9530-062F6179E82D";
paths = (
{
closed = 1;
nodes = (
"73 729 LINE",
"696 729 LINE",
"696 612 LINE",
"451 622 LINE",
"469 0 LINE",
"300 0 LINE",
"318 622 LINE",
"73 613 LINE"
);
}
);
width = 769;
}
);
unicode = 0054;
},
{
glyphname = U;
lastChange = "2014-11-05 03:31:33 +0000";
layers = (
{
anchors = (
{
name = horncomb;
position = "{607, 547}";
},
{
name = ogonek;
position = "{350, 0}";
},
{
name = top;
position = "{356, 729}";
}
);
layerId = "D5D14868-B3D8-4E08-9530-062F6179E82D";
paths = (
{
closed = 1;
nodes = (
"73 729 LINE",
"205 729 LINE",
"205 355 LINE SMOOTH",
"205 286 OFFCURVE",
"217 236 OFFCURVE",
"241 206 CURVE",
"241 207 LINE",
"264 179 OFFCURVE",
"303 165 OFFCURVE",
"357 165 CURVE SMOOTH",
"411 165 OFFCURVE",
"450 179 OFFCURVE",
"473 207 CURVE",
"473 206 LINE",
"497 236 OFFCURVE",
"509 286 OFFCURVE",
"509 355 CURVE SMOOTH",
"509 729 LINE",
"640 729 LINE",
"640 278 LINE SMOOTH",
"640 85 OFFCURVE",
"544 -14 OFFCURVE",
"357 -14 CURVE SMOOTH",
"170 -14 OFFCURVE",
"73 86 OFFCURVE",
"73 278 CURVE SMOOTH"
);
}
);
width = 713;
}
);
unicode = 0055;
},
{
glyphname = V;
lastChange = "2014-11-05 03:31:33 +0000";
layers = (
{
layerId = "D5D14868-B3D8-4E08-9530-062F6179E82D";
paths = (
{
closed = 1;
nodes = (
"327 0 LINE",
"73 729 LINE",
"209 729 LINE",
"417 241 LINE",
"624 729 LINE",
"759 729 LINE",
"506 0 LINE"
);
}
);
width = 833;
}
);
unicode = 0056;
},
{
glyphname = W;
lastChange = "2014-11-05 03:31:33 +0000";
layers = (
{
anchors = (
{
name = top;
position = "{531, 729}";
}
);
layerId = "D5D14868-B3D8-4E08-9530-062F6179E82D";
paths = (
{
closed = 1;
nodes = (
"73 729 LINE",
"200 729 LINE",
"332 260 LINE",
"356 308 OFFCURVE",
"381 356 OFFCURVE",
"406 405 CURVE SMOOTH",
"431 454 OFFCURVE",
"456 501 OFFCURVE",
"479 548 CURVE",
"585 548 LINE",
"720 251 LINE",
"744 330 OFFCURVE",
"769 414 OFFCURVE",
"794 494 CURVE SMOOTH",
"820 574 OFFCURVE",
"845 652 OFFCURVE",
"869 729 CURVE",
"997 729 LINE",
"813 0 LINE",
"649 0 LINE",
"534 331 LINE",
"514 276 OFFCURVE",
"493 220 OFFCURVE",
"472 162 CURVE SMOOTH",
"450 104 OFFCURVE",
"430 49 OFFCURVE",
"410 0 CURVE",
"236 0 LINE"
);
}
);
width = 1070;
}
);
unicode = 0057;
},
{
glyphname = X;
lastChange = "2014-11-05 03:31:33 +0000";
layers = (
{
layerId = "D5D14868-B3D8-4E08-9530-062F6179E82D";
paths = (
{
closed = 1;
nodes = (
"109 729 LINE",
"252 729 LINE",
"414 453 LINE",
"576 729 LINE",
"720 729 LINE",
"496 342 LINE",
"738 0 LINE",
"540 0 LINE",
"406 229 LINE",
"272 0 LINE",
"73 0 LINE",
"325 343 LINE"
);
}
);
width = 812;
}
);
unicode = 0058;
},
{
glyphname = Y;
lastChange = "2014-11-05 03:31:33 +0000";
layers = (
{
anchors = (
{
name = top;
position = "{395, 729}";
}
);
layerId = "D5D14868-B3D8-4E08-9530-062F6179E82D";
paths = (
{
closed = 1;
nodes = (
"73 729 LINE",
"215 729 LINE",
"396 395 LINE",
"575 729 LINE",
"717 729 LINE",
"475 250 LINE",
"475 0 LINE",
"311 0 LINE",
"311 250 LINE"
);
}
);
width = 791;
}
);
unicode = 0059;
},
{
glyphname = Z;
lastChange = "2014-11-05 03:31:33 +0000";
layers = (
{
anchors = (
{
name = top;
position = "{377, 729}";
}
);
layerId = "D5D14868-B3D8-4E08-9530-062F6179E82D";
paths = (
{
closed = 1;
nodes = (
"84 729 LINE",
"665 729 LINE",
"665 632 LINE",
"250 176 LINE",
"675 176 LINE",
"675 0 LINE",
"73 0 LINE",
"73 158 LINE",
"487 613 LINE",
"84 613 LINE"
);
}
);
width = 749;
}
);
unicode = 005A;
},
{
glyphname = bracketleft;
lastChange = "2014-11-05 03:31:33 +0000";
layers = (
{
layerId = "D5D14868-B3D8-4E08-9530-062F6179E82D";
paths = (
{
closed = 1;
nodes = (
"73 746 LINE",
"303 746 LINE",
"303 644 LINE",
"193 644 LINE",
"193 15 LINE",
"303 15 LINE",
"303 -123 LINE",
"73 -123 LINE"
);
}
);
width = 376;
}
);
unicode = 005B;
},
{
glyphname = backslash;
lastChange = "2014-11-05 03:31:33 +0000";
layers = (
{
layerId = "D5D14868-B3D8-4E08-9530-062F6179E82D";
paths = (
{
closed = 1;
nodes = (
"189 714 LINE",
"409 -99 LINE",
"274 -93 LINE",
"73 717 LINE"
);
}
);
width = 482;
}
);
unicode = 005C;
},
{
glyphname = bracketright;
lastChange = "2014-11-05 03:31:33 +0000";
layers = (
{
layerId = "D5D14868-B3D8-4E08-9530-062F6179E82D";
paths = (
{
closed = 1;
nodes = (
"303 746 LINE",
"303 -123 LINE",
"73 -123 LINE",
"73 10 LINE",
"182 10 LINE",
"182 644 LINE",
"73 644 LINE",
"73 746 LINE"
);
}
);
width = 376;
}
);
unicode = 005D;
},
{
glyphname = asciicircum;
lastChange = "2014-11-05 03:31:33 +0000";
layers = (
{
layerId = "D5D14868-B3D8-4E08-9530-062F6179E82D";
paths = (
{
closed = 1;
nodes = (
"452 717 LINE",
"746 427 LINE",
"551 427 LINE",
"409 621 LINE",
"268 427 LINE",
"73 427 LINE",
"367 717 LINE"
);
}
);
width = 819;
}
);
unicode = 005E;
},
{
glyphname = underscore;
lastChange = "2014-11-05 03:31:33 +0000";
layers = (
{
layerId = "D5D14868-B3D8-4E08-9530-062F6179E82D";
paths = (
{
closed = 1;
nodes = (
"595 -102 LINE",
"595 -220 LINE",
"73 -220 LINE",
"73 -102 LINE"
);
}
);
width = 668;
}
);
unicode = 005F;
},
{
glyphname = grave;
lastChange = "2014-11-05 03:31:33 +0000";
layers = (
{
anchors = (
{
name = _top;
position = "{250, 359}";
}
);
layerId = "D5D14868-B3D8-4E08-9530-062F6179E82D";
paths = (
{
closed = 1;
nodes = (
"203 783 LINE",
"359 576 LINE",
"188 576 LINE",
"73 783 LINE"
);
}
);
width = 433;
}
);
unicode = 0060;
},
{
glyphname = a;
lastChange = "2014-11-05 03:31:33 +0000";
layers = (
{
anchors = (
{
name = ogonek;
position = "{481, 0}";
},
{
name = top;
position = "{325, 547}";
}
);
layerId = "D5D14868-B3D8-4E08-9530-062F6179E82D";
paths = (
{
closed = 1;
nodes = (
"316 261 LINE SMOOTH",
"258 261 OFFCURVE",
"221 255 OFFCURVE",
"204 243 CURVE SMOOTH",
"188 232 OFFCURVE",
"181 215 OFFCURVE",
"180 190 CURVE",
"184 174 OFFCURVE",
"192 163 OFFCURVE",
"204 159 CURVE SMOOTH",
"223 154 OFFCURVE",
"247 151 OFFCURVE",
"275 151 CURVE",
"349 151 OFFCURVE",
"374 163 OFFCURVE",
"374 260 CURVE SMOOTH",
"374 261 LINE"
);
},
{
closed = 1;
nodes = (
"541 0 LINE",
"420 0 LINE",
"420 42 LINE",
"381 6 OFFCURVE",
"331 -13 OFFCURVE",
"263 -13 CURVE SMOOTH",
"205 -13 OFFCURVE",
"160 3 OFFCURVE",
"125 36 CURVE SMOOTH",
"90 69 OFFCURVE",
"73 113 OFFCURVE",
"73 167 CURVE SMOOTH",
"73 294 OFFCURVE",
"155 359 OFFCURVE",
"321 359 CURVE SMOOTH",
"420 359 LINE",
"416 417 OFFCURVE",
"371 455 OFFCURVE",
"293 461 CURVE",
"237 461 OFFCURVE",
"177 442 OFFCURVE",
"111 407 CURVE",
"111 518 LINE",
"182 545 OFFCURVE",
"246 559 OFFCURVE",
"303 559 CURVE SMOOTH",
"462 559 OFFCURVE",
"541 477 OFFCURVE",
"541 310 CURVE SMOOTH"
);
}
);
width = 614;
}
);
unicode = 0061;
},
{
glyphname = b;
lastChange = "2014-11-05 03:31:33 +0000";
layers = (
{
layerId = "D5D14868-B3D8-4E08-9530-062F6179E82D";
paths = (
{
closed = 1;
nodes = (
"456 215 OFFCURVE",
"469 247 OFFCURVE",
"477 293 CURVE",
"475 349 OFFCURVE",
"463 391 OFFCURVE",
"443 420 CURVE SMOOTH",
"425 449 OFFCURVE",
"396 463 OFFCURVE",
"359 463 CURVE SMOOTH",
"321 463 OFFCURVE",
"291 447 OFFCURVE",
"269 420 CURVE",
"247 390 OFFCURVE",
"235 346 OFFCURVE",
"234 291 CURVE",
"246 212 OFFCURVE",
"283 173 OFFCURVE",
"357 173 CURVE",
"391 175 OFFCURVE",
"417 185 OFFCURVE",
"438 200 CURVE"
);
},
{
closed = 1;
nodes = (
"94 103 LINE",
"83 746 LINE",
"204 746 LINE",
"196 507 LINE",
"233 544 OFFCURVE",
"278 559 OFFCURVE",
"339 559 CURVE SMOOTH",
"475 559 OFFCURVE",
"566 442 OFFCURVE",
"566 273 CURVE SMOOTH",
"566 104 OFFCURVE",
"475 -13 OFFCURVE",
"339 -13 CURVE SMOOTH",
"278 -13 OFFCURVE",
"231 3 OFFCURVE",
"194 41 CURVE"
);
}
);
width = 640;
}
);
unicode = 0062;
},
{
glyphname = c;
lastChange = "2014-11-05 03:31:33 +0000";
layers = (
{
anchors = (
{
name = bottom;
position = "{323, 0}";
},
{
name = top;
position = "{323, 547}";
}
);
layerId = "D5D14868-B3D8-4E08-9530-062F6179E82D";
paths = (
{
closed = 1;
nodes = (
"514 405 LINE",
"452 439 OFFCURVE",
"397 456 OFFCURVE",
"352 456 CURVE SMOOTH",
"254 456 OFFCURVE",
"204 388 OFFCURVE",
"203 275 CURVE",
"207 238 OFFCURVE",
"220 209 OFFCURVE",
"239 195 CURVE",
"261 181 OFFCURVE",
"304 171 OFFCURVE",
"349 167 CURVE",
"421 167 LINE SMOOTH",
"442 168 OFFCURVE",
"472 178 OFFCURVE",
"511 201 CURVE",
"514 26 LINE",
"457 0 OFFCURVE",
"402 -13 OFFCURVE",
"343 -13 CURVE SMOOTH",
"179 -13 OFFCURVE",
"73 101 OFFCURVE",
"73 273 CURVE SMOOTH",
"73 449 OFFCURVE",
"178 559 OFFCURVE",
"348 559 CURVE SMOOTH",
"402 559 OFFCURVE",
"457 546 OFFCURVE",
"514 521 CURVE"
);
}
);
width = 587;
}
);
unicode = 0063;
},
{
glyphname = d;
lastChange = "2014-11-05 03:31:33 +0000";
layers = (
{
anchors = (
{
name = bottom;
position = "{302, -62}";
},
{
name = center;
position = "{390, 273}";
}
);
layerId = "D5D14868-B3D8-4E08-9530-062F6179E82D";
paths = (
{
closed = 1;
nodes = (
"455 746 LINE",
"575 746 LINE",
"566 0 LINE",
"445 0 LINE",
"445 41 LINE",
"409 3 OFFCURVE",
"361 -13 OFFCURVE",
"300 -13 CURVE SMOOTH",
"164 -13 OFFCURVE",
"73 104 OFFCURVE",
"73 273 CURVE SMOOTH",
"73 442 OFFCURVE",
"164 559 OFFCURVE",
"300 559 CURVE SMOOTH",
"361 559 OFFCURVE",
"410 541 OFFCURVE",
"447 504 CURVE"
);
},
{
closed = 1;
nodes = (
"203 417 LINE",
"181 385 OFFCURVE",
"169 341 OFFCURVE",
"168 285 CURVE",
"174 244 OFFCURVE",
"187 216 OFFCURVE",
"205 200 CURVE",
"205 200 LINE",
"223 184 OFFCURVE",
"251 176 OFFCURVE",
"291 176 CURVE SMOOTH",
"371 176 OFFCURVE",
"404 190 OFFCURVE",
"407 288 CURVE",
"405 341 OFFCURVE",
"395 385 OFFCURVE",
"376 415 CURVE SMOOTH",
"358 444 OFFCURVE",
"330 461 OFFCURVE",
"293 461 CURVE SMOOTH",
"255 461 OFFCURVE",
"225 446 OFFCURVE",
"203 416 CURVE"
);
}
);
width = 648;
}
);
unicode = 0064;
},
{
glyphname = e;
lastChange = "2014-11-05 03:31:33 +0000";
layers = (
{
anchors = (
{
name = bottom;
position = "{364, -13}";
},
{
name = ogonek;
position = "{355, 0}";
},
{
name = top;
position = "{336, 547}";
}
);
layerId = "D5D14868-B3D8-4E08-9530-062F6179E82D";
paths = (
{
closed = 1;
nodes = (
"578 276 LINE",
"198 276 LINE",
"202 228 OFFCURVE",
"217 194 OFFCURVE",
"238 179 CURVE",
"266 162 OFFCURVE",
"311 151 OFFCURVE",
"360 147 CURVE",
"393 147 OFFCURVE",
"421 148 OFFCURVE",
"452 151 CURVE SMOOTH",
"480 153 OFFCURVE",
"517 167 OFFCURVE",
"561 190 CURVE",
"563 32 LINE",
"493 2 OFFCURVE",
"424 -13 OFFCURVE",
"355 -13 CURVE SMOOTH",
"270 -10 OFFCURVE",
"202 16 OFFCURVE",
"150 65 CURVE SMOOTH",
"99 115 OFFCURVE",
"73 183 OFFCURVE",
"73 269 CURVE SMOOTH",
"79 445 OFFCURVE",
"177 559 OFFCURVE",
"342 559 CURVE",
"416 556 OFFCURVE",
"472 536 OFFCURVE",
"511 499 CURVE",
"510 499 LINE",
"549 462 OFFCURVE",
"572 405 OFFCURVE",
"578 328 CURVE"
);
},
{
closed = 1;
nodes = (
"464 386 LINE",
"457 403 OFFCURVE",
"443 423 OFFCURVE",
"428 441 CURVE SMOOTH",
"407 466 OFFCURVE",
"378 479 OFFCURVE",
"342 479 CURVE SMOOTH",
"300 479 OFFCURVE",
"267 466 OFFCURVE",
"243 441 CURVE",
"243 442 LINE",
"224 423 OFFCURVE",
"212 404 OFFCURVE",
"208 386 CURVE"
);
}
);
width = 651;
}
);
unicode = 0065;
},
{
glyphname = f;
lastChange = "2014-11-05 03:31:33 +0000";
layers = (
{
layerId = "D5D14868-B3D8-4E08-9530-062F6179E82D";
paths = (
{
closed = 1;
nodes = (
"407 726 LINE",
"407 619 LINE",
"313 630 LINE",
"300 630 OFFCURVE",
"286 627 OFFCURVE",
"282 622 CURVE",
"276 617 OFFCURVE",
"274 601 OFFCURVE",
"274 574 CURVE",
"274 571 OFFCURVE",
"274 568 OFFCURVE",
"275 566 CURVE",
"275 564 OFFCURVE",
"275 563 OFFCURVE",
"276 561 CURVE",
"276 560 OFFCURVE",
"276 558 OFFCURVE",
"276 556 CURVE",
"277 553 OFFCURVE",
"277 550 OFFCURVE",
"277 547 CURVE",
"412 547 LINE",
"412 427 LINE",
"279 427 LINE",
"282 359 OFFCURVE",
"284 286 OFFCURVE",
"286 213 CURVE SMOOTH",
"288 140 OFFCURVE",
"291 68 OFFCURVE",
"293 0 CURVE",
"135 0 LINE",
"148 427 LINE",
"73 427 LINE",
"73 547 LINE",
"150 547 LINE",
"153 565 LINE",
"154 627 OFFCURVE",
"169 672 OFFCURVE",
"202 698 CURVE",
"202 698 LINE",
"233 724 OFFCURVE",
"271 736 OFFCURVE",
"316 736 CURVE"
);
}
);
width = 485;
}
);
unicode = 0066;
},
{
glyphname = g;
lastChange = "2014-11-05 03:31:33 +0000";
layers = (
{
anchors = (
{
name = top;
position = "{337, 547}";
}
);
layerId = "D5D14868-B3D8-4E08-9530-062F6179E82D";
paths = (
{
closed = 1;
nodes = (
"409 339 OFFCURVE",
"397 383 OFFCURVE",
"376 413 CURVE SMOOTH",
"355 442 OFFCURVE",
"324 458 OFFCURVE",
"284 458 CURVE SMOOTH",
"207 458 OFFCURVE",
"179 403 OFFCURVE",
"168 360 CURVE SMOOTH",
"163 338 OFFCURVE",
"160 314 OFFCURVE",
"160 286 CURVE",
"165 233 OFFCURVE",
"176 200 OFFCURVE",
"190 188 CURVE",
"207 178 OFFCURVE",
"237 172 OFFCURVE",
"278 172 CURVE SMOOTH",
"362 172 OFFCURVE",
"409 179 OFFCURVE",
"409 284 CURVE SMOOTH"
);
},
{
closed = 1;
nodes = (
"561 81 LINE SMOOTH",
"557 -28 OFFCURVE",
"535 -112 OFFCURVE",
"494 -156 CURVE SMOOTH",
"452 -203 OFFCURVE",
"388 -226 OFFCURVE",
"303 -226 CURVE SMOOTH",
"242 -226 OFFCURVE",
"185 -215 OFFCURVE",
"125 -194 CURVE",
"125 -1 LINE",
"190 -37 OFFCURVE",
"243 -52 OFFCURVE",
"290 -52 CURVE SMOOTH",
"338 -52 OFFCURVE",
"375 -38 OFFCURVE",
"397 -13 CURVE SMOOTH",
"413 5 OFFCURVE",
"423 23 OFFCURVE",
"432 41 CURVE",
"424 36 OFFCURVE",
"416 30 OFFCURVE",
"406 24 CURVE SMOOTH",
"376 8 OFFCURVE",
"341 0 OFFCURVE",
"300 0 CURVE SMOOTH",
"163 0 OFFCURVE",
"73 114 OFFCURVE",
"73 279 CURVE SMOOTH",
"73 445 OFFCURVE",
"163 559 OFFCURVE",
"300 559 CURVE SMOOTH",
"365 559 OFFCURVE",
"414 541 OFFCURVE",
"451 500 CURVE",
"452 508 OFFCURVE",
"453 517 OFFCURVE",
"454 525 CURVE",
"455 533 OFFCURVE",
"456 541 OFFCURVE",
"456 547 CURVE",
"575 547 LINE"
);
}
);
width = 648;
}
);
unicode = 0067;
},
{
glyphname = h;
lastChange = "2014-11-05 03:31:33 +0000";
layers = (
{
anchors = (
{
name = center;
position = "{260, 273}";
},
{
name = top;
position = "{260, 547}";
}
);
layerId = "D5D14868-B3D8-4E08-9530-062F6179E82D";
paths = (
{
closed = 1;
nodes = (
"557 0 LINE",
"417 0 LINE",
"427 324 LINE",
"427 324 LINE",
"427 409 OFFCURVE",
"395 459 OFFCURVE",
"332 459 CURVE SMOOTH",
"253 459 OFFCURVE",
"204 397 OFFCURVE",
"204 307 CURVE SMOOTH",
"205 259 OFFCURVE",
"207 206 OFFCURVE",
"208 153 CURVE SMOOTH",
"210 101 OFFCURVE",
"212 48 OFFCURVE",
"213 0 CURVE",
"73 0 LINE",
"92 746 LINE",
"213 746 LINE",
"205 502 LINE",
"244 542 OFFCURVE",
"291 559 OFFCURVE",
"351 559 CURVE SMOOTH",
"480 559 OFFCURVE",
"547 480 OFFCURVE",
"547 326 CURVE",
"547 327 LINE"
);
}
);
width = 630;
}
);
unicode = 0068;
},
{
glyphname = i;
lastChange = "2014-11-05 03:31:33 +0000";
layers = (
{
layerId = "D5D14868-B3D8-4E08-9530-062F6179E82D";
paths = (
{
closed = 1;
nodes = (
"79 547 LINE",
"190 547 LINE",
"194 0 LINE",
"74 0 LINE"
);
},
{
closed = 1;
nodes = (
"79 746 LINE",
"189 746 LINE",
"195 603 LINE",
"73 603 LINE"
);
}
);
width = 269;
}
);
unicode = 0069;
},
{
glyphname = j;
lastChange = "2014-11-05 03:31:33 +0000";
layers = (
{
layerId = "D5D14868-B3D8-4E08-9530-062F6179E82D";
paths = (
{
closed = 1;
nodes = (
"219 545 LINE",
"334 543 LINE",
"315 5 LINE SMOOTH",
"313 -64 OFFCURVE",
"298 -115 OFFCURVE",
"271 -145 CURVE SMOOTH",
"242 -176 OFFCURVE",
"198 -193 OFFCURVE",
"138 -195 CURVE",
"73 -194 LINE",
"76 -32 LINE",
"128 -32 LINE",
"155 -31 OFFCURVE",
"173 -25 OFFCURVE",
"182 -16 CURVE SMOOTH",
"186 -11 OFFCURVE",
"189 -2 OFFCURVE",
"192 11 CURVE SMOOTH",
"194 24 OFFCURVE",
"195 41 OFFCURVE",
"196 62 CURVE SMOOTH"
);
},
{
closed = 1;
nodes = (
"238 746 LINE",
"348 746 LINE",
"354 603 LINE",
"232 603 LINE"
);
}
);
width = 427;
}
);
unicode = 006A;
},
{
glyphname = k;
lastChange = "2014-11-05 03:31:33 +0000";
layers = (
{
anchors = (
{
name = bottom;
position = "{272, 0}";
}
);
layerId = "D5D14868-B3D8-4E08-9530-062F6179E82D";
paths = (
{
closed = 1;
nodes = (
"92 746 LINE",
"213 746 LINE",
"208 376 LINE",
"354 547 LINE",
"508 547 LINE",
"302 292 LINE",
"325 269 OFFCURVE",
"350 246 OFFCURVE",
"375 221 CURVE SMOOTH",
"401 196 OFFCURVE",
"427 170 OFFCURVE",
"454 145 CURVE SMOOTH",
"480 120 OFFCURVE",
"506 95 OFFCURVE",
"532 70 CURVE SMOOTH",
"558 45 OFFCURVE",
"582 22 OFFCURVE",
"604 0 CURVE",
"377 0 LINE",
"211 204 LINE",
"223 0 LINE",
"73 0 LINE"
);
}
);
width = 677;
}
);
unicode = 006B;
},
{
glyphname = l;
lastChange = "2014-11-05 03:31:33 +0000";
layers = (
{
anchors = (
{
name = bottom;
position = "{120, 0}";
},
{
name = top;
position = "{178, 760}";
},
{
name = topright;
position = "{283, 547}";
}
);
layerId = "D5D14868-B3D8-4E08-9530-062F6179E82D";
paths = (
{
closed = 1;
nodes = (
"83 746 LINE",
"199 746 LINE",
"199 140 LINE",
"255 140 LINE",
"255 0 LINE",
"73 0 LINE"
);
}
);
width = 329;
}
);
unicode = 006C;
},
{
glyphname = m;
lastChange = "2014-11-05 03:31:33 +0000";
layers = (
{
layerId = "D5D14868-B3D8-4E08-9530-062F6179E82D";
paths = (
{
closed = 1;
nodes = (
"481 513 OFFCURVE",
"500 493 OFFCURVE",
"513 469 CURVE",
"549 522 OFFCURVE",
"592 559 OFFCURVE",
"680 559 CURVE SMOOTH",
"739 559 OFFCURVE",
"785 538 OFFCURVE",
"816 499 CURVE SMOOTH",
"848 459 OFFCURVE",
"864 400 OFFCURVE",
"864 326 CURVE",
"864 327 LINE",
"866 275 OFFCURVE",
"867 220 OFFCURVE",
"869 164 CURVE SMOOTH",
"871 107 OFFCURVE",
"873 51 OFFCURVE",
"874 0 CURVE",
"719 0 LINE",
"744 338 LINE",
"744 428 OFFCURVE",
"727 463 OFFCURVE",
"670 463 CURVE SMOOTH",
"596 463 OFFCURVE",
"552 399 OFFCURVE",
"552 306 CURVE SMOOTH",
"547 0 LINE",
"393 0 LINE",
"427 344 LINE",
"426 428 OFFCURVE",
"399 468 OFFCURVE",
"339 468 CURVE SMOOTH",
"302 468 OFFCURVE",
"272 453 OFFCURVE",
"249 422 CURVE SMOOTH",
"225 391 OFFCURVE",
"212 352 OFFCURVE",
"212 307 CURVE SMOOTH",
"214 259 OFFCURVE",
"215 206 OFFCURVE",
"217 153 CURVE SMOOTH",
"219 101 OFFCURVE",
"221 48 OFFCURVE",
"222 0 CURVE",
"73 0 LINE",
"92 547 LINE",
"214 547 LINE",
"211 510 LINE",
"248 543 OFFCURVE",
"292 559 OFFCURVE",
"349 559 CURVE SMOOTH",
"390 559 OFFCURVE",
"427 548 OFFCURVE",
"458 528 CURVE"
);
}
);
width = 947;
}
);
unicode = 006D;
},
{
glyphname = n;
lastChange = "2014-11-05 03:31:33 +0000";
layers = (
{
anchors = (
{
name = bottom;
position = "{308, 0}";
},
{
name = top;
position = "{308, 547}";
}
);
layerId = "D5D14868-B3D8-4E08-9530-062F6179E82D";
paths = (
{
closed = 1;
nodes = (
"570 0 LINE",
"412 0 LINE",
"431 329 LINE",
"431 413 OFFCURVE",
"407 455 OFFCURVE",
"345 455 CURVE SMOOTH",
"253 455 OFFCURVE",
"212 402 OFFCURVE",
"212 312 CURVE",
"227 0 LINE",
"73 0 LINE",
"88 551 LINE",
"208 551 LINE",
"208 508 LINE",
"222 517 OFFCURVE",
"236 525 OFFCURVE",
"251 534 CURVE",
"281 550 OFFCURVE",
"315 559 OFFCURVE",
"354 559 CURVE SMOOTH",
"482 559 OFFCURVE",
"548 476 OFFCURVE",
"556 327 CURVE SMOOTH"
);
}
);
width = 644;
}
);
unicode = 006E;
},
{
glyphname = o;
lastChange = "2014-11-05 03:31:33 +0000";
layers = (
{
anchors = (
{
name = horncomb;
position = "{500, 345}";
},
{
name = top;
position = "{325, 547}";
}
);
layerId = "D5D14868-B3D8-4E08-9530-062F6179E82D";
paths = (
{
closed = 1;
nodes = (
"248 461 OFFCURVE",
"198 397 OFFCURVE",
"198 288 CURVE SMOOTH",
"198 182 OFFCURVE",
"242 168 OFFCURVE",
"326 168 CURVE SMOOTH",
"366 168 OFFCURVE",
"399 176 OFFCURVE",
"422 189 CURVE",
"442 203 OFFCURVE",
"453 235 OFFCURVE",
"453 288 CURVE SMOOTH",
"453 397 OFFCURVE",
"402 461 OFFCURVE",
"326 461 CURVE SMOOTH"
);
},
{
closed = 1;
nodes = (
"482 559 OFFCURVE",
"578 449 OFFCURVE",
"578 273 CURVE SMOOTH",
"578 97 OFFCURVE",
"482 -13 OFFCURVE",
"326 -13 CURVE SMOOTH",
"246 -13 OFFCURVE",
"184 13 OFFCURVE",
"140 64 CURVE SMOOTH",
"95 115 OFFCURVE",
"73 185 OFFCURVE",
"73 273 CURVE SMOOTH",
"73 361 OFFCURVE",
"95 431 OFFCURVE",
"140 482 CURVE SMOOTH",
"184 533 OFFCURVE",
"246 559 OFFCURVE",
"326 559 CURVE SMOOTH"
);
}
);
width = 651;
}
);
unicode = 006F;
},
{
glyphname = p;
lastChange = "2014-11-05 03:31:33 +0000";
layers = (
{
layerId = "D5D14868-B3D8-4E08-9530-062F6179E82D";
paths = (
{
closed = 1;
nodes = (
"194 -194 LINE",
"49 -194 LINE",
"80 59 LINE",
"92 547 LINE",
"214 547 LINE",
"211 512 LINE",
"247 543 OFFCURVE",
"292 559 OFFCURVE",
"349 559 CURVE SMOOTH",
"483 559 OFFCURVE",
"576 441 OFFCURVE",
"576 273 CURVE SMOOTH",
"576 104 OFFCURVE",
"483 -13 OFFCURVE",
"349 -13 CURVE SMOOTH",
"288 -13 OFFCURVE",
"239 5 OFFCURVE",
"202 42 CURVE"
);
},
{
closed = 1;
nodes = (
"486 346 OFFCURVE",
"474 390 OFFCURVE",
"451 421 CURVE SMOOTH",
"429 452 OFFCURVE",
"399 467 OFFCURVE",
"361 467 CURVE SMOOTH",
"324 467 OFFCURVE",
"294 452 OFFCURVE",
"271 421 CURVE",
"271 422 LINE",
"249 390 OFFCURVE",
"237 345 OFFCURVE",
"237 288 CURVE SMOOTH",
"237 177 OFFCURVE",
"285 161 OFFCURVE",
"366 161 CURVE SMOOTH",
"447 161 OFFCURVE",
"486 176 OFFCURVE",
"486 288 CURVE SMOOTH"
);
}
);
width = 649;
}
);
unicode = 0070;
},
{
glyphname = q;
lastChange = "2014-11-05 03:31:33 +0000";
layers = (
{
layerId = "D5D14868-B3D8-4E08-9530-062F6179E82D";
paths = (
{
closed = 1;
nodes = (
"165 175 OFFCURVE",
"207 163 OFFCURVE",
"287 163 CURVE SMOOTH",
"328 163 OFFCURVE",
"360 170 OFFCURVE",
"383 184 CURVE SMOOTH",
"404 196 OFFCURVE",
"415 230 OFFCURVE",
"415 285 CURVE SMOOTH",
"415 342 OFFCURVE",
"403 386 OFFCURVE",
"380 419 CURVE",
"357 449 OFFCURVE",
"327 464 OFFCURVE",
"290 464 CURVE SMOOTH",
"252 464 OFFCURVE",
"222 449 OFFCURVE",
"199 419 CURVE",
"200 419 LINE",
"177 387 OFFCURVE",
"165 343 OFFCURVE",
"165 285 CURVE SMOOTH"
);
},
{
closed = 1;
nodes = (
"598 -62 LINE SMOOTH",
"624 -99 OFFCURVE",
"654 -147 OFFCURVE",
"681 -161 CURVE",
"591 -185 LINE SMOOTH",
"561 -193 OFFCURVE",
"551 -194 OFFCURVE",
"540 -194 CURVE SMOOTH",
"436 -194 LINE",
"444 39 LINE",
"407 1 OFFCURVE",
"362 -13 OFFCURVE",
"300 -13 CURVE SMOOTH",
"164 -13 OFFCURVE",
"73 104 OFFCURVE",
"73 273 CURVE SMOOTH",
"73 442 OFFCURVE",
"164 559 OFFCURVE",
"300 559 CURVE SMOOTH",
"365 559 OFFCURVE",
"414 541 OFFCURVE",
"451 500 CURVE",
"453 517 OFFCURVE",
"455 534 OFFCURVE",
"457 547 CURVE",
"575 547 LINE",
"549 41 LINE SMOOTH",
"549 34 OFFCURVE",
"551 6 OFFCURVE",
"553 3 CURVE SMOOTH"
);
}
);
width = 754;
}
);
unicode = 0071;
},
{
glyphname = r;
lastChange = "2014-11-05 03:31:33 +0000";
layers = (
{
anchors = (
{
name = bottom;
position = "{183, 0}";
},
{
name = top;
position = "{183, 547}";
}
);
layerId = "D5D14868-B3D8-4E08-9530-062F6179E82D";
paths = (
{
closed = 1;
nodes = (
"405 409 LINE",
"384 421 OFFCURVE",
"370 427 OFFCURVE",
"358 431 CURVE SMOOTH",
"346 434 OFFCURVE",
"335 434 OFFCURVE",
"324 434 CURVE SMOOTH",
"283 434 OFFCURVE",
"254 420 OFFCURVE",
"237 394 CURVE",
"237 394 LINE",
"218 364 OFFCURVE",
"208 324 OFFCURVE",
"208 274 CURVE",
"218 0 LINE",
"73 0 LINE",
"98 542 LINE",
"208 542 LINE",
"208 506 LINE",
"212 509 OFFCURVE",
"217 512 OFFCURVE",
"222 514 CURVE SMOOTH",
"227 517 OFFCURVE",
"231 520 OFFCURVE",
"236 523 CURVE",
"236 522 LINE",
"268 541 OFFCURVE",
"305 550 OFFCURVE",
"349 550 CURVE SMOOTH",
"361 550 OFFCURVE",
"375 548 OFFCURVE",
"404 542 CURVE"
);
}
);
width = 478;
}
);
unicode = 0072;
},
{
glyphname = s;
lastChange = "2014-11-05 03:31:33 +0000";
layers = (
{
anchors = (
{
name = bottom;
position = "{275, 0}";
},
{
name = top;
position = "{275, 547}";
}
);
layerId = "D5D14868-B3D8-4E08-9530-062F6179E82D";
paths = (
{
closed = 1;
nodes = (
"473 414 LINE",
"410 445 OFFCURVE",
"353 461 OFFCURVE",
"301 461 CURVE SMOOTH",
"229 461 OFFCURVE",
"190 438 OFFCURVE",
"190 399 CURVE SMOOTH",
"190 383 OFFCURVE",
"196 370 OFFCURVE",
"208 360 CURVE",
"208 360 LINE",
"221 350 OFFCURVE",
"251 339 OFFCURVE",
"292 330 CURVE SMOOTH",
"297 329 OFFCURVE",
"302 328 OFFCURVE",
"307 327 CURVE SMOOTH",
"311 325 OFFCURVE",
"316 324 OFFCURVE",
"320 324 CURVE",
"383 311 OFFCURVE",
"429 291 OFFCURVE",
"456 268 CURVE SMOOTH",
"484 243 OFFCURVE",
"500 206 OFFCURVE",
"500 159 CURVE SMOOTH",
"500 52 OFFCURVE",
"410 -13 OFFCURVE",
"271 -13 CURVE SMOOTH",
"215 -13 OFFCURVE",
"149 -1 OFFCURVE",
"73 24 CURVE",
"73 190 LINE",
"150 150 OFFCURVE",
"217 130 OFFCURVE",
"272 130 CURVE SMOOTH",
"305 130 OFFCURVE",
"329 134 OFFCURVE",
"344 142 CURVE SMOOTH",
"359 149 OFFCURVE",
"368 161 OFFCURVE",
"368 176 CURVE",
"360 189 OFFCURVE",
"354 200 OFFCURVE",
"347 208 CURVE SMOOTH",
"341 213 OFFCURVE",
"315 221 OFFCURVE",
"268 231 CURVE SMOOTH",
"238 238 LINE",
"239 238 LINE",
"129 260 OFFCURVE",
"77 300 OFFCURVE",
"77 391 CURVE SMOOTH",
"77 500 OFFCURVE",
"153 559 OFFCURVE",
"292 559 CURVE SMOOTH",
"356 559 OFFCURVE",
"416 549 OFFCURVE",
"473 526 CURVE"
);
}
);
width = 573;
}
);
unicode = 0073;
},
{
glyphname = t;
lastChange = "2014-11-05 03:31:33 +0000";
layers = (
{
anchors = (
{
name = bottom;
position = "{245, 0}";
},
{
name = center;
position = "{245, 273}";
}
);
layerId = "D5D14868-B3D8-4E08-9530-062F6179E82D";
paths = (
{
closed = 1;
nodes = (
"265 673 LINE",
"261 547 LINE",
"378 547 LINE",
"378 445 LINE",
"260 445 LINE",
"255 241 LINE SMOOTH",
"255 204 OFFCURVE",
"259 182 OFFCURVE",
"268 174 CURVE",
"275 166 OFFCURVE",
"294 161 OFFCURVE",
"324 161 CURVE SMOOTH",
"428 161 LINE",
"428 0 LINE",
"324 0 LINE SMOOTH",
"185 0 OFFCURVE",
"130 48 OFFCURVE",
"130 187 CURVE SMOOTH",
"135 445 LINE",
"73 445 LINE",
"73 547 LINE",
"135 547 LINE",
"140 673 LINE"
);
}
);
width = 501;
}
);
unicode = 0074;
},
{
glyphname = u;
lastChange = "2014-11-05 03:31:33 +0000";
layers = (
{
anchors = (
{
name = horncomb;
position = "{516, 387}";
},
{
name = ogonek;
position = "{471, 4}";
},
{
name = top;
position = "{313, 547}";
}
);
layerId = "D5D14868-B3D8-4E08-9530-062F6179E82D";
paths = (
{
closed = 1;
nodes = (
"73 547 LINE",
"180 547 LINE",
"180 297 LINE",
"185 213 OFFCURVE",
"212 169 OFFCURVE",
"274 169 CURVE SMOOTH",
"314 169 OFFCURVE",
"345 181 OFFCURVE",
"366 206 CURVE SMOOTH",
"388 231 OFFCURVE",
"399 269 OFFCURVE",
"403 313 CURVE",
"408 547 LINE",
"542 547 LINE",
"532 0 LINE",
"411 0 LINE",
"413 42 LINE",
"375 5 OFFCURVE",
"328 -13 OFFCURVE",
"271 -13 CURVE SMOOTH",
"141 -13 OFFCURVE",
"73 67 OFFCURVE",
"73 220 CURVE SMOOTH"
);
}
);
width = 615;
}
);
unicode = 0075;
},
{
glyphname = v;
lastChange = "2014-11-05 03:31:33 +0000";
layers = (
{
layerId = "D5D14868-B3D8-4E08-9530-062F6179E82D";
paths = (
{
closed = 1;
nodes = (
"73 547 LINE",
"201 547 LINE",
"348 202 LINE",
"372 258 OFFCURVE",
"396 316 OFFCURVE",
"422 375 CURVE SMOOTH",
"447 434 OFFCURVE",
"472 491 OFFCURVE",
"495 547 CURVE",
"623 547 LINE",
"423 0 LINE",
"273 0 LINE"
);
}
);
width = 696;
}
);
unicode = 0076;
},
{
glyphname = w;
lastChange = "2014-11-05 03:31:33 +0000";
layers = (
{
anchors = (
{
name = top;
position = "{440, 547}";
}
);
layerId = "D5D14868-B3D8-4E08-9530-062F6179E82D";
paths = (
{
closed = 1;
nodes = (
"73 547 LINE",
"195 547 LINE",
"291 221 LINE",
"370 378 LINE",
"510 378 LINE",
"589 221 LINE",
"605 275 OFFCURVE",
"621 330 OFFCURVE",
"637 385 CURVE SMOOTH",
"653 440 OFFCURVE",
"669 495 OFFCURVE",
"685 547 CURVE",
"806 547 LINE",
"663 0 LINE",
"519 0 LINE",
"439 201 LINE",
"355 0 LINE",
"216 0 LINE"
);
}
);
width = 879;
}
);
unicode = 0077;
},
{
glyphname = x;
lastChange = "2014-11-05 03:31:33 +0000";
layers = (
{
layerId = "D5D14868-B3D8-4E08-9530-062F6179E82D";
paths = (
{
closed = 1;
nodes = (
"641 547 LINE",
"450 259 LINE",
"466 239 OFFCURVE",
"483 218 OFFCURVE",
"502 196 CURVE SMOOTH",
"521 174 OFFCURVE",
"539 151 OFFCURVE",
"558 129 CURVE SMOOTH",
"577 106 OFFCURVE",
"596 84 OFFCURVE",
"614 62 CURVE SMOOTH",
"632 40 OFFCURVE",
"649 19 OFFCURVE",
"665 0 CURVE",
"481 0 LINE",
"373 164 LINE",
"257 0 LINE",
"73 0 LINE",
"292 264 LINE",
"105 547 LINE",
"238 547 LINE",
"369 352 LINE",
"392 383 OFFCURVE",
"416 416 OFFCURVE",
"441 450 CURVE SMOOTH",
"466 483 OFFCURVE",
"490 515 OFFCURVE",
"513 547 CURVE"
);
}
);
width = 738;
}
);
unicode = 0078;
},
{
glyphname = y;
lastChange = "2014-11-05 03:31:33 +0000";
layers = (
{
anchors = (
{
name = top;
position = "{301, 547}";
}
);
layerId = "D5D14868-B3D8-4E08-9530-062F6179E82D";
paths = (
{
closed = 1;
nodes = (
"400 -36 LINE",
"339 -175 OFFCURVE",
"289 -203 OFFCURVE",
"205 -203 CURVE SMOOTH",
"111 -203 LINE",
"111 -56 LINE",
"188 -56 LINE SMOOTH",
"206 -56 OFFCURVE",
"220 -51 OFFCURVE",
"229 -44 CURVE",
"241 -34 OFFCURVE",
"254 -21 OFFCURVE",
"267 -3 CURVE",
"272 8 OFFCURVE",
"278 19 OFFCURVE",
"284 29 CURVE SMOOTH",
"289 39 OFFCURVE",
"294 50 OFFCURVE",
"300 61 CURVE",
"282 100 OFFCURVE",
"263 139 OFFCURVE",
"244 180 CURVE SMOOTH",
"206 262 OFFCURVE",
"167 346 OFFCURVE",
"129 428 CURVE SMOOTH",
"110 469 OFFCURVE",
"91 508 OFFCURVE",
"73 547 CURVE",
"200 547 LINE",
"369 270 LINE",
"498 547 LINE",
"625 547 LINE"
);
}
);
width = 698;
}
);
unicode = 0079;
},
{
glyphname = z;
lastChange = "2014-11-05 03:31:33 +0000";
layers = (
{
anchors = (
{
name = top;
position = "{306, 547}";
}
);
layerId = "D5D14868-B3D8-4E08-9530-062F6179E82D";
paths = (
{
closed = 1;
nodes = (
"94 547 LINE",
"524 547 LINE",
"524 445 LINE",
"258 149 LINE",
"519 149 LINE",
"519 0 LINE",
"73 0 LINE",
"73 147 LINE",
"373 448 LINE",
"94 448 LINE"
);
}
);
width = 597;
}
);
unicode = 007A;
},
{
glyphname = braceleft;
lastChange = "2014-11-05 03:31:33 +0000";
layers = (
{
layerId = "D5D14868-B3D8-4E08-9530-062F6179E82D";
paths = (
{
closed = 1;
nodes = (
"464 -29 LINE",
"463 -159 LINE",
"417 -158 LINE SMOOTH",
"338 -157 OFFCURVE",
"283 -141 OFFCURVE",
"254 -116 CURVE",
"229 -89 OFFCURVE",
"213 -39 OFFCURVE",
"211 32 CURVE",
"212 140 LINE",
"208 224 OFFCURVE",
"194 244 OFFCURVE",
"119 246 CURVE SMOOTH",
"116 246 OFFCURVE",
"113 246 OFFCURVE",
"109 246 CURVE SMOOTH",
"104 246 OFFCURVE",
"100 246 OFFCURVE",
"96 247 CURVE",
"91 247 OFFCURVE",
"87 247 OFFCURVE",
"83 247 CURVE SMOOTH",
"79 247 OFFCURVE",
"76 247 OFFCURVE",
"73 247 CURVE",
"74 348 LINE",
"119 348 LINE",
"158 350 OFFCURVE",
"185 357 OFFCURVE",
"198 369 CURVE SMOOTH",
"210 381 OFFCURVE",
"217 408 OFFCURVE",
"218 448 CURVE SMOOTH",
"220 557 LINE SMOOTH",
"222 702 OFFCURVE",
"271 736 OFFCURVE",
"431 740 CURVE SMOOTH",
"479 739 LINE",
"477 638 LINE",
"428 638 LINE",
"345 633 OFFCURVE",
"343 630 OFFCURVE",
"341 553 CURVE",
"341 554 LINE",
"339 440 LINE SMOOTH",
"338 390 OFFCURVE",
"329 352 OFFCURVE",
"313 327 CURVE SMOOTH",
"304 313 OFFCURVE",
"292 302 OFFCURVE",
"276 293 CURVE",
"291 284 OFFCURVE",
"302 272 OFFCURVE",
"310 257 CURVE",
"310 257 LINE",
"323 233 OFFCURVE",
"331 199 OFFCURVE",
"333 154 CURVE",
"332 42 LINE",
"334 16 OFFCURVE",
"338 -3 OFFCURVE",
"348 -13 CURVE",
"355 -22 OFFCURVE",
"378 -28 OFFCURVE",
"416 -29 CURVE SMOOTH"
);
}
);
width = 552;
}
);
unicode = 007B;
},
{
glyphname = bar;
lastChange = "2014-11-05 03:31:33 +0000";
layers = (
{
layerId = "D5D14868-B3D8-4E08-9530-062F6179E82D";
paths = (
{
closed = 1;
nodes = (
"197 -220 LINE",
"73 -220 LINE",
"98 276 LINE",
"211 276 LINE"
);
},
{
closed = 1;
nodes = (
"96 289 LINE",
"116 750 LINE",
"230 750 LINE",
"210 289 LINE"
);
}
);
width = 303;
}
);
unicode = 007C;
},
{
glyphname = braceright;
lastChange = "2014-11-05 03:31:33 +0000";
layers = (
{
layerId = "D5D14868-B3D8-4E08-9530-062F6179E82D";
paths = (
{
closed = 1;
nodes = (
"73 -45 LINE",
"124 -45 LINE SMOOTH",
"198 -45 OFFCURVE",
"208 -36 OFFCURVE",
"208 41 CURVE SMOOTH",
"208 154 LINE SMOOTH",
"208 202 OFFCURVE",
"215 238 OFFCURVE",
"231 263 CURVE SMOOTH",
"240 276 OFFCURVE",
"251 288 OFFCURVE",
"267 297 CURVE",
"251 306 OFFCURVE",
"240 317 OFFCURVE",
"231 331 CURVE SMOOTH",
"215 355 OFFCURVE",
"208 394 OFFCURVE",
"208 445 CURVE SMOOTH",
"208 558 LINE SMOOTH",
"208 634 OFFCURVE",
"197 644 OFFCURVE",
"124 644 CURVE SMOOTH",
"73 644 LINE",
"73 746 LINE",
"120 746 LINE SMOOTH",
"201 746 OFFCURVE",
"255 733 OFFCURVE",
"284 708 CURVE",
"283 708 LINE",
"313 681 OFFCURVE",
"328 632 OFFCURVE",
"328 560 CURVE SMOOTH",
"328 450 LINE SMOOTH",
"328 410 OFFCURVE",
"334 382 OFFCURVE",
"348 368 CURVE",
"348 369 LINE",
"361 355 OFFCURVE",
"386 348 OFFCURVE",
"424 348 CURVE SMOOTH",
"470 348 LINE",
"470 247 LINE",
"424 247 LINE SMOOTH",
"348 247 OFFCURVE",
"328 226 OFFCURVE",
"328 143 CURVE SMOOTH",
"328 34 LINE SMOOTH",
"328 -39 OFFCURVE",
"313 -88 OFFCURVE",
"283 -114 CURVE",
"284 -114 LINE",
"256 -140 OFFCURVE",
"201 -152 OFFCURVE",
"120 -152 CURVE SMOOTH",
"73 -152 LINE"
);
}
);
width = 543;
}
);
unicode = 007D;
},
{
glyphname = asciitilde;
lastChange = "2014-11-05 03:31:33 +0000";
layers = (
{
layerId = "D5D14868-B3D8-4E08-9530-062F6179E82D";
paths = (
{
closed = 1;
nodes = (
"694 310 LINE",
"678 297 OFFCURVE",
"661 284 OFFCURVE",
"644 272 CURVE SMOOTH",
"626 260 OFFCURVE",
"610 249 OFFCURVE",
"597 240 CURVE",
"597 241 LINE",
"566 221 OFFCURVE",
"535 210 OFFCURVE",
"502 210 CURVE SMOOTH",
"465 210 OFFCURVE",
"424 225 OFFCURVE",
"377 253 CURVE",
"371 255 LINE",
"361 258 LINE",
"316 283 OFFCURVE",
"280 295 OFFCURVE",
"254 295 CURVE SMOOTH",
"231 295 OFFCURVE",
"209 287 OFFCURVE",
"186 270 CURVE SMOOTH",
"173 260 OFFCURVE",
"152 243 OFFCURVE",
"131 226 CURVE SMOOTH",
"109 208 OFFCURVE",
"87 190 OFFCURVE",
"73 178 CURVE",
"73 321 LINE",
"109 349 OFFCURVE",
"142 368 OFFCURVE",
"173 380 CURVE SMOOTH",
"204 392 OFFCURVE",
"234 398 OFFCURVE",
"265 398 CURVE SMOOTH",
"300 398 OFFCURVE",
"341 388 OFFCURVE",
"389 369 CURVE SMOOTH",
"396 366 LINE",
"397 366 OFFCURVE",
"399 365 OFFCURVE",
"401 365 CURVE",
"403 364 OFFCURVE",
"405 363 OFFCURVE",
"406 362 CURVE",
"451 345 OFFCURVE",
"485 336 OFFCURVE",
"512 336 CURVE SMOOTH",
"560 336 OFFCURVE",
"614 364 OFFCURVE",
"694 429 CURVE"
);
}
);
width = 767;
}
);
unicode = 007E;
},
{
glyphname = exclamdown;
lastChange = "2014-11-05 03:31:33 +0000";
layers = (
{
layerId = "D5D14868-B3D8-4E08-9530-062F6179E82D";
paths = (
{
closed = 1;
nodes = (
"226 556 LINE",
"78 556 LINE",
"78 717 LINE",
"226 717 LINE"
);
},
{
closed = 1;
nodes = (
"230 0 LINE",
"73 0 LINE",
"78 317 LINE",
"89 498 LINE",
"215 498 LINE",
"226 317 LINE"
);
}
);
width = 304;
}
);
unicode = 00A1;
},
{
glyphname = cent;
lastChange = "2014-11-05 03:31:33 +0000";
layers = (
{
layerId = "D5D14868-B3D8-4E08-9530-062F6179E82D";
paths = (
{
closed = 1;
nodes = (
"308 456 LINE",
"275 446 OFFCURVE",
"250 425 OFFCURVE",
"230 394 CURVE SMOOTH",
"211 362 OFFCURVE",
"201 320 OFFCURVE",
"199 271 CURVE",
"199 234 OFFCURVE",
"209 198 OFFCURVE",
"230 174 CURVE",
"229 174 LINE",
"247 153 OFFCURVE",
"272 140 OFFCURVE",
"301 132 CURVE"
);
},
{
closed = 1;
nodes = (
"517 406 LINE",
"462 437 OFFCURVE",
"423 454 OFFCURVE",
"391 458 CURVE",
"385 127 LINE",
"421 133 OFFCURVE",
"462 149 OFFCURVE",
"513 174 CURVE",
"510 18 LINE",
"467 0 OFFCURVE",
"425 -11 OFFCURVE",
"382 -17 CURVE",
"382 -38 OFFCURVE",
"382 -60 OFFCURVE",
"381 -83 CURVE SMOOTH",
"381 -105 OFFCURVE",
"380 -127 OFFCURVE",
"380 -147 CURVE",
"297 -147 LINE",
"299 -13 LINE",
"230 -3 OFFCURVE",
"175 25 OFFCURVE",
"135 73 CURVE SMOOTH",
"93 124 OFFCURVE",
"72 190 OFFCURVE",
"73 273 CURVE SMOOTH",
"75 357 OFFCURVE",
"98 422 OFFCURVE",
"142 471 CURVE SMOOTH",
"183 518 OFFCURVE",
"237 544 OFFCURVE",
"309 553 CURVE",
"310 574 OFFCURVE",
"310 597 OFFCURVE",
"311 620 CURVE SMOOTH",
"311 643 OFFCURVE",
"311 665 OFFCURVE",
"312 685 CURVE",
"395 684 LINE",
"393 551 LINE",
"434 546 OFFCURVE",
"475 534 OFFCURVE",
"518 513 CURVE"
);
}
);
width = 591;
}
);
unicode = 00A2;
},
{
glyphname = sterling;
lastChange = "2014-11-05 03:31:33 +0000";
layers = (
{
layerId = "D5D14868-B3D8-4E08-9530-062F6179E82D";
paths = (
{
closed = 1;
nodes = (
"569 562 LINE",
"509 595 OFFCURVE",
"462 613 OFFCURVE",
"429 614 CURVE",
"349 609 OFFCURVE",
"325 588 OFFCURVE",
"321 467 CURVE SMOOTH",
"319 387 LINE",
"347 387 OFFCURVE",
"378 386 OFFCURVE",
"409 386 CURVE SMOOTH",
"440 385 OFFCURVE",
"470 384 OFFCURVE",
"497 384 CURVE",
"495 291 LINE",
"317 295 LINE",
"316 266 OFFCURVE",
"316 241 OFFCURVE",
"315 215 CURVE SMOOTH",
"314 189 OFFCURVE",
"313 163 OFFCURVE",
"312 133 CURVE",
"566 128 LINE",
"563 -8 LINE",
"73 0 LINE",
"77 137 LINE",
"185 135 LINE",
"185 164 OFFCURVE",
"186 189 OFFCURVE",
"187 215 CURVE SMOOTH",
"188 240 OFFCURVE",
"188 266 OFFCURVE",
"189 297 CURVE",
"99 298 LINE",
"101 391 LINE",
"191 390 LINE",
"194 480 LINE SMOOTH",
"196 564 OFFCURVE",
"216 625 OFFCURVE",
"252 663 CURVE SMOOTH",
"289 702 OFFCURVE",
"345 722 OFFCURVE",
"421 724 CURVE",
"461 723 OFFCURVE",
"515 710 OFFCURVE",
"572 688 CURVE"
);
}
);
width = 646;
}
);
unicode = 00A3;
},
{
glyphname = currency;
lastChange = "2014-11-05 03:31:33 +0000";
layers = (
{
layerId = "D5D14868-B3D8-4E08-9530-062F6179E82D";
paths = (
{
closed = 1;
nodes = (
"557 591 LINE",
"634 514 LINE",
"537 417 LINE",
"556 383 OFFCURVE",
"566 347 OFFCURVE",
"566 311 CURVE SMOOTH",
"566 271 OFFCURVE",
"557 240 OFFCURVE",
"536 206 CURVE",
"633 108 LINE",
"556 32 LINE",
"459 128 LINE",
"424 107 OFFCURVE",
"389 98 OFFCURVE",
"354 98 CURVE SMOOTH",
"318 98 OFFCURVE",
"283 108 OFFCURVE",
"248 127 CURVE",
"150 30 LINE",
"73 108 LINE",
"170 205 LINE",
"151 242 OFFCURVE",
"141 277 OFFCURVE",
"141 311 CURVE SMOOTH",
"141 348 OFFCURVE",
"151 382 OFFCURVE",
"171 415 CURVE",
"163 422 OFFCURVE",
"155 431 OFFCURVE",
"147 439 CURVE SMOOTH",
"139 447 OFFCURVE",
"130 456 OFFCURVE",
"122 464 CURVE SMOOTH",
"113 473 OFFCURVE",
"105 481 OFFCURVE",
"97 489 CURVE SMOOTH",
"89 498 OFFCURVE",
"82 505 OFFCURVE",
"74 512 CURVE",
"152 590 LINE",
"249 493 LINE",
"282 513 OFFCURVE",
"317 523 OFFCURVE",
"354 523 CURVE SMOOTH",
"389 523 OFFCURVE",
"424 513 OFFCURVE",
"459 494 CURVE"
);
},
{
closed = 1;
nodes = (
"458 370 OFFCURVE",
"413 414 OFFCURVE",
"354 414 CURVE SMOOTH",
"296 414 OFFCURVE",
"249 370 OFFCURVE",
"249 311 CURVE SMOOTH",
"249 281 OFFCURVE",
"259 256 OFFCURVE",
"279 236 CURVE",
"279 237 LINE",
"299 217 OFFCURVE",
"324 207 OFFCURVE",
"354 207 CURVE SMOOTH",
"383 207 OFFCURVE",
"408 216 OFFCURVE",
"428 236 CURVE",
"427 236 LINE",
"448 257 OFFCURVE",
"458 282 OFFCURVE",
"458 311 CURVE SMOOTH"
);
}
);
width = 707;
}
);
unicode = 00A4;
},
{
glyphname = yen;
lastChange = "2014-11-05 03:31:33 +0000";
layers = (
{
layerId = "D5D14868-B3D8-4E08-9530-062F6179E82D";
paths = (
{
closed = 1;
nodes = (
"625 189 LINE",
"437 189 LINE",
"437 174 OFFCURVE",
"438 159 OFFCURVE",
"439 143 CURVE SMOOTH",
"440 126 OFFCURVE",
"441 110 OFFCURVE",
"442 94 CURVE SMOOTH",
"442 78 OFFCURVE",
"443 62 OFFCURVE",
"444 45 CURVE SMOOTH",
"445 29 OFFCURVE",
"446 14 OFFCURVE",
"446 0 CURVE",
"289 0 LINE",
"302 189 LINE",
"114 189 LINE",
"114 300 LINE",
"304 300 LINE",
"297 310 OFFCURVE",
"291 320 OFFCURVE",
"285 329 CURVE",
"278 337 OFFCURVE",
"272 347 OFFCURVE",
"265 357 CURVE",
"105 357 LINE",
"105 450 LINE",
"214 450 LINE",
"73 717 LINE",
"210 717 LINE",
"367 418 LINE",
"393 468 OFFCURVE",
"419 518 OFFCURVE",
"446 568 CURVE SMOOTH",
"472 619 OFFCURVE",
"498 668 OFFCURVE",
"523 717 CURVE",
"661 717 LINE",
"516 450 LINE",
"625 450 LINE",
"625 357 LINE",
"466 357 LINE",
"435 300 LINE",
"435 300 LINE",
"625 300 LINE"
);
}
);
width = 734;
}
);
unicode = 00A5;
},
{
glyphname = brokenbar;
lastChange = "2014-11-05 03:31:33 +0000";
layers = (
{
layerId = "D5D14868-B3D8-4E08-9530-062F6179E82D";
paths = (
{
closed = 1;
nodes = (
"187 222 LINE",
"187 -160 LINE",
"73 -160 LINE",
"73 222 LINE"
);
},
{
closed = 1;
nodes = (
"187 689 LINE",
"187 307 LINE",
"73 307 LINE",
"73 689 LINE"
);
}
);
width = 260;
}
);
unicode = 00A6;
},
{
glyphname = section;
lastChange = "2014-11-05 03:31:33 +0000";
layers = (
{
layerId = "D5D14868-B3D8-4E08-9530-062F6179E82D";
paths = (
{
closed = 1;
nodes = (
"233 441 LINE",
"224 434 LINE",
"213 440 LINE"
);
},
{
closed = 1;
nodes = (
"334 370 OFFCURVE",
"292 397 OFFCURVE",
"224 434 CURVE",
"197 413 OFFCURVE",
"183 393 OFFCURVE",
"183 373 CURVE SMOOTH",
"183 355 OFFCURVE",
"192 338 OFFCURVE",
"209 321 CURVE",
"209 321 LINE",
"229 303 OFFCURVE",
"269 277 OFFCURVE",
"340 237 CURVE",
"367 258 OFFCURVE",
"381 279 OFFCURVE",
"381 299 CURVE SMOOTH",
"381 317 OFFCURVE",
"372 334 OFFCURVE",
"354 351 CURVE SMOOTH"
);
},
{
closed = 1;
nodes = (
"445 581 LINE",
"379 612 OFFCURVE",
"330 627 OFFCURVE",
"299 627 CURVE SMOOTH",
"250 627 OFFCURVE",
"224 608 OFFCURVE",
"224 577 CURVE SMOOTH",
"224 557 OFFCURVE",
"252 531 OFFCURVE",
"308 499 CURVE",
"308 499 LINE",
"326 489 LINE SMOOTH",
"392 451 OFFCURVE",
"436 420 OFFCURVE",
"457 395 CURVE",
"457 395 LINE",
"479 368 OFFCURVE",
"491 337 OFFCURVE",
"491 302 CURVE SMOOTH",
"491 248 OFFCURVE",
"467 204 OFFCURVE",
"419 170 CURVE",
"448 140 OFFCURVE",
"461 108 OFFCURVE",
"461 71 CURVE SMOOTH",
"461 -26 OFFCURVE",
"385 -89 OFFCURVE",
"271 -89 CURVE SMOOTH",
"225 -89 OFFCURVE",
"173 -79 OFFCURVE",
"109 -58 CURVE",
"109 82 LINE",
"178 51 OFFCURVE",
"229 36 OFFCURVE",
"261 36 CURVE SMOOTH",
"312 36 OFFCURVE",
"341 44 OFFCURVE",
"341 77 CURVE SMOOTH",
"341 94 OFFCURVE",
"311 120 OFFCURVE",
"250 154 CURVE",
"250 154 LINE",
"238 161 LINE SMOOTH",
"104 235 OFFCURVE",
"73 275 OFFCURVE",
"73 348 CURVE SMOOTH",
"73 400 OFFCURVE",
"99 448 OFFCURVE",
"144 479 CURVE",
"118 507 OFFCURVE",
"103 541 OFFCURVE",
"103 579 CURVE SMOOTH",
"103 625 OFFCURVE",
"120 661 OFFCURVE",
"155 688 CURVE SMOOTH",
"190 715 OFFCURVE",
"234 729 OFFCURVE",
"288 729 CURVE SMOOTH",
"333 729 OFFCURVE",
"386 719 OFFCURVE",
"445 697 CURVE"
);
}
);
width = 564;
}
);
unicode = 00A7;
},
{
glyphname = dieresis;
lastChange = "2014-11-05 03:31:33 +0000";
layers = (
{
anchors = (
{
name = _top;
position = "{237, 462}";
}
);
layerId = "D5D14868-B3D8-4E08-9530-062F6179E82D";
paths = (
{
closed = 1;
nodes = (
"264 750 LINE",
"400 750 LINE",
"400 615 LINE",
"264 615 LINE"
);
},
{
closed = 1;
nodes = (
"73 750 LINE",
"209 750 LINE",
"209 615 LINE",
"73 615 LINE"
);
}
);
width = 473;
}
);
unicode = 00A8;
},
{
glyphname = copyright;
lastChange = "2014-11-05 03:31:33 +0000";
layers = (
{
layerId = "D5D14868-B3D8-4E08-9530-062F6179E82D";
paths = (
{
closed = 1;
nodes = (
"624 713 OFFCURVE",
"785 553 OFFCURVE",
"785 356 CURVE SMOOTH",
"785 161 OFFCURVE",
"624 0 OFFCURVE",
"429 0 CURVE SMOOTH",
"331 0 OFFCURVE",
"248 35 OFFCURVE",
"178 105 CURVE SMOOTH",
"108 175 OFFCURVE",
"73 258 OFFCURVE",
"73 356 CURVE SMOOTH",
"73 553 OFFCURVE",
"233 713 OFFCURVE",
"429 713 CURVE SMOOTH"
);
},
{
closed = 1;
nodes = (
"354 630 OFFCURVE",
"290 603 OFFCURVE",
"236 550 CURVE SMOOTH",
"183 496 OFFCURVE",
"155 430 OFFCURVE",
"155 356 CURVE SMOOTH",
"155 283 OFFCURVE",
"183 227 OFFCURVE",
"236 178 CURVE",
"233 180 LINE",
"289 143 OFFCURVE",
"353 120 OFFCURVE",
"429 120 CURVE SMOOTH",
"506 120 OFFCURVE",
"571 143 OFFCURVE",
"625 180 CURVE",
"624 179 LINE",
"677 220 OFFCURVE",
"702 282 OFFCURVE",
"702 356 CURVE SMOOTH",
"702 432 OFFCURVE",
"676 496 OFFCURVE",
"623 550 CURVE SMOOTH",
"569 603 OFFCURVE",
"504 630 OFFCURVE",
"429 630 CURVE SMOOTH"
);
},
{
closed = 1;
nodes = (
"583 461 LINE",
"527 489 OFFCURVE",
"483 502 OFFCURVE",
"446 502 CURVE SMOOTH",
"407 502 OFFCURVE",
"375 488 OFFCURVE",
"354 462 CURVE SMOOTH",
"332 435 OFFCURVE",
"320 399 OFFCURVE",
"320 356 CURVE SMOOTH",
"320 305 OFFCURVE",
"367 250 OFFCURVE",
"451 250 CURVE SMOOTH",
"486 250 OFFCURVE",
"527 262 OFFCURVE",
"583 291 CURVE",
"583 164 LINE",
"533 141 OFFCURVE",
"485 132 OFFCURVE",
"440 132 CURVE SMOOTH",
"300 132 OFFCURVE",
"209 219 OFFCURVE",
"209 356 CURVE SMOOTH",
"209 493 OFFCURVE",
"298 580 OFFCURVE",
"440 580 CURVE SMOOTH",
"487 580 OFFCURVE",
"535 569 OFFCURVE",
"583 549 CURVE"
);
}
);
width = 858;
}
);
unicode = 00A9;
},
{
glyphname = ordfeminine;
lastChange = "2014-11-05 03:31:33 +0000";
layers = (
{
layerId = "D5D14868-B3D8-4E08-9530-062F6179E82D";
paths = (
{
closed = 1;
nodes = (
"84 306 LINE",
"434 306 LINE",
"434 214 LINE",
"84 214 LINE"
);
},
{
closed = 1;
nodes = (
"433 327 LINE",
"329 327 LINE",
"329 352 LINE",
"299 329 OFFCURVE",
"263 318 OFFCURVE",
"219 318 CURVE SMOOTH",
"132 318 OFFCURVE",
"73 370 OFFCURVE",
"73 449 CURVE SMOOTH",
"73 544 OFFCURVE",
"137 592 OFFCURVE",
"264 592 CURVE SMOOTH",
"327 592 LINE",
"320 624 OFFCURVE",
"291 640 OFFCURVE",
"240 640 CURVE SMOOTH",
"205 640 OFFCURVE",
"158 625 OFFCURVE",
"101 598 CURVE",
"101 698 LINE",
"156 719 OFFCURVE",
"206 729 OFFCURVE",
"250 729 CURVE SMOOTH",
"375 729 OFFCURVE",
"433 671 OFFCURVE",
"433 549 CURVE SMOOTH"
);
},
{
closed = 1;
nodes = (
"324 533 LINE",
"324 538 LINE",
"324 551 LINE",
"342 533 LINE"
);
},
{
closed = 1;
nodes = (
"315 483 OFFCURVE",
"323 505 OFFCURVE",
"324 533 CURVE",
"285 533 LINE SMOOTH",
"238 533 OFFCURVE",
"208 529 OFFCURVE",
"191 520 CURVE SMOOTH",
"178 513 OFFCURVE",
"172 501 OFFCURVE",
"172 484 CURVE SMOOTH",
"172 457 OFFCURVE",
"197 438 OFFCURVE",
"236 438 CURVE SMOOTH",
"262 438 OFFCURVE",
"283 447 OFFCURVE",
"299 465 CURVE SMOOTH"
);
}
);
width = 507;
}
);
unicode = 00AA;
},
{
glyphname = guillemotleft;
lastChange = "2014-11-05 03:31:33 +0000";
layers = (
{
layerId = "D5D14868-B3D8-4E08-9530-062F6179E82D";
paths = (
{
closed = 1;
nodes = (
"552 526 LINE",
"547 390 LINE",
"416 280 LINE",
"436 261 OFFCURVE",
"457 241 OFFCURVE",
"479 220 CURVE SMOOTH",
"500 199 OFFCURVE",
"521 180 OFFCURVE",
"541 161 CURVE",
"510 14 LINE",
"271 243 LINE",
"297 313 LINE"
);
},
{
closed = 1;
nodes = (
"354 533 LINE",
"350 397 LINE",
"218 288 LINE",
"259 249 OFFCURVE",
"304 206 OFFCURVE",
"343 167 CURVE",
"313 21 LINE",
"73 250 LINE",
"99 320 LINE"
);
}
);
width = 625;
}
);
unicode = 00AB;
},
{
glyphname = logicalnot;
lastChange = "2014-11-05 03:31:33 +0000";
layers = (
{
layerId = "D5D14868-B3D8-4E08-9530-062F6179E82D";
paths = (
{
closed = 1;
nodes = (
"73 429 LINE",
"693 429 LINE",
"708 131 LINE",
"556 131 LINE",
"579 315 LINE",
"496 314 OFFCURVE",
"412 312 OFFCURVE",
"326 311 CURVE SMOOTH",
"239 309 OFFCURVE",
"155 307 OFFCURVE",
"73 306 CURVE"
);
}
);
width = 782;
}
);
unicode = 00AC;
},
{
glyphname = registered;
lastChange = "2014-11-05 03:31:33 +0000";
layers = (
{
layerId = "D5D14868-B3D8-4E08-9530-062F6179E82D";
paths = (
{
closed = 1;
nodes = (
"279 630 OFFCURVE",
"155 515 OFFCURVE",
"155 378 CURVE SMOOTH",
"155 242 OFFCURVE",
"279 127 OFFCURVE",
"429 127 CURVE SMOOTH",
"580 127 OFFCURVE",
"702 240 OFFCURVE",
"702 378 CURVE SMOOTH",
"702 446 OFFCURVE",
"672 507 OFFCURVE",
"623 556 CURVE",
"571 602 OFFCURVE",
"502 630 OFFCURVE",
"429 630 CURVE SMOOTH"
);
},
{
closed = 1;
nodes = (
"624 713 OFFCURVE",
"785 553 OFFCURVE",
"785 356 CURVE SMOOTH",
"785 161 OFFCURVE",
"624 0 OFFCURVE",
"429 0 CURVE SMOOTH",
"331 0 OFFCURVE",
"248 35 OFFCURVE",
"178 105 CURVE SMOOTH",
"108 175 OFFCURVE",
"73 258 OFFCURVE",
"73 356 CURVE SMOOTH",
"73 553 OFFCURVE",
"233 713 OFFCURVE",
"429 713 CURVE SMOOTH"
);
},
{
closed = 1;
nodes = (
"402 511 LINE",
"402 421 LINE",
"439 421 LINE SMOOTH",
"499 421 OFFCURVE",
"511 433 OFFCURVE",
"511 466 CURVE SMOOTH",
"511 499 OFFCURVE",
"493 511 OFFCURVE",
"439 511 CURVE SMOOTH"
);
},
{
closed = 1;
nodes = (
"420 571 LINE SMOOTH",
"541 571 OFFCURVE",
"598 530 OFFCURVE",
"598 444 CURVE SMOOTH",
"598 393 OFFCURVE",
"572 357 OFFCURVE",
"526 338 CURVE",
"538 325 OFFCURVE",
"551 307 OFFCURVE",
"566 284 CURVE",
"645 154 LINE",
"524 154 LINE",
"460 258 LINE SMOOTH",
"444 285 OFFCURVE",
"431 301 OFFCURVE",
"421 308 CURVE",
"419 309 OFFCURVE",
"417 310 OFFCURVE",
"416 312 CURVE",
"415 313 OFFCURVE",
"413 313 OFFCURVE",
"412 314 CURVE",
"411 315 OFFCURVE",
"410 316 OFFCURVE",
"409 316 CURVE",
"402 316 LINE",
"402 154 LINE",
"272 154 LINE",
"272 571 LINE"
);
}
);
width = 858;
}
);
unicode = 00AE;
},
{
glyphname = macron;
lastChange = "2014-11-05 03:31:33 +0000";
layers = (
{
anchors = (
{
name = _top;
position = "{228, 596}";
}
);
layerId = "D5D14868-B3D8-4E08-9530-062F6179E82D";
paths = (
{
closed = 1;
nodes = (
"73 732 LINE",
"382 732 LINE",
"382 628 LINE",
"73 628 LINE"
);
}
);
width = 455;
}
);
unicode = 00AF;
},
{
glyphname = degree;
lastChange = "2014-11-05 03:31:33 +0000";
layers = (
{
layerId = "D5D14868-B3D8-4E08-9530-062F6179E82D";
paths = (
{
closed = 1;
nodes = (
"198 657 OFFCURVE",
"167 629 OFFCURVE",
"167 596 CURVE SMOOTH",
"167 562 OFFCURVE",
"197 536 OFFCURVE",
"236 536 CURVE SMOOTH",
"274 536 OFFCURVE",
"304 562 OFFCURVE",
"304 596 CURVE SMOOTH",
"304 627 OFFCURVE",
"275 657 OFFCURVE",
"236 657 CURVE SMOOTH"
);
},
{
closed = 1;
nodes = (
"280 729 OFFCURVE",
"322 711 OFFCURVE",
"352 680 CURVE",
"351 681 LINE",
"383 650 OFFCURVE",
"398 611 OFFCURVE",
"398 565 CURVE SMOOTH",
"398 520 OFFCURVE",
"382 481 OFFCURVE",
"351 450 CURVE",
"351 450 LINE",
"319 419 OFFCURVE",
"281 403 OFFCURVE",
"235 403 CURVE SMOOTH",
"143 403 OFFCURVE",
"73 473 OFFCURVE",
"73 565 CURVE SMOOTH",
"73 611 OFFCURVE",
"89 650 OFFCURVE",
"120 681 CURVE SMOOTH",
"151 713 OFFCURVE",
"189 729 OFFCURVE",
"236 729 CURVE SMOOTH"
);
}
);
width = 472;
}
);
unicode = 00B0;
},
{
glyphname = plusminus;
lastChange = "2014-11-05 03:31:33 +0000";
layers = (
{
layerId = "D5D14868-B3D8-4E08-9530-062F6179E82D";
paths = (
{
closed = 1;
nodes = (
"440 622 LINE",
"440 445 LINE",
"694 445 LINE",
"694 332 LINE",
"440 332 LINE",
"440 155 LINE",
"327 155 LINE",
"327 332 LINE",
"73 332 LINE",
"73 445 LINE",
"327 445 LINE",
"327 622 LINE"
);
},
{
closed = 1;
nodes = (
"73 123 LINE",
"694 123 LINE",
"694 0 LINE",
"73 0 LINE"
);
}
);
width = 767;
}
);
unicode = 00B1;
},
{
glyphname = twosuperior;
lastChange = "2014-11-05 03:31:33 +0000";
layers = (
{
layerId = "D5D14868-B3D8-4E08-9530-062F6179E82D";
paths = (
{
closed = 1;
nodes = (
"382 393 LINE",
"382 304 LINE",
"73 304 LINE",
"73 381 LINE",
"124 426 LINE SMOOTH",
"224 516 OFFCURVE",
"274 571 OFFCURVE",
"274 594 CURVE SMOOTH",
"274 624 OFFCURVE",
"248 643 OFFCURVE",
"207 643 CURVE SMOOTH",
"178 643 OFFCURVE",
"134 629 OFFCURVE",
"76 600 CURVE",
"76 699 LINE",
"133 719 OFFCURVE",
"180 729 OFFCURVE",
"216 729 CURVE SMOOTH",
"312 729 OFFCURVE",
"380 680 OFFCURVE",
"380 602 CURVE SMOOTH",
"380 554 OFFCURVE",
"328 486 OFFCURVE",
"224 396 CURVE",
"224 396 OFFCURVE",
"224 396 OFFCURVE",
"223 396 CURVE SMOOTH",
"223 395 OFFCURVE",
"222 395 OFFCURVE",
"220 393 CURVE"
);
}
);
width = 456;
}
);
unicode = 00B2;
},
{
glyphname = threesuperior;
lastChange = "2014-11-05 03:31:33 +0000";
layers = (
{
layerId = "D5D14868-B3D8-4E08-9530-062F6179E82D";
paths = (
{
closed = 1;
nodes = (
"382 577 OFFCURVE",
"366 549 OFFCURVE",
"336 530 CURVE",
"372 509 OFFCURVE",
"392 477 OFFCURVE",
"392 434 CURVE SMOOTH",
"392 346 OFFCURVE",
"327 297 OFFCURVE",
"206 297 CURVE SMOOTH",
"170 297 OFFCURVE",
"126 305 OFFCURVE",
"73 321 CURVE",
"73 420 LINE",
"119 396 OFFCURVE",
"161 384 OFFCURVE",
"200 384 CURVE SMOOTH",
"255 384 OFFCURVE",
"286 402 OFFCURVE",
"286 434 CURVE SMOOTH",
"286 467 OFFCURVE",
"259 483 OFFCURVE",
"204 483 CURVE SMOOTH",
"147 483 LINE",
"147 569 LINE",
"208 569 LINE SMOOTH",
"253 569 OFFCURVE",
"277 582 OFFCURVE",
"277 607 CURVE SMOOTH",
"277 630 OFFCURVE",
"252 643 OFFCURVE",
"206 643 CURVE SMOOTH",
"195 643 OFFCURVE",
"181 642 OFFCURVE",
"162 638 CURVE SMOOTH",
"143 634 OFFCURVE",
"118 628 OFFCURVE",
"86 619 CURVE",
"86 709 LINE",
"141 723 OFFCURVE",
"186 729 OFFCURVE",
"221 729 CURVE SMOOTH",
"268 729 OFFCURVE",
"307 718 OFFCURVE",
"335 699 CURVE",
"365 678 OFFCURVE",
"382 647 OFFCURVE",
"382 612 CURVE SMOOTH"
);
}
);
width = 465;
}
);
unicode = 00B3;
},
{
glyphname = acute;
lastChange = "2014-11-05 03:31:33 +0000";
layers = (
{
anchors = (
{
name = _top;
position = "{155, 374}";
}
);
layerId = "D5D14868-B3D8-4E08-9530-062F6179E82D";
paths = (
{
closed = 1;
nodes = (
"243 783 LINE",
"392 783 LINE",
"195 556 LINE",
"73 556 LINE"
);
}
);
width = 465;
}
);
unicode = 00B4;
},
{
glyphname = mu;
lastChange = "2014-11-05 03:31:33 +0000";
layers = (
{
layerId = "D5D14868-B3D8-4E08-9530-062F6179E82D";
paths = (
{
closed = 1;
nodes = (
"83 -194 LINE",
"73 546 LINE",
"193 552 LINE",
"198 307 LINE SMOOTH",
"198 230 OFFCURVE",
"233 192 OFFCURVE",
"304 192 CURVE SMOOTH",
"382 192 OFFCURVE",
"421 237 OFFCURVE",
"421 327 CURVE SMOOTH",
"426 547 LINE",
"546 547 LINE",
"542 136 LINE SMOOTH",
"542 129 OFFCURVE",
"553 125 OFFCURVE",
"576 124 CURVE",
"578 124 OFFCURVE",
"583 126 OFFCURVE",
"591 129 CURVE SMOOTH",
"599 133 OFFCURVE",
"610 137 OFFCURVE",
"624 144 CURVE",
"624 38 LINE",
"621 36 OFFCURVE",
"618 34 OFFCURVE",
"613 32 CURVE SMOOTH",
"609 29 OFFCURVE",
"604 26 OFFCURVE",
"600 23 CURVE",
"595 21 OFFCURVE",
"590 18 OFFCURVE",
"585 15 CURVE",
"580 12 OFFCURVE",
"575 9 OFFCURVE",
"571 6 CURVE",
"571 6 LINE",
"552 -7 OFFCURVE",
"535 -13 OFFCURVE",
"520 -13 CURVE SMOOTH",
"480 -13 OFFCURVE",
"453 4 OFFCURVE",
"438 38 CURVE",
"406 8 OFFCURVE",
"361 -13 OFFCURVE",
"311 -13 CURVE SMOOTH",
"264 -13 OFFCURVE",
"227 -1 OFFCURVE",
"199 23 CURVE",
"200 -13 OFFCURVE",
"201 -50 OFFCURVE",
"201 -87 CURVE SMOOTH",
"202 -125 OFFCURVE",
"203 -160 OFFCURVE",
"203 -194 CURVE"
);
}
);
width = 697;
}
);
unicode = 00B5;
},
{
glyphname = paragraph;
lastChange = "2014-11-05 03:31:33 +0000";
layers = (
{
layerId = "D5D14868-B3D8-4E08-9530-062F6179E82D";
paths = (
{
closed = 1;
nodes = (
"523 717 LINE",
"629 -90 LINE",
"425 -90 LINE",
"430 625 LINE",
"380 625 LINE",
"380 -90 LINE",
"195 -90 LINE",
"227 299 LINE",
"196 309 OFFCURVE",
"166 328 OFFCURVE",
"132 359 CURVE SMOOTH",
"93 396 OFFCURVE",
"73 444 OFFCURVE",
"73 506 CURVE SMOOTH",
"73 633 OFFCURVE",
"168 717 OFFCURVE",
"308 717 CURVE SMOOTH"
);
}
);
width = 702;
}
);
unicode = 00B6;
},
{
glyphname = periodcentered;
lastChange = "2014-11-05 03:31:33 +0000";
layers = (
{
anchors = (
{
name = _dot;
position = "{132, 347}";
}
);
layerId = "D5D14868-B3D8-4E08-9530-062F6179E82D";
paths = (
{
closed = 1;
nodes = (
"73 418 LINE",
"206 418 LINE",
"206 266 LINE",
"73 266 LINE"
);
}
);
width = 279;
}
);
unicode = 00B7;
},
{
glyphname = cedilla;
lastChange = "2014-11-05 03:31:33 +0000";
layers = (
{
anchors = (
{
name = _bottom;
position = "{186, 0}";
}
);
layerId = "D5D14868-B3D8-4E08-9530-062F6179E82D";
paths = (
{
closed = 1;
nodes = (
"239 37 LINE",
"279 -10 OFFCURVE",
"298 -45 OFFCURVE",
"298 -80 CURVE SMOOTH",
"298 -146 OFFCURVE",
"255 -180 OFFCURVE",
"171 -180 CURVE SMOOTH",
"142 -180 OFFCURVE",
"110 -175 OFFCURVE",
"73 -165 CURVE",
"73 -61 LINE",
"110 -80 OFFCURVE",
"137 -87 OFFCURVE",
"162 -87 CURVE SMOOTH",
"186 -87 OFFCURVE",
"198 -79 OFFCURVE",
"198 -63 CURVE SMOOTH",
"198 -56 OFFCURVE",
"193 -43 OFFCURVE",
"184 -27 CURVE SMOOTH",
"174 -11 OFFCURVE",
"160 10 OFFCURVE",
"140 37 CURVE"
);
}
);
width = 372;
}
);
unicode = 00B8;
},
{
glyphname = onesuperior;
lastChange = "2014-11-05 03:31:33 +0000";
layers = (
{
layerId = "D5D14868-B3D8-4E08-9530-062F6179E82D";
paths = (
{
closed = 1;
nodes = (
"82 391 LINE",
"175 391 LINE",
"175 630 LINE",
"167 628 OFFCURVE",
"158 626 OFFCURVE",
"149 625 CURVE SMOOTH",
"131 622 OFFCURVE",
"113 619 OFFCURVE",
"96 615 CURVE SMOOTH",
"88 614 OFFCURVE",
"80 612 OFFCURVE",
"73 611 CURVE",
"73 701 LINE",
"196 721 LINE",
"277 721 LINE",
"277 391 LINE",
"370 391 LINE",
"370 304 LINE",
"82 304 LINE"
);
}
);
width = 443;
}
);
unicode = 00B9;
},
{
glyphname = ordmasculine;
lastChange = "2014-11-05 03:31:33 +0000";
layers = (
{
layerId = "D5D14868-B3D8-4E08-9530-062F6179E82D";
paths = (
{
closed = 1;
nodes = (
"93 306 LINE",
"443 306 LINE",
"443 214 LINE",
"93 214 LINE"
);
},
{
closed = 1;
nodes = (
"386 729 OFFCURVE",
"462 648 OFFCURVE",
"462 523 CURVE SMOOTH",
"462 398 OFFCURVE",
"387 318 OFFCURVE",
"268 318 CURVE SMOOTH",
"149 318 OFFCURVE",
"73 400 OFFCURVE",
"73 523 CURVE SMOOTH",
"73 647 OFFCURVE",
"149 729 OFFCURVE",
"268 729 CURVE SMOOTH"
);
},
{
closed = 1;
nodes = (
"215 657 OFFCURVE",
"181 623 OFFCURVE",
"181 561 CURVE SMOOTH",
"181 531 OFFCURVE",
"189 507 OFFCURVE",
"205 491 CURVE",
"205 491 LINE",
"221 475 OFFCURVE",
"242 466 OFFCURVE",
"268 466 CURVE SMOOTH",
"321 466 OFFCURVE",
"354 503 OFFCURVE",
"354 561 CURVE SMOOTH",
"354 592 OFFCURVE",
"346 615 OFFCURVE",
"331 632 CURVE",
"315 649 OFFCURVE",
"294 657 OFFCURVE",
"268 657 CURVE SMOOTH"
);
}
);
width = 535;
}
);
unicode = 00BA;
},
{
glyphname = guillemotright;
lastChange = "2014-11-05 03:31:33 +0000";
layers = (
{
layerId = "D5D14868-B3D8-4E08-9530-062F6179E82D";
paths = (
{
closed = 1;
nodes = (
"94 553 LINE",
"330 319 LINE",
"350 248 LINE",
"91 40 LINE",
"73 188 LINE",
"209 297 LINE",
"87 418 LINE"
);
},
{
closed = 1;
nodes = (
"291 543 LINE",
"527 309 LINE",
"547 237 LINE",
"288 29 LINE",
"271 178 LINE",
"407 287 LINE",
"284 407 LINE"
);
}
);
width = 620;
}
);
unicode = 00BB;
},
{
glyphname = onequarter;
lastChange = "2014-11-05 03:31:33 +0000";
layers = (
{
layerId = "D5D14868-B3D8-4E08-9530-062F6179E82D";
paths = (
{
closed = 1;
nodes = (
"82 391 LINE",
"175 391 LINE",
"175 630 LINE",
"167 628 OFFCURVE",
"158 626 OFFCURVE",
"149 625 CURVE SMOOTH",
"131 622 OFFCURVE",
"113 619 OFFCURVE",
"96 615 CURVE SMOOTH",
"88 614 OFFCURVE",
"80 612 OFFCURVE",
"73 611 CURVE",
"73 701 LINE",
"196 721 LINE",
"277 721 LINE",
"277 391 LINE",
"370 391 LINE",
"370 304 LINE",
"82 304 LINE"
);
},
{
closed = 1;
nodes = (
"798 729 LINE",
"914 729 LINE",
"467 -13 LINE",
"352 -13 LINE"
);
},
{
closed = 1;
nodes = (
"709 267 LINE",
"623 149 LINE",
"709 149 LINE"
);
},
{
closed = 1;
nodes = (
"708 396 LINE",
"812 396 LINE",
"812 149 LINE",
"873 149 LINE",
"873 63 LINE",
"812 63 LINE",
"812 -21 LINE",
"709 -21 LINE",
"709 63 LINE",
"521 63 LINE",
"521 143 LINE"
);
}
);
width = 987;
}
);
unicode = 00BC;
},
{
glyphname = onehalf;
lastChange = "2014-11-05 03:31:33 +0000";
layers = (
{
layerId = "D5D14868-B3D8-4E08-9530-062F6179E82D";
paths = (
{
closed = 1;
nodes = (
"82 391 LINE",
"175 391 LINE",
"175 630 LINE",
"167 628 OFFCURVE",
"158 626 OFFCURVE",
"149 625 CURVE SMOOTH",
"131 622 OFFCURVE",
"113 619 OFFCURVE",
"96 615 CURVE SMOOTH",
"88 614 OFFCURVE",
"80 612 OFFCURVE",
"73 611 CURVE",
"73 701 LINE",
"196 721 LINE",
"277 721 LINE",
"277 391 LINE",
"370 391 LINE",
"370 304 LINE",
"82 304 LINE"
);
},
{
closed = 1;
nodes = (
"671 729 LINE",
"787 729 LINE",
"340 -13 LINE",
"225 -13 LINE"
);
},
{
closed = 1;
nodes = (
"911 67 LINE",
"911 -21 LINE",
"602 -21 LINE",
"602 55 LINE",
"652 101 LINE SMOOTH",
"753 190 OFFCURVE",
"803 246 OFFCURVE",
"803 269 CURVE SMOOTH",
"803 298 OFFCURVE",
"776 317 OFFCURVE",
"735 317 CURVE SMOOTH",
"707 317 OFFCURVE",
"663 303 OFFCURVE",
"605 274 CURVE",
"605 373 LINE",
"662 393 OFFCURVE",
"708 403 OFFCURVE",
"745 403 CURVE SMOOTH",
"841 403 OFFCURVE",
"909 354 OFFCURVE",
"909 276 CURVE SMOOTH",
"909 229 OFFCURVE",
"856 160 OFFCURVE",
"752 71 CURVE",
"752 70 OFFCURVE",
"752 70 OFFCURVE",
"752 70 CURVE SMOOTH",
"751 69 OFFCURVE",
"750 69 OFFCURVE",
"749 67 CURVE"
);
}
);
width = 984;
}
);
unicode = 00BD;
},
{
glyphname = threequarters;
lastChange = "2014-11-05 03:31:33 +0000";
layers = (
{
layerId = "D5D14868-B3D8-4E08-9530-062F6179E82D";
paths = (
{
closed = 1;
nodes = (
"382 577 OFFCURVE",
"366 549 OFFCURVE",
"336 530 CURVE",
"372 509 OFFCURVE",
"392 477 OFFCURVE",
"392 434 CURVE SMOOTH",
"392 346 OFFCURVE",
"327 297 OFFCURVE",
"206 297 CURVE SMOOTH",
"170 297 OFFCURVE",
"126 305 OFFCURVE",
"73 321 CURVE",
"73 420 LINE",
"119 396 OFFCURVE",
"161 384 OFFCURVE",
"200 384 CURVE SMOOTH",
"255 384 OFFCURVE",
"286 402 OFFCURVE",
"286 434 CURVE SMOOTH",
"286 467 OFFCURVE",
"259 483 OFFCURVE",
"204 483 CURVE SMOOTH",
"147 483 LINE",
"147 569 LINE",
"208 569 LINE SMOOTH",
"253 569 OFFCURVE",
"277 582 OFFCURVE",
"277 607 CURVE SMOOTH",
"277 630 OFFCURVE",
"252 643 OFFCURVE",
"206 643 CURVE SMOOTH",
"195 643 OFFCURVE",
"181 642 OFFCURVE",
"162 638 CURVE SMOOTH",
"143 634 OFFCURVE",
"118 628 OFFCURVE",
"86 619 CURVE",
"86 709 LINE",
"141 723 OFFCURVE",
"186 729 OFFCURVE",
"221 729 CURVE SMOOTH",
"268 729 OFFCURVE",
"307 718 OFFCURVE",
"335 699 CURVE",
"365 678 OFFCURVE",
"382 647 OFFCURVE",
"382 612 CURVE SMOOTH"
);
},
{
closed = 1;
nodes = (
"649 729 LINE",
"765 729 LINE",
"318 -13 LINE",
"203 -13 LINE"
);
},
{
closed = 1;
nodes = (
"687 267 LINE",
"601 149 LINE",
"687 149 LINE"
);
},
{
closed = 1;
nodes = (
"687 396 LINE",
"790 396 LINE",
"790 149 LINE",
"851 149 LINE",
"851 63 LINE",
"790 63 LINE",
"790 -21 LINE",
"687 -21 LINE",
"687 63 LINE",
"499 63 LINE",
"499 143 LINE"
);
}
);
width = 924;
}
);
unicode = 00BE;
},
{
glyphname = questiondown;
lastChange = "2014-11-05 03:31:33 +0000";
layers = (
{
layerId = "D5D14868-B3D8-4E08-9530-062F6179E82D";
paths = (
{
closed = 1;
nodes = (
"236 534 LINE",
"345 534 LINE",
"345 445 LINE SMOOTH",
"345 378 OFFCURVE",
"333 364 OFFCURVE",
"288 314 CURVE",
"246 274 LINE SMOOTH",
"215 245 OFFCURVE",
"202 223 OFFCURVE",
"202 198 CURVE SMOOTH",
"202 176 OFFCURVE",
"210 159 OFFCURVE",
"226 146 CURVE",
"226 146 LINE",
"242 132 OFFCURVE",
"265 125 OFFCURVE",
"293 125 CURVE SMOOTH",
"337 125 OFFCURVE",
"398 153 OFFCURVE",
"473 205 CURVE",
"473 46 LINE",
"406 6 OFFCURVE",
"344 -13 OFFCURVE",
"277 -13 CURVE SMOOTH",
"156 -13 OFFCURVE",
"73 59 OFFCURVE",
"73 166 CURVE SMOOTH",
"73 192 OFFCURVE",
"80 216 OFFCURVE",
"92 240 CURVE",
"105 263 OFFCURVE",
"125 288 OFFCURVE",
"153 315 CURVE SMOOTH",
"193 354 LINE SMOOTH",
"207 368 OFFCURVE",
"216 378 OFFCURVE",
"221 386 CURVE",
"221 385 LINE",
"231 397 OFFCURVE",
"233 408 OFFCURVE",
"235 424 CURVE SMOOTH",
"235 433 OFFCURVE",
"236 444 OFFCURVE",
"236 460 CURVE SMOOTH"
);
},
{
closed = 1;
nodes = (
"362 564 LINE",
"233 564 LINE",
"233 717 LINE",
"362 717 LINE"
);
}
);
width = 546;
}
);
unicode = 00BF;
},
{
glyphname = Agrave;
lastChange = "2014-11-05 03:31:33 +0000";
layers = (
{
layerId = "D5D14868-B3D8-4E08-9530-062F6179E82D";
paths = (
{
closed = 1;
nodes = (
"417 565 LINE",
"409 539 OFFCURVE",
"400 514 OFFCURVE",
"392 489 CURVE SMOOTH",
"384 464 OFFCURVE",
"376 439 OFFCURVE",
"368 415 CURVE SMOOTH",
"359 390 OFFCURVE",
"351 365 OFFCURVE",
"342 339 CURVE SMOOTH",
"334 313 OFFCURVE",
"325 287 OFFCURVE",
"316 260 CURVE",
"520 260 LINE"
);
},
{
closed = 1;
nodes = (
"361 729 LINE",
"474 729 LINE",
"762 0 LINE",
"585 0 LINE",
"559 113 LINE",
"275 113 LINE",
"240 0 LINE",
"73 0 LINE"
);
},
{
closed = 1;
nodes = (
"343 914 LINE",
"459 757 LINE",
"345 757 LINE",
"209 914 LINE"
);
}
);
width = 835;
}
);
unicode = 00C0;
},
{
glyphname = Aacute;
lastChange = "2014-11-05 03:31:33 +0000";
layers = (
{
layerId = "D5D14868-B3D8-4E08-9530-062F6179E82D";
paths = (
{
closed = 1;
nodes = (
"417 565 LINE",
"409 539 OFFCURVE",
"400 514 OFFCURVE",
"392 489 CURVE SMOOTH",
"384 464 OFFCURVE",
"376 439 OFFCURVE",
"368 415 CURVE SMOOTH",
"359 390 OFFCURVE",
"351 365 OFFCURVE",
"342 339 CURVE SMOOTH",
"334 313 OFFCURVE",
"325 287 OFFCURVE",
"316 260 CURVE",
"520 260 LINE"
);
},
{
closed = 1;
nodes = (
"361 729 LINE",
"474 729 LINE",
"762 0 LINE",
"585 0 LINE",
"559 113 LINE",
"275 113 LINE",
"240 0 LINE",
"73 0 LINE"
);
},
{
closed = 1;
nodes = (
"466 914 LINE",
"600 914 LINE",
"464 757 LINE",
"350 757 LINE"
);
}
);
width = 835;
}
);
unicode = 00C1;
},
{
glyphname = Acircumflex;
lastChange = "2014-11-05 03:31:33 +0000";
layers = (
{
layerId = "D5D14868-B3D8-4E08-9530-062F6179E82D";
paths = (
{
closed = 1;
nodes = (
"417 565 LINE",
"409 539 OFFCURVE",
"400 514 OFFCURVE",
"392 489 CURVE SMOOTH",
"384 464 OFFCURVE",
"376 439 OFFCURVE",
"368 415 CURVE SMOOTH",
"359 390 OFFCURVE",
"351 365 OFFCURVE",
"342 339 CURVE SMOOTH",
"334 313 OFFCURVE",
"325 287 OFFCURVE",
"316 260 CURVE",
"520 260 LINE"
);
},
{
closed = 1;
nodes = (
"361 729 LINE",
"474 729 LINE",
"762 0 LINE",
"585 0 LINE",
"559 113 LINE",
"275 113 LINE",
"240 0 LINE",
"73 0 LINE"
);
},
{
closed = 1;
nodes = (
"362 915 LINE",
"465 915 LINE",
"591 757 LINE",
"482 757 LINE",
"414 830 LINE",
"402 818 OFFCURVE",
"391 806 OFFCURVE",
"379 793 CURVE SMOOTH",
"368 781 OFFCURVE",
"356 769 OFFCURVE",
"346 757 CURVE",
"237 757 LINE"
);
}
);
width = 835;
}
);
unicode = 00C2;
},
{
glyphname = Atilde;
lastChange = "2014-11-05 03:31:33 +0000";
layers = (
{
layerId = "D5D14868-B3D8-4E08-9530-062F6179E82D";
paths = (
{
closed = 1;
nodes = (
"417 565 LINE",
"409 539 OFFCURVE",
"400 514 OFFCURVE",
"392 489 CURVE SMOOTH",
"384 464 OFFCURVE",
"376 439 OFFCURVE",
"368 415 CURVE SMOOTH",
"359 390 OFFCURVE",
"351 365 OFFCURVE",
"342 339 CURVE SMOOTH",
"334 313 OFFCURVE",
"325 287 OFFCURVE",
"316 260 CURVE",
"520 260 LINE"
);
},
{
closed = 1;
nodes = (
"361 729 LINE",
"474 729 LINE",
"762 0 LINE",
"585 0 LINE",
"559 113 LINE",
"275 113 LINE",
"240 0 LINE",
"73 0 LINE"
);
},
{
closed = 1;
nodes = (
"380 809 LINE SMOOTH",
"369 815 OFFCURVE",
"362 818 OFFCURVE",
"359 818 CURVE SMOOTH",
"348 818 OFFCURVE",
"342 809 OFFCURVE",
"342 793 CURVE SMOOTH",
"342 772 LINE",
"249 772 LINE",
"249 813 OFFCURVE",
"259 848 OFFCURVE",
"277 872 CURVE SMOOTH",
"295 895 OFFCURVE",
"322 908 OFFCURVE",
"353 908 CURVE SMOOTH",
"366 908 OFFCURVE",
"376 907 OFFCURVE",
"388 904 CURVE SMOOTH",
"400 900 OFFCURVE",
"412 896 OFFCURVE",
"428 886 CURVE",
"428 886 LINE",
"454 873 LINE",
"464 866 OFFCURVE",
"473 863 OFFCURVE",
"478 863 CURVE SMOOTH",
"487 863 OFFCURVE",
"493 873 OFFCURVE",
"493 887 CURVE SMOOTH",
"493 908 LINE",
"586 908 LINE",
"585 867 OFFCURVE",
"575 833 OFFCURVE",
"557 809 CURVE SMOOTH",
"539 785 OFFCURVE",
"513 772 OFFCURVE",
"482 772 CURVE SMOOTH",
"469 772 OFFCURVE",
"458 773 OFFCURVE",
"448 776 CURVE",
"438 779 OFFCURVE",
"424 785 OFFCURVE",
"407 793 CURVE"
);
}
);
width = 835;
}
);
unicode = 00C3;
},
{
glyphname = Adieresis;
lastChange = "2014-11-05 03:31:33 +0000";
layers = (
{
layerId = "D5D14868-B3D8-4E08-9530-062F6179E82D";
paths = (
{
closed = 1;
nodes = (
"417 565 LINE",
"409 539 OFFCURVE",
"400 514 OFFCURVE",
"392 489 CURVE SMOOTH",
"384 464 OFFCURVE",
"376 439 OFFCURVE",
"368 415 CURVE SMOOTH",
"359 390 OFFCURVE",
"351 365 OFFCURVE",
"342 339 CURVE SMOOTH",
"334 313 OFFCURVE",
"325 287 OFFCURVE",
"316 260 CURVE",
"520 260 LINE"
);
},
{
closed = 1;
nodes = (
"361 729 LINE",
"474 729 LINE",
"762 0 LINE",
"585 0 LINE",
"559 113 LINE",
"275 113 LINE",
"240 0 LINE",
"73 0 LINE"
);
},
{
closed = 1;
nodes = (
"437 901 LINE",
"565 901 LINE",
"565 772 LINE",
"437 772 LINE"
);
},
{
closed = 1;
nodes = (
"258 901 LINE",
"388 901 LINE",
"388 772 LINE",
"258 772 LINE"
);
}
);
width = 835;
}
);
unicode = 00C4;
},
{
glyphname = Aring;
lastChange = "2014-11-05 03:31:33 +0000";
layers = (
{
layerId = "D5D14868-B3D8-4E08-9530-062F6179E82D";
paths = (
{
closed = 1;
nodes = (
"469 799 OFFCURVE",
"445 824 OFFCURVE",
"417 824 CURVE SMOOTH",
"388 824 OFFCURVE",
"366 802 OFFCURVE",
"366 772 CURVE SMOOTH",
"366 743 OFFCURVE",
"388 721 OFFCURVE",
"417 721 CURVE SMOOTH",
"447 721 OFFCURVE",
"469 743 OFFCURVE",
"469 772 CURVE SMOOTH"
);
},
{
closed = 1;
nodes = (
"418 563 LINE",
"401 517 OFFCURVE",
"385 474 OFFCURVE",
"369 430 CURVE SMOOTH",
"360 408 OFFCURVE",
"352 386 OFFCURVE",
"344 363 CURVE SMOOTH",
"335 340 OFFCURVE",
"327 317 OFFCURVE",
"318 292 CURVE",
"517 292 LINE"
);
},
{
closed = 1;
nodes = (
"326 660 LINE",
"290 688 OFFCURVE",
"272 726 OFFCURVE",
"272 772 CURVE SMOOTH",
"272 854 OFFCURVE",
"336 918 OFFCURVE",
"417 918 CURVE SMOOTH",
"458 918 OFFCURVE",
"493 904 OFFCURVE",
"521 875 CURVE SMOOTH",
"549 847 OFFCURVE",
"563 813 OFFCURVE",
"563 772 CURVE SMOOTH",
"563 727 OFFCURVE",
"545 688 OFFCURVE",
"510 659 CURVE",
"761 0 LINE",
"624 0 LINE",
"561 178 LINE",
"275 178 LINE",
"212 0 LINE",
"73 0 LINE"
);
}
);
width = 834;
}
);
unicode = 00C5;
},
{
glyphname = AE;
lastChange = "2014-11-05 03:31:33 +0000";
layers = (
{
anchors = (
{
name = top;
position = "{580, 729}";
}
);
layerId = "D5D14868-B3D8-4E08-9530-062F6179E82D";
paths = (
{
closed = 1;
nodes = (
"971 729 LINE",
"971 613 LINE",
"627 613 LINE",
"627 367 LINE",
"957 367 LINE",
"957 250 LINE",
"627 250 LINE",
"627 158 LINE",
"980 158 LINE",
"980 0 LINE",
"497 0 LINE",
"497 122 LINE",
"289 122 LINE",
"294 0 LINE",
"73 0 LINE",
"378 729 LINE"
);
},
{
closed = 1;
nodes = (
"469 619 LINE",
"329 237 LINE",
"497 237 LINE",
"497 619 LINE"
);
}
);
width = 1053;
}
);
unicode = 00C6;
},
{
glyphname = Ccedilla;
lastChange = "2014-11-05 03:31:33 +0000";
layers = (
{
layerId = "D5D14868-B3D8-4E08-9530-062F6179E82D";
paths = (
{
closed = 1;
nodes = (
"668 516 LINE",
"586 591 OFFCURVE",
"511 627 OFFCURVE",
"435 627 CURVE SMOOTH",
"288 627 OFFCURVE",
"209 536 OFFCURVE",
"209 364 CURVE SMOOTH",
"211 215 OFFCURVE",
"284 166 OFFCURVE",
"435 166 CURVE SMOOTH",
"511 166 OFFCURVE",
"586 202 OFFCURVE",
"668 277 CURVE",
"668 62 LINE",
"594 12 OFFCURVE",
"516 -14 OFFCURVE",
"430 -14 CURVE SMOOTH",
"209 -14 OFFCURVE",
"73 132 OFFCURVE",
"73 364 CURVE SMOOTH",
"73 595 OFFCURVE",
"209 742 OFFCURVE",
"430 742 CURVE SMOOTH",
"515 742 OFFCURVE",
"595 717 OFFCURVE",
"668 667 CURVE"
);
},
{
closed = 1;
nodes = (
"439 37 LINE",
"479 -10 OFFCURVE",
"499 -45 OFFCURVE",
"499 -80 CURVE SMOOTH",
"499 -146 OFFCURVE",
"456 -180 OFFCURVE",
"372 -180 CURVE SMOOTH",
"342 -180 OFFCURVE",
"310 -175 OFFCURVE",
"273 -165 CURVE",
"273 -61 LINE",
"311 -80 OFFCURVE",
"337 -87 OFFCURVE",
"362 -87 CURVE SMOOTH",
"386 -87 OFFCURVE",
"398 -79 OFFCURVE",
"398 -63 CURVE SMOOTH",
"398 -56 OFFCURVE",
"394 -43 OFFCURVE",
"384 -27 CURVE SMOOTH",
"375 -11 OFFCURVE",
"360 10 OFFCURVE",
"340 37 CURVE"
);
}
);
width = 741;
}
);
unicode = 00C7;
},
{
glyphname = Egrave;
lastChange = "2014-11-05 03:31:33 +0000";
layers = (
{
layerId = "D5D14868-B3D8-4E08-9530-062F6179E82D";
paths = (
{
closed = 1;
nodes = (
"73 729 LINE",
"548 729 LINE",
"548 613 LINE",
"204 613 LINE",
"204 445 LINE",
"533 445 LINE",
"533 330 LINE",
"204 330 LINE",
"204 181 LINE",
"556 181 LINE",
"556 0 LINE",
"73 0 LINE"
);
},
{
closed = 1;
nodes = (
"210 914 LINE",
"327 757 LINE",
"213 757 LINE",
"77 914 LINE"
);
}
);
width = 629;
}
);
unicode = 00C8;
},
{
glyphname = Eacute;
lastChange = "2014-11-05 03:31:33 +0000";
layers = (
{
layerId = "D5D14868-B3D8-4E08-9530-062F6179E82D";
paths = (
{
closed = 1;
nodes = (
"73 729 LINE",
"548 729 LINE",
"548 613 LINE",
"204 613 LINE",
"204 445 LINE",
"533 445 LINE",
"533 330 LINE",
"204 330 LINE",
"204 181 LINE",
"556 181 LINE",
"556 0 LINE",
"73 0 LINE"
);
},
{
closed = 1;
nodes = (
"280 914 LINE",
"414 914 LINE",
"278 757 LINE",
"164 757 LINE"
);
}
);
width = 629;
}
);
unicode = 00C9;
},
{
glyphname = Ecircumflex;
lastChange = "2014-11-05 03:31:33 +0000";
layers = (
{
layerId = "D5D14868-B3D8-4E08-9530-062F6179E82D";
paths = (
{
closed = 1;
nodes = (
"73 729 LINE",
"548 729 LINE",
"548 613 LINE",
"204 613 LINE",
"204 445 LINE",
"533 445 LINE",
"533 330 LINE",
"204 330 LINE",
"204 181 LINE",
"556 181 LINE",
"556 0 LINE",
"73 0 LINE"
);
},
{
closed = 1;
nodes = (
"240 915 LINE",
"343 915 LINE",
"468 757 LINE",
"359 757 LINE",
"291 830 LINE",
"280 818 OFFCURVE",
"268 806 OFFCURVE",
"257 793 CURVE SMOOTH",
"245 781 OFFCURVE",
"234 769 OFFCURVE",
"224 757 CURVE",
"115 757 LINE"
);
}
);
width = 629;
}
);
unicode = 00CA;
},
{
glyphname = Edieresis;
lastChange = "2014-11-05 03:31:33 +0000";
layers = (
{
layerId = "D5D14868-B3D8-4E08-9530-062F6179E82D";
paths = (
{
closed = 1;
nodes = (
"73 729 LINE",
"548 729 LINE",
"548 613 LINE",
"204 613 LINE",
"204 445 LINE",
"533 445 LINE",
"533 330 LINE",
"204 330 LINE",
"204 181 LINE",
"556 181 LINE",
"556 0 LINE",
"73 0 LINE"
);
},
{
closed = 1;
nodes = (
"329 901 LINE",
"458 901 LINE",
"458 772 LINE",
"329 772 LINE"
);
},
{
closed = 1;
nodes = (
"150 901 LINE",
"280 901 LINE",
"280 772 LINE",
"150 772 LINE"
);
}
);
width = 629;
}
);
unicode = 00CB;
},
{
glyphname = Igrave;
lastChange = "2014-11-05 03:31:33 +0000";
layers = (
{
layerId = "D5D14868-B3D8-4E08-9530-062F6179E82D";
paths = (
{
closed = 1;
nodes = (
"220 729 LINE",
"346 729 LINE",
"355 0 LINE",
"205 0 LINE"
);
},
{
closed = 1;
nodes = (
"207 914 LINE",
"323 757 LINE",
"209 757 LINE",
"73 914 LINE"
);
}
);
width = 428;
}
);
unicode = 00CC;
},
{
glyphname = Iacute;
lastChange = "2014-11-05 03:31:33 +0000";
layers = (
{
layerId = "D5D14868-B3D8-4E08-9530-062F6179E82D";
paths = (
{
closed = 1;
nodes = (
"88 729 LINE",
"214 729 LINE",
"223 0 LINE",
"73 0 LINE"
);
},
{
closed = 1;
nodes = (
"194 914 LINE",
"327 914 LINE",
"192 757 LINE",
"77 757 LINE"
);
}
);
width = 400;
}
);
unicode = 00CD;
},
{
glyphname = Icircumflex;
lastChange = "2014-11-05 03:31:33 +0000";
layers = (
{
layerId = "D5D14868-B3D8-4E08-9530-062F6179E82D";
paths = (
{
closed = 1;
nodes = (
"192 729 LINE",
"317 729 LINE",
"327 0 LINE",
"177 0 LINE"
);
},
{
closed = 1;
nodes = (
"198 915 LINE",
"301 915 LINE",
"427 757 LINE",
"318 757 LINE",
"250 830 LINE",
"238 818 OFFCURVE",
"227 806 OFFCURVE",
"215 793 CURVE SMOOTH",
"204 781 OFFCURVE",
"192 769 OFFCURVE",
"182 757 CURVE",
"73 757 LINE"
);
}
);
width = 500;
}
);
unicode = 00CE;
},
{
glyphname = Idieresis;
lastChange = "2014-11-05 03:31:33 +0000";
layers = (
{
layerId = "D5D14868-B3D8-4E08-9530-062F6179E82D";
paths = (
{
closed = 1;
nodes = (
"146 729 LINE",
"272 729 LINE",
"281 0 LINE",
"131 0 LINE"
);
},
{
closed = 1;
nodes = (
"251 901 LINE",
"380 901 LINE",
"380 772 LINE",
"251 772 LINE"
);
},
{
closed = 1;
nodes = (
"73 901 LINE",
"203 901 LINE",
"203 772 LINE",
"73 772 LINE"
);
}
);
width = 454;
}
);
unicode = 00CF;
},
{
glyphname = Eth;
lastChange = "2014-11-05 03:31:33 +0000";
layers = (
{
layerId = "D5D14868-B3D8-4E08-9530-062F6179E82D";
paths = (
{
closed = 1;
nodes = (
"167 729 LINE",
"378 729 LINE SMOOTH",
"514 729 OFFCURVE",
"619 698 OFFCURVE",
"685 641 CURVE",
"750 581 OFFCURVE",
"785 488 OFFCURVE",
"785 365 CURVE SMOOTH",
"785 241 OFFCURVE",
"750 149 OFFCURVE",
"685 88 CURVE SMOOTH",
"618 31 OFFCURVE",
"514 0 OFFCURVE",
"378 0 CURVE SMOOTH",
"167 0 LINE",
"167 324 LINE",
"73 324 LINE",
"73 428 LINE",
"167 428 LINE"
);
},
{
closed = 1;
nodes = (
"298 615 LINE",
"298 428 LINE",
"454 428 LINE",
"454 324 LINE",
"298 324 LINE",
"298 165 LINE",
"392 165 LINE SMOOTH",
"572 165 OFFCURVE",
"649 189 OFFCURVE",
"649 365 CURVE SMOOTH",
"649 539 OFFCURVE",
"572 615 OFFCURVE",
"392 615 CURVE SMOOTH"
);
}
);
width = 858;
}
);
unicode = 00D0;
},
{
glyphname = Ntilde;
lastChange = "2014-11-05 03:31:33 +0000";
layers = (
{
layerId = "D5D14868-B3D8-4E08-9530-062F6179E82D";
paths = (
{
closed = 1;
nodes = (
"92 715 LINE",
"238 715 LINE",
"508 220 LINE",
"521 729 LINE",
"644 729 LINE",
"644 0 LINE",
"479 0 LINE",
"206 515 LINE",
"210 429 OFFCURVE",
"214 343 OFFCURVE",
"218 256 CURVE SMOOTH",
"222 168 OFFCURVE",
"226 83 OFFCURVE",
"230 0 CURVE",
"73 0 LINE"
);
},
{
closed = 1;
nodes = (
"298 809 LINE SMOOTH",
"287 815 OFFCURVE",
"280 818 OFFCURVE",
"277 818 CURVE SMOOTH",
"266 818 OFFCURVE",
"260 809 OFFCURVE",
"260 793 CURVE SMOOTH",
"260 772 LINE",
"167 772 LINE",
"167 813 OFFCURVE",
"177 848 OFFCURVE",
"195 872 CURVE SMOOTH",
"213 895 OFFCURVE",
"240 908 OFFCURVE",
"271 908 CURVE SMOOTH",
"284 908 OFFCURVE",
"294 907 OFFCURVE",
"306 904 CURVE SMOOTH",
"318 900 OFFCURVE",
"330 896 OFFCURVE",
"346 886 CURVE",
"346 886 LINE",
"372 873 LINE",
"382 866 OFFCURVE",
"391 863 OFFCURVE",
"396 863 CURVE SMOOTH",
"405 863 OFFCURVE",
"411 873 OFFCURVE",
"411 887 CURVE SMOOTH",
"411 908 LINE",
"504 908 LINE",
"503 867 OFFCURVE",
"493 833 OFFCURVE",
"475 809 CURVE SMOOTH",
"457 785 OFFCURVE",
"431 772 OFFCURVE",
"400 772 CURVE SMOOTH",
"387 772 OFFCURVE",
"376 773 OFFCURVE",
"366 776 CURVE",
"355 779 OFFCURVE",
"342 785 OFFCURVE",
"325 793 CURVE"
);
}
);
width = 717;
}
);
unicode = 00D1;
},
{
glyphname = Ograve;
lastChange = "2014-11-05 03:31:33 +0000";
layers = (
{
layerId = "D5D14868-B3D8-4E08-9530-062F6179E82D";
paths = (
{
closed = 1;
nodes = (
"352 628 OFFCURVE",
"301 603 OFFCURVE",
"265 560 CURVE",
"229 513 OFFCURVE",
"209 445 OFFCURVE",
"209 364 CURVE SMOOTH",
"209 299 OFFCURVE",
"227 257 OFFCURVE",
"260 235 CURVE",
"297 213 OFFCURVE",
"348 202 OFFCURVE",
"413 202 CURVE SMOOTH",
"542 202 OFFCURVE",
"615 235 OFFCURVE",
"615 364 CURVE SMOOTH",
"615 531 OFFCURVE",
"536 628 OFFCURVE",
"413 628 CURVE SMOOTH"
);
},
{
closed = 1;
nodes = (
"515 742 OFFCURVE",
"597 707 OFFCURVE",
"659 638 CURVE SMOOTH",
"720 569 OFFCURVE",
"751 479 OFFCURVE",
"751 364 CURVE SMOOTH",
"751 250 OFFCURVE",
"720 159 OFFCURVE",
"659 90 CURVE SMOOTH",
"597 21 OFFCURVE",
"515 -14 OFFCURVE",
"413 -14 CURVE SMOOTH",
"310 -14 OFFCURVE",
"227 21 OFFCURVE",
"165 90 CURVE SMOOTH",
"104 159 OFFCURVE",
"73 250 OFFCURVE",
"73 364 CURVE SMOOTH",
"73 479 OFFCURVE",
"104 569 OFFCURVE",
"165 638 CURVE SMOOTH",
"227 707 OFFCURVE",
"310 742 OFFCURVE",
"413 742 CURVE SMOOTH"
);
},
{
closed = 1;
nodes = (
"358 914 LINE",
"474 757 LINE",
"360 757 LINE",
"224 914 LINE"
);
}
);
width = 824;
}
);
unicode = 00D2;
},
{
glyphname = Oacute;
lastChange = "2014-11-05 03:31:33 +0000";
layers = (
{
layerId = "D5D14868-B3D8-4E08-9530-062F6179E82D";
paths = (
{
closed = 1;
nodes = (
"352 628 OFFCURVE",
"301 603 OFFCURVE",
"265 560 CURVE",
"229 513 OFFCURVE",
"209 445 OFFCURVE",
"209 364 CURVE SMOOTH",
"209 299 OFFCURVE",
"227 257 OFFCURVE",
"260 235 CURVE",
"297 213 OFFCURVE",
"348 202 OFFCURVE",
"413 202 CURVE SMOOTH",
"542 202 OFFCURVE",
"615 235 OFFCURVE",
"615 364 CURVE SMOOTH",
"615 531 OFFCURVE",
"536 628 OFFCURVE",
"413 628 CURVE SMOOTH"
);
},
{
closed = 1;
nodes = (
"515 742 OFFCURVE",
"597 707 OFFCURVE",
"659 638 CURVE SMOOTH",
"720 569 OFFCURVE",
"751 479 OFFCURVE",
"751 364 CURVE SMOOTH",
"751 250 OFFCURVE",
"720 159 OFFCURVE",
"659 90 CURVE SMOOTH",
"597 21 OFFCURVE",
"515 -14 OFFCURVE",
"413 -14 CURVE SMOOTH",
"310 -14 OFFCURVE",
"227 21 OFFCURVE",
"165 90 CURVE SMOOTH",
"104 159 OFFCURVE",
"73 250 OFFCURVE",
"73 364 CURVE SMOOTH",
"73 479 OFFCURVE",
"104 569 OFFCURVE",
"165 638 CURVE SMOOTH",
"227 707 OFFCURVE",
"310 742 OFFCURVE",
"413 742 CURVE SMOOTH"
);
},
{
closed = 1;
nodes = (
"438 914 LINE",
"571 914 LINE",
"436 757 LINE",
"321 757 LINE"
);
}
);
width = 824;
}
);
unicode = 00D3;
},
{
glyphname = Ocircumflex;
lastChange = "2014-11-05 03:31:33 +0000";
layers = (
{
layerId = "D5D14868-B3D8-4E08-9530-062F6179E82D";
paths = (
{
closed = 1;
nodes = (
"352 628 OFFCURVE",
"301 603 OFFCURVE",
"265 560 CURVE",
"229 513 OFFCURVE",
"209 445 OFFCURVE",
"209 364 CURVE SMOOTH",
"209 299 OFFCURVE",
"227 257 OFFCURVE",
"260 235 CURVE",
"297 213 OFFCURVE",
"348 202 OFFCURVE",
"413 202 CURVE SMOOTH",
"542 202 OFFCURVE",
"615 235 OFFCURVE",
"615 364 CURVE SMOOTH",
"615 531 OFFCURVE",
"536 628 OFFCURVE",
"413 628 CURVE SMOOTH"
);
},
{
closed = 1;
nodes = (
"515 742 OFFCURVE",
"597 707 OFFCURVE",
"659 638 CURVE SMOOTH",
"720 569 OFFCURVE",
"751 479 OFFCURVE",
"751 364 CURVE SMOOTH",
"751 250 OFFCURVE",
"720 159 OFFCURVE",
"659 90 CURVE SMOOTH",
"597 21 OFFCURVE",
"515 -14 OFFCURVE",
"413 -14 CURVE SMOOTH",
"310 -14 OFFCURVE",
"227 21 OFFCURVE",
"165 90 CURVE SMOOTH",
"104 159 OFFCURVE",
"73 250 OFFCURVE",
"73 364 CURVE SMOOTH",
"73 479 OFFCURVE",
"104 569 OFFCURVE",
"165 638 CURVE SMOOTH",
"227 707 OFFCURVE",
"310 742 OFFCURVE",
"413 742 CURVE SMOOTH"
);
},
{
closed = 1;
nodes = (
"353 915 LINE",
"456 915 LINE",
"582 757 LINE",
"473 757 LINE",
"404 830 LINE",
"393 818 OFFCURVE",
"381 806 OFFCURVE",
"370 793 CURVE SMOOTH",
"358 781 OFFCURVE",
"347 769 OFFCURVE",
"337 757 CURVE",
"228 757 LINE"
);
}
);
width = 824;
}
);
unicode = 00D4;
},
{
glyphname = Otilde;
lastChange = "2014-11-05 03:31:33 +0000";
layers = (
{
layerId = "D5D14868-B3D8-4E08-9530-062F6179E82D";
paths = (
{
closed = 1;
nodes = (
"352 628 OFFCURVE",
"301 603 OFFCURVE",
"265 560 CURVE",
"229 513 OFFCURVE",
"209 445 OFFCURVE",
"209 364 CURVE SMOOTH",
"209 299 OFFCURVE",
"227 257 OFFCURVE",
"260 235 CURVE",
"297 213 OFFCURVE",
"348 202 OFFCURVE",
"413 202 CURVE SMOOTH",
"542 202 OFFCURVE",
"615 235 OFFCURVE",
"615 364 CURVE SMOOTH",
"615 531 OFFCURVE",
"536 628 OFFCURVE",
"413 628 CURVE SMOOTH"
);
},
{
closed = 1;
nodes = (
"515 742 OFFCURVE",
"597 707 OFFCURVE",
"659 638 CURVE SMOOTH",
"720 569 OFFCURVE",
"751 479 OFFCURVE",
"751 364 CURVE SMOOTH",
"751 250 OFFCURVE",
"720 159 OFFCURVE",
"659 90 CURVE SMOOTH",
"597 21 OFFCURVE",
"515 -14 OFFCURVE",
"413 -14 CURVE SMOOTH",
"310 -14 OFFCURVE",
"227 21 OFFCURVE",
"165 90 CURVE SMOOTH",
"104 159 OFFCURVE",
"73 250 OFFCURVE",
"73 364 CURVE SMOOTH",
"73 479 OFFCURVE",
"104 569 OFFCURVE",
"165 638 CURVE SMOOTH",
"227 707 OFFCURVE",
"310 742 OFFCURVE",
"413 742 CURVE SMOOTH"
);
},
{
closed = 1;
nodes = (
"371 809 LINE SMOOTH",
"360 815 OFFCURVE",
"353 818 OFFCURVE",
"350 818 CURVE SMOOTH",
"338 818 OFFCURVE",
"333 809 OFFCURVE",
"333 793 CURVE SMOOTH",
"333 772 LINE",
"240 772 LINE",
"240 813 OFFCURVE",
"250 848 OFFCURVE",
"268 872 CURVE SMOOTH",
"286 895 OFFCURVE",
"313 908 OFFCURVE",
"344 908 CURVE SMOOTH",
"357 908 OFFCURVE",
"367 907 OFFCURVE",
"379 904 CURVE SMOOTH",
"391 900 OFFCURVE",
"403 896 OFFCURVE",
"419 886 CURVE",
"418 886 LINE",
"445 873 LINE",
"455 866 OFFCURVE",
"463 863 OFFCURVE",
"469 863 CURVE SMOOTH",
"478 863 OFFCURVE",
"483 873 OFFCURVE",
"483 887 CURVE SMOOTH",
"483 908 LINE",
"577 908 LINE",
"576 867 OFFCURVE",
"565 833 OFFCURVE",
"547 809 CURVE SMOOTH",
"529 785 OFFCURVE",
"503 772 OFFCURVE",
"473 772 CURVE SMOOTH",
"459 772 OFFCURVE",
"449 773 OFFCURVE",
"438 776 CURVE",
"428 779 OFFCURVE",
"415 785 OFFCURVE",
"397 793 CURVE"
);
}
);
width = 824;
}
);
unicode = 00D5;
},
{
glyphname = Odieresis;
lastChange = "2014-11-05 03:31:33 +0000";
layers = (
{
layerId = "D5D14868-B3D8-4E08-9530-062F6179E82D";
paths = (
{
closed = 1;
nodes = (
"352 628 OFFCURVE",
"301 603 OFFCURVE",
"265 560 CURVE",
"229 513 OFFCURVE",
"209 445 OFFCURVE",
"209 364 CURVE SMOOTH",
"209 299 OFFCURVE",
"227 257 OFFCURVE",
"260 235 CURVE",
"297 213 OFFCURVE",
"348 202 OFFCURVE",
"413 202 CURVE SMOOTH",
"542 202 OFFCURVE",
"615 235 OFFCURVE",
"615 364 CURVE SMOOTH",
"615 531 OFFCURVE",
"536 628 OFFCURVE",
"413 628 CURVE SMOOTH"
);
},
{
closed = 1;
nodes = (
"515 742 OFFCURVE",
"597 707 OFFCURVE",
"659 638 CURVE SMOOTH",
"720 569 OFFCURVE",
"751 479 OFFCURVE",
"751 364 CURVE SMOOTH",
"751 250 OFFCURVE",
"720 159 OFFCURVE",
"659 90 CURVE SMOOTH",
"597 21 OFFCURVE",
"515 -14 OFFCURVE",
"413 -14 CURVE SMOOTH",
"310 -14 OFFCURVE",
"227 21 OFFCURVE",
"165 90 CURVE SMOOTH",
"104 159 OFFCURVE",
"73 250 OFFCURVE",
"73 364 CURVE SMOOTH",
"73 479 OFFCURVE",
"104 569 OFFCURVE",
"165 638 CURVE SMOOTH",
"227 707 OFFCURVE",
"310 742 OFFCURVE",
"413 742 CURVE SMOOTH"
);
},
{
closed = 1;
nodes = (
"466 901 LINE",
"595 901 LINE",
"595 772 LINE",
"466 772 LINE"
);
},
{
closed = 1;
nodes = (
"288 901 LINE",
"417 901 LINE",
"417 772 LINE",
"288 772 LINE"
);
}
);
width = 824;
}
);
unicode = 00D6;
},
{
glyphname = multiply;
lastChange = "2014-11-05 03:31:33 +0000";
layers = (
{
layerId = "D5D14868-B3D8-4E08-9530-062F6179E82D";
paths = (
{
closed = 1;
nodes = (
"628 497 LINE",
"451 319 LINE",
"623 147 LINE",
"521 44 LINE",
"348 217 LINE",
"175 44 LINE",
"73 147 LINE",
"245 319 LINE",
"82 483 LINE",
"184 587 LINE",
"348 423 LINE",
"525 600 LINE"
);
}
);
width = 701;
}
);
unicode = 00D7;
},
{
glyphname = Oslash;
lastChange = "2014-11-05 03:31:33 +0000";
layers = (
{
anchors = (
{
name = top;
position = "{425, 729}";
}
);
layerId = "D5D14868-B3D8-4E08-9530-062F6179E82D";
paths = (
{
closed = 1;
nodes = (
"330 178 LINE",
"340 172 OFFCURVE",
"350 170 OFFCURVE",
"359 169 CURVE",
"377 168 OFFCURVE",
"400 168 OFFCURVE",
"428 168 CURVE",
"490 177 OFFCURVE",
"539 196 OFFCURVE",
"567 224 CURVE",
"595 253 OFFCURVE",
"617 314 OFFCURVE",
"628 394 CURVE",
"628 425 OFFCURVE",
"625 449 OFFCURVE",
"620 466 CURVE SMOOTH",
"617 478 OFFCURVE",
"613 489 OFFCURVE",
"607 501 CURVE"
);
},
{
closed = 1;
nodes = (
"549 587 LINE",
"534 606 OFFCURVE",
"519 621 OFFCURVE",
"500 628 CURVE",
"477 638 OFFCURVE",
"447 644 OFFCURVE",
"411 647 CURVE",
"352 646 OFFCURVE",
"300 621 OFFCURVE",
"264 578 CURVE",
"229 531 OFFCURVE",
"208 464 OFFCURVE",
"208 382 CURVE SMOOTH",
"208 351 OFFCURVE",
"215 324 OFFCURVE",
"227 300 CURVE",
"227 300 LINE",
"237 281 OFFCURVE",
"246 265 OFFCURVE",
"259 250 CURVE"
);
},
{
closed = 1;
nodes = (
"154 121 LINE",
"110 186 OFFCURVE",
"87 268 OFFCURVE",
"87 364 CURVE SMOOTH",
"87 592 OFFCURVE",
"220 742 OFFCURVE",
"426 742 CURVE SMOOTH",
"504 742 OFFCURVE",
"571 720 OFFCURVE",
"626 678 CURVE",
"702 767 LINE",
"777 702 LINE",
"696 607 LINE",
"741 542 OFFCURVE",
"764 460 OFFCURVE",
"764 364 CURVE SMOOTH",
"764 250 OFFCURVE",
"733 158 OFFCURVE",
"672 90 CURVE SMOOTH",
"610 21 OFFCURVE",
"529 -14 OFFCURVE",
"426 -14 CURVE SMOOTH",
"348 -14 OFFCURVE",
"282 6 OFFCURVE",
"225 49 CURVE",
"149 -40 LINE",
"73 25 LINE"
);
}
);
width = 851;
}
);
unicode = 00D8;
},
{
glyphname = Ugrave;
lastChange = "2014-11-05 03:31:33 +0000";
layers = (
{
layerId = "D5D14868-B3D8-4E08-9530-062F6179E82D";
paths = (
{
closed = 1;
nodes = (
"73 729 LINE",
"205 729 LINE",
"209 355 LINE SMOOTH",
"210 286 OFFCURVE",
"222 236 OFFCURVE",
"246 206 CURVE",
"246 207 LINE",
"269 179 OFFCURVE",
"308 165 OFFCURVE",
"362 165 CURVE SMOOTH",
"416 165 OFFCURVE",
"455 179 OFFCURVE",
"478 207 CURVE",
"478 206 LINE",
"502 236 OFFCURVE",
"513 286 OFFCURVE",
"514 355 CURVE SMOOTH",
"519 729 LINE",
"650 729 LINE",
"645 278 LINE SMOOTH",
"643 85 OFFCURVE",
"549 -14 OFFCURVE",
"362 -14 CURVE SMOOTH",
"175 -14 OFFCURVE",
"80 86 OFFCURVE",
"78 278 CURVE SMOOTH"
);
},
{
closed = 1;
nodes = (
"304 914 LINE",
"420 757 LINE",
"307 757 LINE",
"170 914 LINE"
);
}
);
width = 723;
}
);
unicode = 00D9;
},
{
glyphname = Uacute;
lastChange = "2014-11-05 03:31:33 +0000";
layers = (
{
layerId = "D5D14868-B3D8-4E08-9530-062F6179E82D";
paths = (
{
closed = 1;
nodes = (
"73 729 LINE",
"205 729 LINE",
"205 355 LINE SMOOTH",
"205 286 OFFCURVE",
"217 236 OFFCURVE",
"241 206 CURVE",
"241 207 LINE",
"264 179 OFFCURVE",
"303 165 OFFCURVE",
"357 165 CURVE SMOOTH",
"411 165 OFFCURVE",
"450 179 OFFCURVE",
"473 207 CURVE",
"473 206 LINE",
"497 236 OFFCURVE",
"509 286 OFFCURVE",
"509 355 CURVE SMOOTH",
"509 729 LINE",
"640 729 LINE",
"640 278 LINE SMOOTH",
"640 85 OFFCURVE",
"544 -14 OFFCURVE",
"357 -14 CURVE SMOOTH",
"170 -14 OFFCURVE",
"73 86 OFFCURVE",
"73 278 CURVE SMOOTH"
);
},
{
closed = 1;
nodes = (
"398 914 LINE",
"532 914 LINE",
"396 757 LINE",
"282 757 LINE"
);
}
);
width = 713;
}
);
unicode = 00DA;
},
{
glyphname = Ucircumflex;
lastChange = "2014-11-05 03:31:33 +0000";
layers = (
{
layerId = "D5D14868-B3D8-4E08-9530-062F6179E82D";
paths = (
{
closed = 1;
nodes = (
"73 729 LINE",
"205 729 LINE",
"205 355 LINE SMOOTH",
"205 286 OFFCURVE",
"217 236 OFFCURVE",
"241 206 CURVE",
"241 207 LINE",
"264 179 OFFCURVE",
"303 165 OFFCURVE",
"357 165 CURVE SMOOTH",
"411 165 OFFCURVE",
"450 179 OFFCURVE",
"473 207 CURVE",
"473 206 LINE",
"497 236 OFFCURVE",
"509 286 OFFCURVE",
"509 355 CURVE SMOOTH",
"509 729 LINE",
"640 729 LINE",
"640 278 LINE SMOOTH",
"640 85 OFFCURVE",
"544 -14 OFFCURVE",
"357 -14 CURVE SMOOTH",
"170 -14 OFFCURVE",
"73 86 OFFCURVE",
"73 278 CURVE SMOOTH"
);
},
{
closed = 1;
nodes = (
"304 915 LINE",
"407 915 LINE",
"533 757 LINE",
"424 757 LINE",
"355 830 LINE",
"344 818 OFFCURVE",
"333 806 OFFCURVE",
"321 793 CURVE SMOOTH",
"310 781 OFFCURVE",
"298 769 OFFCURVE",
"288 757 CURVE",
"179 757 LINE"
);
}
);
width = 713;
}
);
unicode = 00DB;
},
{
glyphname = Udieresis;
lastChange = "2014-11-05 03:31:33 +0000";
layers = (
{
layerId = "D5D14868-B3D8-4E08-9530-062F6179E82D";
paths = (
{
closed = 1;
nodes = (
"73 729 LINE",
"205 729 LINE",
"205 355 LINE SMOOTH",
"205 286 OFFCURVE",
"217 236 OFFCURVE",
"241 206 CURVE",
"241 207 LINE",
"264 179 OFFCURVE",
"303 165 OFFCURVE",
"357 165 CURVE SMOOTH",
"411 165 OFFCURVE",
"450 179 OFFCURVE",
"473 207 CURVE",
"473 206 LINE",
"497 236 OFFCURVE",
"509 286 OFFCURVE",
"509 355 CURVE SMOOTH",
"509 729 LINE",
"640 729 LINE",
"640 278 LINE SMOOTH",
"640 85 OFFCURVE",
"544 -14 OFFCURVE",
"357 -14 CURVE SMOOTH",
"170 -14 OFFCURVE",
"73 86 OFFCURVE",
"73 278 CURVE SMOOTH"
);
},
{
closed = 1;
nodes = (
"393 901 LINE",
"522 901 LINE",
"522 772 LINE",
"393 772 LINE"
);
},
{
closed = 1;
nodes = (
"215 901 LINE",
"344 901 LINE",
"344 772 LINE",
"215 772 LINE"
);
}
);
width = 713;
}
);
unicode = 00DC;
},
{
glyphname = Yacute;
lastChange = "2014-11-05 03:31:33 +0000";
layers = (
{
layerId = "D5D14868-B3D8-4E08-9530-062F6179E82D";
paths = (
{
closed = 1;
nodes = (
"73 729 LINE",
"215 729 LINE",
"396 395 LINE",
"575 729 LINE",
"717 729 LINE",
"475 250 LINE",
"475 0 LINE",
"311 0 LINE",
"311 250 LINE"
);
},
{
closed = 1;
nodes = (
"427 914 LINE",
"561 914 LINE",
"425 757 LINE",
"311 757 LINE"
);
}
);
width = 791;
}
);
unicode = 00DD;
},
{
glyphname = Thorn;
lastChange = "2014-11-05 03:31:33 +0000";
layers = (
{
layerId = "D5D14868-B3D8-4E08-9530-062F6179E82D";
paths = (
{
closed = 1;
nodes = (
"73 729 LINE",
"204 729 LINE",
"204 606 LINE",
"303 606 LINE SMOOTH",
"472 606 OFFCURVE",
"557 531 OFFCURVE",
"557 382 CURVE SMOOTH",
"557 233 OFFCURVE",
"472 157 OFFCURVE",
"303 157 CURVE SMOOTH",
"204 157 LINE",
"204 0 LINE",
"73 0 LINE"
);
},
{
closed = 1;
nodes = (
"204 493 LINE",
"204 271 LINE",
"303 271 LINE SMOOTH",
"379 271 OFFCURVE",
"421 311 OFFCURVE",
"421 382 CURVE SMOOTH",
"421 453 OFFCURVE",
"379 493 OFFCURVE",
"303 493 CURVE SMOOTH"
);
}
);
width = 630;
}
);
unicode = 00DE;
},
{
glyphname = germandbls;
lastChange = "2014-11-05 03:31:33 +0000";
layers = (
{
layerId = "D5D14868-B3D8-4E08-9530-062F6179E82D";
paths = (
{
closed = 1;
nodes = (
"102 537 LINE",
"102 602 OFFCURVE",
"122 653 OFFCURVE",
"162 690 CURVE SMOOTH",
"202 727 OFFCURVE",
"258 746 OFFCURVE",
"328 746 CURVE SMOOTH",
"467 746 OFFCURVE",
"541 663 OFFCURVE",
"543 502 CURVE",
"450 497 OFFCURVE",
"397 467 OFFCURVE",
"397 420 CURVE SMOOTH",
"397 398 OFFCURVE",
"411 379 OFFCURVE",
"445 358 CURVE",
"444 358 LINE",
"470 341 LINE SMOOTH",
"577 273 OFFCURVE",
"599 235 OFFCURVE",
"599 167 CURVE SMOOTH",
"599 50 OFFCURVE",
"522 -13 OFFCURVE",
"381 -13 CURVE SMOOTH",
"340 -13 OFFCURVE",
"293 -3 OFFCURVE",
"239 14 CURVE",
"239 165 LINE",
"302 141 OFFCURVE",
"348 130 OFFCURVE",
"387 130 CURVE SMOOTH",
"417 130 OFFCURVE",
"439 133 OFFCURVE",
"454 140 CURVE SMOOTH",
"469 147 OFFCURVE",
"476 157 OFFCURVE",
"476 169 CURVE SMOOTH",
"476 178 OFFCURVE",
"473 188 OFFCURVE",
"466 197 CURVE",
"459 208 OFFCURVE",
"441 222 OFFCURVE",
"412 240 CURVE",
"372 267 LINE",
"354 288 OFFCURVE",
"341 308 OFFCURVE",
"328 328 CURVE SMOOTH",
"313 351 OFFCURVE",
"305 378 OFFCURVE",
"305 410 CURVE SMOOTH",
"305 495 OFFCURVE",
"343 554 OFFCURVE",
"447 574 CURVE",
"409 652 OFFCURVE",
"389 658 OFFCURVE",
"326 658 CURVE SMOOTH",
"258 658 OFFCURVE",
"226 628 OFFCURVE",
"214 533 CURVE",
"218 447 OFFCURVE",
"222 357 OFFCURVE",
"226 267 CURVE SMOOTH",
"230 176 OFFCURVE",
"234 85 OFFCURVE",
"238 0 CURVE",
"73 0 LINE"
);
}
);
width = 672;
}
);
unicode = 00DF;
},
{
glyphname = ae;
lastChange = "2014-11-05 03:31:33 +0000";
layers = (
{
anchors = (
{
name = top;
position = "{496, 547}";
}
);
layerId = "D5D14868-B3D8-4E08-9530-062F6179E82D";
paths = (
{
closed = 1;
nodes = (
"799 365 LINE",
"791 410 OFFCURVE",
"751 476 OFFCURVE",
"681 476 CURVE SMOOTH",
"639 476 OFFCURVE",
"606 462 OFFCURVE",
"582 434 CURVE SMOOTH",
"562 413 OFFCURVE",
"548 388 OFFCURVE",
"542 364 CURVE"
);
},
{
closed = 1;
nodes = (
"385 559 OFFCURVE",
"451 533 OFFCURVE",
"490 486 CURVE",
"539 534 OFFCURVE",
"602 559 OFFCURVE",
"680 559 CURVE SMOOTH",
"828 559 OFFCURVE",
"921 447 OFFCURVE",
"921 322 CURVE SMOOTH",
"921 263 LINE",
"539 263 LINE",
"552 208 OFFCURVE",
"597 148 OFFCURVE",
"699 148 CURVE SMOOTH",
"760 148 OFFCURVE",
"826 167 OFFCURVE",
"901 208 CURVE",
"901 45 LINE",
"886 39 OFFCURVE",
"868 32 OFFCURVE",
"850 24 CURVE SMOOTH",
"831 17 OFFCURVE",
"813 10 OFFCURVE",
"797 4 CURVE SMOOTH",
"763 -7 OFFCURVE",
"729 -13 OFFCURVE",
"695 -13 CURVE SMOOTH",
"593 -13 OFFCURVE",
"522 14 OFFCURVE",
"471 82 CURVE",
"424 20 OFFCURVE",
"357 -13 OFFCURVE",
"273 -13 CURVE SMOOTH",
"148 -13 OFFCURVE",
"73 54 OFFCURVE",
"73 167 CURVE SMOOTH",
"73 331 OFFCURVE",
"161 386 OFFCURVE",
"321 386 CURVE SMOOTH",
"419 386 LINE",
"416 400 OFFCURVE",
"405 416 OFFCURVE",
"387 434 CURVE",
"366 458 OFFCURVE",
"334 470 OFFCURVE",
"294 470 CURVE SMOOTH",
"238 470 OFFCURVE",
"177 452 OFFCURVE",
"111 416 CURVE",
"111 518 LINE",
"182 545 OFFCURVE",
"246 559 OFFCURVE",
"303 559 CURVE SMOOTH"
);
},
{
closed = 1;
nodes = (
"421 284 LINE",
"421 287 LINE",
"421 302 LINE",
"439 284 LINE"
);
},
{
closed = 1;
nodes = (
"408 196 OFFCURVE",
"420 232 OFFCURVE",
"421 284 CURVE",
"355 284 LINE SMOOTH",
"291 284 OFFCURVE",
"247 278 OFFCURVE",
"223 267 CURVE SMOOTH",
"204 258 OFFCURVE",
"194 235 OFFCURVE",
"194 198 CURVE SMOOTH",
"194 161 OFFCURVE",
"229 139 OFFCURVE",
"285 139 CURVE SMOOTH",
"327 139 OFFCURVE",
"360 150 OFFCURVE",
"384 173 CURVE SMOOTH"
);
}
);
width = 994;
}
);
unicode = 00E6;
},
{
glyphname = ccedilla;
lastChange = "2014-11-05 03:31:33 +0000";
layers = (
{
layerId = "D5D14868-B3D8-4E08-9530-062F6179E82D";
paths = (
{
closed = 1;
nodes = (
"514 405 LINE",
"452 439 OFFCURVE",
"397 456 OFFCURVE",
"352 456 CURVE SMOOTH",
"254 456 OFFCURVE",
"204 388 OFFCURVE",
"203 275 CURVE",
"207 238 OFFCURVE",
"220 209 OFFCURVE",
"239 195 CURVE",
"261 181 OFFCURVE",
"304 171 OFFCURVE",
"349 167 CURVE",
"421 167 LINE SMOOTH",
"442 168 OFFCURVE",
"472 178 OFFCURVE",
"511 201 CURVE",
"514 26 LINE",
"457 0 OFFCURVE",
"402 -13 OFFCURVE",
"343 -13 CURVE SMOOTH",
"179 -13 OFFCURVE",
"73 101 OFFCURVE",
"73 273 CURVE SMOOTH",
"73 449 OFFCURVE",
"178 559 OFFCURVE",
"348 559 CURVE SMOOTH",
"402 559 OFFCURVE",
"457 546 OFFCURVE",
"514 521 CURVE"
);
},
{
closed = 1;
nodes = (
"389 37 LINE",
"429 -10 OFFCURVE",
"448 -45 OFFCURVE",
"448 -80 CURVE SMOOTH",
"448 -146 OFFCURVE",
"405 -180 OFFCURVE",
"321 -180 CURVE SMOOTH",
"292 -180 OFFCURVE",
"260 -175 OFFCURVE",
"223 -165 CURVE",
"223 -61 LINE",
"260 -80 OFFCURVE",
"287 -87 OFFCURVE",
"312 -87 CURVE SMOOTH",
"336 -87 OFFCURVE",
"348 -79 OFFCURVE",
"348 -63 CURVE SMOOTH",
"348 -56 OFFCURVE",
"343 -43 OFFCURVE",
"334 -27 CURVE SMOOTH",
"324 -11 OFFCURVE",
"310 10 OFFCURVE",
"290 37 CURVE"
);
}
);
width = 587;
}
);
unicode = 00E7;
},
{
glyphname = egrave;
lastChange = "2014-11-05 03:31:33 +0000";
layers = (
{
layerId = "D5D14868-B3D8-4E08-9530-062F6179E82D";
paths = (
{
closed = 1;
nodes = (
"578 276 LINE",
"198 276 LINE",
"202 228 OFFCURVE",
"217 194 OFFCURVE",
"238 179 CURVE",
"266 162 OFFCURVE",
"311 151 OFFCURVE",
"360 147 CURVE",
"393 147 OFFCURVE",
"421 148 OFFCURVE",
"452 151 CURVE SMOOTH",
"480 153 OFFCURVE",
"517 167 OFFCURVE",
"561 190 CURVE",
"563 32 LINE",
"493 2 OFFCURVE",
"424 -13 OFFCURVE",
"355 -13 CURVE SMOOTH",
"270 -10 OFFCURVE",
"202 16 OFFCURVE",
"150 65 CURVE SMOOTH",
"99 115 OFFCURVE",
"73 183 OFFCURVE",
"73 269 CURVE SMOOTH",
"79 445 OFFCURVE",
"177 559 OFFCURVE",
"342 559 CURVE",
"416 556 OFFCURVE",
"472 536 OFFCURVE",
"511 499 CURVE",
"510 499 LINE",
"549 462 OFFCURVE",
"572 405 OFFCURVE",
"578 328 CURVE"
);
},
{
closed = 1;
nodes = (
"464 386 LINE",
"457 403 OFFCURVE",
"443 423 OFFCURVE",
"428 441 CURVE SMOOTH",
"407 466 OFFCURVE",
"378 479 OFFCURVE",
"342 479 CURVE SMOOTH",
"300 479 OFFCURVE",
"267 466 OFFCURVE",
"243 441 CURVE",
"243 442 LINE",
"224 423 OFFCURVE",
"212 404 OFFCURVE",
"208 386 CURVE"
);
},
{
closed = 1;
nodes = (
"273 783 LINE",
"429 576 LINE",
"257 576 LINE",
"143 783 LINE"
);
}
);
width = 651;
}
);
unicode = 00E8;
},
{
glyphname = eacute;
lastChange = "2014-11-05 03:31:33 +0000";
layers = (
{
layerId = "D5D14868-B3D8-4E08-9530-062F6179E82D";
paths = (
{
closed = 1;
nodes = (
"578 276 LINE",
"198 276 LINE",
"202 228 OFFCURVE",
"217 194 OFFCURVE",
"238 179 CURVE",
"266 162 OFFCURVE",
"311 151 OFFCURVE",
"360 147 CURVE",
"393 147 OFFCURVE",
"421 148 OFFCURVE",
"452 151 CURVE SMOOTH",
"480 153 OFFCURVE",
"517 167 OFFCURVE",
"561 190 CURVE",
"563 32 LINE",
"493 2 OFFCURVE",
"424 -13 OFFCURVE",
"355 -13 CURVE SMOOTH",
"270 -10 OFFCURVE",
"202 16 OFFCURVE",
"150 65 CURVE SMOOTH",
"99 115 OFFCURVE",
"73 183 OFFCURVE",
"73 269 CURVE SMOOTH",
"79 445 OFFCURVE",
"177 559 OFFCURVE",
"342 559 CURVE",
"416 556 OFFCURVE",
"472 536 OFFCURVE",
"511 499 CURVE",
"510 499 LINE",
"549 462 OFFCURVE",
"572 405 OFFCURVE",
"578 328 CURVE"
);
},
{
closed = 1;
nodes = (
"464 386 LINE",
"457 403 OFFCURVE",
"443 423 OFFCURVE",
"428 441 CURVE SMOOTH",
"407 466 OFFCURVE",
"378 479 OFFCURVE",
"342 479 CURVE SMOOTH",
"300 479 OFFCURVE",
"267 466 OFFCURVE",
"243 441 CURVE",
"243 442 LINE",
"224 423 OFFCURVE",
"212 404 OFFCURVE",
"208 386 CURVE"
);
},
{
closed = 1;
nodes = (
"390 783 LINE",
"540 783 LINE",
"343 556 LINE",
"221 556 LINE"
);
}
);
width = 651;
}
);
unicode = 00E9;
},
{
glyphname = ecircumflex;
lastChange = "2014-11-05 03:31:33 +0000";
layers = (
{
layerId = "D5D14868-B3D8-4E08-9530-062F6179E82D";
paths = (
{
closed = 1;
nodes = (
"578 276 LINE",
"198 276 LINE",
"202 228 OFFCURVE",
"217 194 OFFCURVE",
"238 179 CURVE",
"266 162 OFFCURVE",
"311 151 OFFCURVE",
"360 147 CURVE",
"393 147 OFFCURVE",
"421 148 OFFCURVE",
"452 151 CURVE SMOOTH",
"480 153 OFFCURVE",
"517 167 OFFCURVE",
"561 190 CURVE",
"563 32 LINE",
"493 2 OFFCURVE",
"424 -13 OFFCURVE",
"355 -13 CURVE SMOOTH",
"270 -10 OFFCURVE",
"202 16 OFFCURVE",
"150 65 CURVE SMOOTH",
"99 115 OFFCURVE",
"73 183 OFFCURVE",
"73 269 CURVE SMOOTH",
"79 445 OFFCURVE",
"177 559 OFFCURVE",
"342 559 CURVE",
"416 556 OFFCURVE",
"472 536 OFFCURVE",
"511 499 CURVE",
"510 499 LINE",
"549 462 OFFCURVE",
"572 405 OFFCURVE",
"578 328 CURVE"
);
},
{
closed = 1;
nodes = (
"464 386 LINE",
"457 403 OFFCURVE",
"443 423 OFFCURVE",
"428 441 CURVE SMOOTH",
"407 466 OFFCURVE",
"378 479 OFFCURVE",
"342 479 CURVE SMOOTH",
"300 479 OFFCURVE",
"267 466 OFFCURVE",
"243 441 CURVE",
"243 442 LINE",
"224 423 OFFCURVE",
"212 404 OFFCURVE",
"208 386 CURVE"
);
},
{
closed = 1;
nodes = (
"279 783 LINE",
"367 783 LINE",
"502 575 LINE",
"396 575 LINE",
"323 674 LINE",
"311 658 OFFCURVE",
"298 641 OFFCURVE",
"286 624 CURVE SMOOTH",
"274 607 OFFCURVE",
"262 590 OFFCURVE",
"250 575 CURVE",
"144 575 LINE"
);
}
);
width = 651;
}
);
unicode = 00EA;
},
{
glyphname = edieresis;
lastChange = "2014-11-05 03:31:33 +0000";
layers = (
{
layerId = "D5D14868-B3D8-4E08-9530-062F6179E82D";
paths = (
{
closed = 1;
nodes = (
"578 276 LINE",
"198 276 LINE",
"202 228 OFFCURVE",
"217 194 OFFCURVE",
"238 179 CURVE",
"266 162 OFFCURVE",
"311 151 OFFCURVE",
"360 147 CURVE",
"393 147 OFFCURVE",
"421 148 OFFCURVE",
"452 151 CURVE SMOOTH",
"480 153 OFFCURVE",
"517 167 OFFCURVE",
"561 190 CURVE",
"563 32 LINE",
"493 2 OFFCURVE",
"424 -13 OFFCURVE",
"355 -13 CURVE SMOOTH",
"270 -10 OFFCURVE",
"202 16 OFFCURVE",
"150 65 CURVE SMOOTH",
"99 115 OFFCURVE",
"73 183 OFFCURVE",
"73 269 CURVE SMOOTH",
"79 445 OFFCURVE",
"177 559 OFFCURVE",
"342 559 CURVE",
"416 556 OFFCURVE",
"472 536 OFFCURVE",
"511 499 CURVE",
"510 499 LINE",
"549 462 OFFCURVE",
"572 405 OFFCURVE",
"578 328 CURVE"
);
},
{
closed = 1;
nodes = (
"464 386 LINE",
"457 403 OFFCURVE",
"443 423 OFFCURVE",
"428 441 CURVE SMOOTH",
"407 466 OFFCURVE",
"378 479 OFFCURVE",
"342 479 CURVE SMOOTH",
"300 479 OFFCURVE",
"267 466 OFFCURVE",
"243 441 CURVE",
"243 442 LINE",
"224 423 OFFCURVE",
"212 404 OFFCURVE",
"208 386 CURVE"
);
},
{
closed = 1;
nodes = (
"381 750 LINE",
"517 750 LINE",
"517 615 LINE",
"381 615 LINE"
);
},
{
closed = 1;
nodes = (
"190 750 LINE",
"326 750 LINE",
"326 615 LINE",
"190 615 LINE"
);
}
);
width = 651;
}
);
unicode = 00EB;
},
{
glyphname = igrave;
lastChange = "2014-11-05 03:31:33 +0000";
layers = (
{
layerId = "D5D14868-B3D8-4E08-9530-062F6179E82D";
paths = (
{
closed = 1;
nodes = (
"216 547 LINE",
"336 547 LINE",
"336 0 LINE",
"216 0 LINE"
);
},
{
closed = 1;
nodes = (
"203 783 LINE",
"359 576 LINE",
"188 576 LINE",
"73 783 LINE"
);
}
);
width = 433;
}
);
unicode = 00EC;
},
{
glyphname = iacute;
lastChange = "2014-11-05 03:31:33 +0000";
layers = (
{
layerId = "D5D14868-B3D8-4E08-9530-062F6179E82D";
paths = (
{
closed = 1;
nodes = (
"84 547 LINE",
"205 547 LINE",
"205 0 LINE",
"84 0 LINE"
);
},
{
closed = 1;
nodes = (
"243 783 LINE",
"392 783 LINE",
"195 556 LINE",
"73 556 LINE"
);
}
);
width = 465;
}
);
unicode = 00ED;
},
{
glyphname = icircumflex;
lastChange = "2014-11-05 03:31:33 +0000";
layers = (
{
layerId = "D5D14868-B3D8-4E08-9530-062F6179E82D";
paths = (
{
closed = 1;
nodes = (
"210 547 LINE",
"331 547 LINE",
"331 0 LINE",
"210 0 LINE"
);
},
{
closed = 1;
nodes = (
"208 783 LINE",
"296 783 LINE",
"432 575 LINE",
"325 575 LINE",
"252 674 LINE",
"240 658 OFFCURVE",
"228 641 OFFCURVE",
"215 624 CURVE SMOOTH",
"203 607 OFFCURVE",
"191 590 OFFCURVE",
"180 575 CURVE",
"73 575 LINE"
);
}
);
width = 505;
}
);
unicode = 00EE;
},
{
glyphname = idieresis;
lastChange = "2014-11-05 03:31:33 +0000";
layers = (
{
layerId = "D5D14868-B3D8-4E08-9530-062F6179E82D";
paths = (
{
closed = 1;
nodes = (
"184 547 LINE",
"304 547 LINE",
"304 0 LINE",
"184 0 LINE"
);
},
{
closed = 1;
nodes = (
"264 750 LINE",
"400 750 LINE",
"400 615 LINE",
"264 615 LINE"
);
},
{
closed = 1;
nodes = (
"73 750 LINE",
"209 750 LINE",
"209 615 LINE",
"73 615 LINE"
);
}
);
width = 473;
}
);
unicode = 00EF;
},
{
glyphname = eth;
lastChange = "2014-11-05 03:31:33 +0000";
layers = (
{
layerId = "D5D14868-B3D8-4E08-9530-062F6179E82D";
paths = (
{
closed = 1;
nodes = (
"416 418 LINE",
"411 419 LINE",
"411 420 OFFCURVE",
"410 421 OFFCURVE",
"410 422 CURVE",
"409 422 OFFCURVE",
"408 423 OFFCURVE",
"408 424 CURVE"
);
},
{
closed = 1;
nodes = (
"453 330 OFFCURVE",
"439 382 OFFCURVE",
"411 419 CURVE",
"384 428 OFFCURVE",
"362 432 OFFCURVE",
"340 432 CURVE SMOOTH",
"295 432 OFFCURVE",
"260 418 OFFCURVE",
"235 389 CURVE",
"236 389 LINE",
"211 359 OFFCURVE",
"198 317 OFFCURVE",
"198 263 CURVE SMOOTH",
"198 156 OFFCURVE",
"248 94 OFFCURVE",
"326 94 CURVE SMOOTH",
"402 94 OFFCURVE",
"453 157 OFFCURVE",
"453 263 CURVE SMOOTH"
);
},
{
closed = 1;
nodes = (
"464 550 LINE SMOOTH",
"503 505 OFFCURVE",
"533 459 OFFCURVE",
"551 414 CURVE SMOOTH",
"569 368 OFFCURVE",
"578 317 OFFCURVE",
"578 263 CURVE SMOOTH",
"578 98 OFFCURVE",
"476 -13 OFFCURVE",
"326 -13 CURVE SMOOTH",
"175 -13 OFFCURVE",
"73 97 OFFCURVE",
"73 263 CURVE SMOOTH",
"73 424 OFFCURVE",
"172 537 OFFCURVE",
"318 537 CURVE SMOOTH",
"319 537 OFFCURVE",
"320 537 OFFCURVE",
"320 537 CURVE",
"320 537 OFFCURVE",
"320 537 OFFCURVE",
"319 537 CURVE",
"320 537 OFFCURVE",
"321 537 OFFCURVE",
"322 537 CURVE",
"323 537 OFFCURVE",
"324 537 OFFCURVE",
"325 537 CURVE",
"291 575 LINE",
"268 567 OFFCURVE",
"241 559 OFFCURVE",
"215 549 CURVE SMOOTH",
"188 540 OFFCURVE",
"162 531 OFFCURVE",
"140 524 CURVE",
"113 604 LINE",
"232 644 LINE",
"225 652 OFFCURVE",
"218 661 OFFCURVE",
"209 670 CURVE SMOOTH",
"201 679 OFFCURVE",
"193 688 OFFCURVE",
"185 698 CURVE SMOOTH",
"176 707 OFFCURVE",
"168 716 OFFCURVE",
"161 724 CURVE SMOOTH",
"154 732 OFFCURVE",
"147 739 OFFCURVE",
"142 746 CURVE",
"294 746 LINE",
"350 682 LINE",
"507 735 LINE",
"534 656 LINE",
"408 614 LINE"
);
}
);
width = 651;
}
);
unicode = 00F0;
},
{
glyphname = ntilde;
lastChange = "2014-11-05 03:31:33 +0000";
layers = (
{
layerId = "D5D14868-B3D8-4E08-9530-062F6179E82D";
paths = (
{
closed = 1;
nodes = (
"570 0 LINE",
"412 0 LINE",
"431 329 LINE",
"431 413 OFFCURVE",
"407 455 OFFCURVE",
"345 455 CURVE SMOOTH",
"253 455 OFFCURVE",
"212 402 OFFCURVE",
"212 312 CURVE",
"227 0 LINE",
"73 0 LINE",
"88 551 LINE",
"208 551 LINE",
"208 508 LINE",
"222 517 OFFCURVE",
"236 525 OFFCURVE",
"251 534 CURVE",
"281 550 OFFCURVE",
"315 559 OFFCURVE",
"354 559 CURVE SMOOTH",
"482 559 OFFCURVE",
"548 476 OFFCURVE",
"556 327 CURVE SMOOTH"
);
},
{
closed = 1;
nodes = (
"242 654 LINE",
"242 654 LINE",
"233 663 OFFCURVE",
"227 667 OFFCURVE",
"224 667 CURVE SMOOTH",
"218 667 OFFCURVE",
"214 662 OFFCURVE",
"211 650 CURVE SMOOTH",
"209 639 OFFCURVE",
"207 622 OFFCURVE",
"207 597 CURVE",
"113 597 LINE",
"115 702 OFFCURVE",
"154 762 OFFCURVE",
"221 762 CURVE SMOOTH",
"250 762 OFFCURVE",
"270 752 OFFCURVE",
"296 729 CURVE SMOOTH",
"323 704 LINE",
"322 704 LINE",
"332 695 OFFCURVE",
"338 691 OFFCURVE",
"341 691 CURVE SMOOTH",
"346 691 OFFCURVE",
"351 696 OFFCURVE",
"353 708 CURVE SMOOTH",
"355 719 OFFCURVE",
"357 737 OFFCURVE",
"358 762 CURVE",
"451 762 LINE",
"449 656 OFFCURVE",
"411 597 OFFCURVE",
"344 597 CURVE SMOOTH",
"314 597 OFFCURVE",
"293 605 OFFCURVE",
"268 629 CURVE"
);
}
);
width = 644;
}
);
unicode = 00F1;
},
{
glyphname = ograve;
lastChange = "2014-11-05 03:31:33 +0000";
layers = (
{
layerId = "D5D14868-B3D8-4E08-9530-062F6179E82D";
paths = (
{
closed = 1;
nodes = (
"253 461 OFFCURVE",
"203 397 OFFCURVE",
"203 288 CURVE SMOOTH",
"203 182 OFFCURVE",
"247 168 OFFCURVE",
"331 168 CURVE SMOOTH",
"371 168 OFFCURVE",
"404 176 OFFCURVE",
"427 189 CURVE",
"447 203 OFFCURVE",
"458 235 OFFCURVE",
"458 288 CURVE SMOOTH",
"458 397 OFFCURVE",
"407 461 OFFCURVE",
"331 461 CURVE SMOOTH"
);
},
{
closed = 1;
nodes = (
"487 559 OFFCURVE",
"583 449 OFFCURVE",
"583 273 CURVE SMOOTH",
"583 97 OFFCURVE",
"487 -13 OFFCURVE",
"331 -13 CURVE SMOOTH",
"251 -13 OFFCURVE",
"189 13 OFFCURVE",
"145 64 CURVE SMOOTH",
"100 115 OFFCURVE",
"78 185 OFFCURVE",
"78 273 CURVE SMOOTH",
"78 361 OFFCURVE",
"100 431 OFFCURVE",
"145 482 CURVE SMOOTH",
"189 533 OFFCURVE",
"251 559 OFFCURVE",
"331 559 CURVE SMOOTH"
);
},
{
closed = 1;
nodes = (
"203 783 LINE",
"359 576 LINE",
"188 576 LINE",
"73 783 LINE"
);
}
);
width = 656;
}
);
unicode = 00F2;
},
{
glyphname = oacute;
lastChange = "2014-11-05 03:31:33 +0000";
layers = (
{
layerId = "D5D14868-B3D8-4E08-9530-062F6179E82D";
paths = (
{
closed = 1;
nodes = (
"248 461 OFFCURVE",
"198 397 OFFCURVE",
"198 288 CURVE SMOOTH",
"198 182 OFFCURVE",
"242 168 OFFCURVE",
"326 168 CURVE SMOOTH",
"366 168 OFFCURVE",
"399 176 OFFCURVE",
"422 189 CURVE",
"442 203 OFFCURVE",
"453 235 OFFCURVE",
"453 288 CURVE SMOOTH",
"453 397 OFFCURVE",
"402 461 OFFCURVE",
"326 461 CURVE SMOOTH"
);
},
{
closed = 1;
nodes = (
"482 559 OFFCURVE",
"578 449 OFFCURVE",
"578 273 CURVE SMOOTH",
"578 97 OFFCURVE",
"482 -13 OFFCURVE",
"326 -13 CURVE SMOOTH",
"246 -13 OFFCURVE",
"184 13 OFFCURVE",
"140 64 CURVE SMOOTH",
"95 115 OFFCURVE",
"73 185 OFFCURVE",
"73 273 CURVE SMOOTH",
"73 361 OFFCURVE",
"95 431 OFFCURVE",
"140 482 CURVE SMOOTH",
"184 533 OFFCURVE",
"246 559 OFFCURVE",
"326 559 CURVE SMOOTH"
);
},
{
closed = 1;
nodes = (
"418 783 LINE",
"567 783 LINE",
"371 556 LINE",
"249 556 LINE"
);
}
);
width = 651;
}
);
unicode = 00F3;
},
{
glyphname = ocircumflex;
lastChange = "2014-11-05 03:31:33 +0000";
layers = (
{
layerId = "D5D14868-B3D8-4E08-9530-062F6179E82D";
paths = (
{
closed = 1;
nodes = (
"248 461 OFFCURVE",
"198 397 OFFCURVE",
"198 288 CURVE SMOOTH",
"198 182 OFFCURVE",
"242 168 OFFCURVE",
"326 168 CURVE SMOOTH",
"366 168 OFFCURVE",
"399 176 OFFCURVE",
"422 189 CURVE",
"442 203 OFFCURVE",
"453 235 OFFCURVE",
"453 288 CURVE SMOOTH",
"453 397 OFFCURVE",
"402 461 OFFCURVE",
"326 461 CURVE SMOOTH"
);
},
{
closed = 1;
nodes = (
"482 559 OFFCURVE",
"578 449 OFFCURVE",
"578 273 CURVE SMOOTH",
"578 97 OFFCURVE",
"482 -13 OFFCURVE",
"326 -13 CURVE SMOOTH",
"246 -13 OFFCURVE",
"184 13 OFFCURVE",
"140 64 CURVE SMOOTH",
"95 115 OFFCURVE",
"73 185 OFFCURVE",
"73 273 CURVE SMOOTH",
"73 361 OFFCURVE",
"95 431 OFFCURVE",
"140 482 CURVE SMOOTH",
"184 533 OFFCURVE",
"246 559 OFFCURVE",
"326 559 CURVE SMOOTH"
);
},
{
closed = 1;
nodes = (
"258 783 LINE",
"346 783 LINE",
"481 575 LINE",
"375 575 LINE",
"302 674 LINE",
"290 658 OFFCURVE",
"277 641 OFFCURVE",
"265 624 CURVE SMOOTH",
"253 607 OFFCURVE",
"241 590 OFFCURVE",
"229 575 CURVE",
"123 575 LINE"
);
}
);
width = 651;
}
);
unicode = 00F4;
},
{
glyphname = otilde;
lastChange = "2014-11-05 03:31:33 +0000";
layers = (
{
layerId = "D5D14868-B3D8-4E08-9530-062F6179E82D";
paths = (
{
closed = 1;
nodes = (
"248 461 OFFCURVE",
"198 397 OFFCURVE",
"198 288 CURVE SMOOTH",
"198 182 OFFCURVE",
"242 168 OFFCURVE",
"326 168 CURVE SMOOTH",
"366 168 OFFCURVE",
"399 176 OFFCURVE",
"422 189 CURVE",
"442 203 OFFCURVE",
"453 235 OFFCURVE",
"453 288 CURVE SMOOTH",
"453 397 OFFCURVE",
"402 461 OFFCURVE",
"326 461 CURVE SMOOTH"
);
},
{
closed = 1;
nodes = (
"482 559 OFFCURVE",
"578 449 OFFCURVE",
"578 273 CURVE SMOOTH",
"578 97 OFFCURVE",
"482 -13 OFFCURVE",
"326 -13 CURVE SMOOTH",
"246 -13 OFFCURVE",
"184 13 OFFCURVE",
"140 64 CURVE SMOOTH",
"95 115 OFFCURVE",
"73 185 OFFCURVE",
"73 273 CURVE SMOOTH",
"73 361 OFFCURVE",
"95 431 OFFCURVE",
"140 482 CURVE SMOOTH",
"184 533 OFFCURVE",
"246 559 OFFCURVE",
"326 559 CURVE SMOOTH"
);
},
{
closed = 1;
nodes = (
"278 654 LINE",
"278 654 LINE",
"269 663 OFFCURVE",
"263 667 OFFCURVE",
"260 667 CURVE SMOOTH",
"254 667 OFFCURVE",
"250 662 OFFCURVE",
"248 650 CURVE SMOOTH",
"245 639 OFFCURVE",
"243 622 OFFCURVE",
"243 597 CURVE",
"149 597 LINE",
"151 702 OFFCURVE",
"190 762 OFFCURVE",
"257 762 CURVE SMOOTH",
"286 762 OFFCURVE",
"306 752 OFFCURVE",
"333 729 CURVE SMOOTH",
"359 704 LINE",
"358 704 LINE",
"368 695 OFFCURVE",
"374 691 OFFCURVE",
"377 691 CURVE SMOOTH",
"382 691 OFFCURVE",
"387 696 OFFCURVE",
"389 708 CURVE SMOOTH",
"392 719 OFFCURVE",
"394 737 OFFCURVE",
"394 762 CURVE",
"487 762 LINE",
"485 656 OFFCURVE",
"447 597 OFFCURVE",
"380 597 CURVE SMOOTH",
"351 597 OFFCURVE",
"330 605 OFFCURVE",
"304 629 CURVE"
);
}
);
width = 651;
}
);
unicode = 00F5;
},
{
glyphname = odieresis;
lastChange = "2014-11-05 03:31:33 +0000";
layers = (
{
layerId = "D5D14868-B3D8-4E08-9530-062F6179E82D";
paths = (
{
closed = 1;
nodes = (
"248 461 OFFCURVE",
"198 397 OFFCURVE",
"198 288 CURVE SMOOTH",
"198 182 OFFCURVE",
"242 168 OFFCURVE",
"326 168 CURVE SMOOTH",
"366 168 OFFCURVE",
"399 176 OFFCURVE",
"422 189 CURVE",
"442 203 OFFCURVE",
"453 235 OFFCURVE",
"453 288 CURVE SMOOTH",
"453 397 OFFCURVE",
"402 461 OFFCURVE",
"326 461 CURVE SMOOTH"
);
},
{
closed = 1;
nodes = (
"482 559 OFFCURVE",
"578 449 OFFCURVE",
"578 273 CURVE SMOOTH",
"578 97 OFFCURVE",
"482 -13 OFFCURVE",
"326 -13 CURVE SMOOTH",
"246 -13 OFFCURVE",
"184 13 OFFCURVE",
"140 64 CURVE SMOOTH",
"95 115 OFFCURVE",
"73 185 OFFCURVE",
"73 273 CURVE SMOOTH",
"73 361 OFFCURVE",
"95 431 OFFCURVE",
"140 482 CURVE SMOOTH",
"184 533 OFFCURVE",
"246 559 OFFCURVE",
"326 559 CURVE SMOOTH"
);
},
{
closed = 1;
nodes = (
"389 750 LINE",
"525 750 LINE",
"525 615 LINE",
"389 615 LINE"
);
},
{
closed = 1;
nodes = (
"198 750 LINE",
"334 750 LINE",
"334 615 LINE",
"198 615 LINE"
);
}
);
width = 651;
}
);
unicode = 00F6;
},
{
glyphname = divide;
lastChange = "2014-11-05 03:31:33 +0000";
layers = (
{
layerId = "D5D14868-B3D8-4E08-9530-062F6179E82D";
paths = (
{
closed = 1;
nodes = (
"310 577 LINE",
"481 577 LINE",
"481 405 LINE",
"310 405 LINE"
);
},
{
closed = 1;
nodes = (
"310 194 LINE",
"481 194 LINE",
"481 23 LINE",
"310 23 LINE"
);
},
{
closed = 1;
nodes = (
"73 368 LINE",
"717 368 LINE",
"717 231 LINE",
"73 231 LINE"
);
}
);
width = 790;
}
);
unicode = 00F7;
},
{
glyphname = oslash;
lastChange = "2014-11-05 03:31:33 +0000";
layers = (
{
anchors = (
{
name = top;
position = "{351, 547}";
}
);
layerId = "D5D14868-B3D8-4E08-9530-062F6179E82D";
paths = (
{
closed = 1;
nodes = (
"281 116 LINE",
"301 101 OFFCURVE",
"322 94 OFFCURVE",
"352 94 CURVE SMOOTH",
"428 94 OFFCURVE",
"479 159 OFFCURVE",
"479 273 CURVE SMOOTH",
"479 304 OFFCURVE",
"478 325 OFFCURVE",
"472 346 CURVE"
);
},
{
closed = 1;
nodes = (
"421 430 LINE",
"401 445 OFFCURVE",
"379 452 OFFCURVE",
"352 452 CURVE SMOOTH",
"313 452 OFFCURVE",
"281 435 OFFCURVE",
"259 406 CURVE SMOOTH",
"236 373 OFFCURVE",
"224 327 OFFCURVE",
"224 267 CURVE SMOOTH",
"224 242 OFFCURVE",
"226 218 OFFCURVE",
"230 200 CURVE"
);
},
{
closed = 1;
nodes = (
"144 94 LINE",
"112 143 OFFCURVE",
"99 200 OFFCURVE",
"99 273 CURVE SMOOTH",
"99 449 OFFCURVE",
"194 559 OFFCURVE",
"352 559 CURVE SMOOTH",
"406 559 OFFCURVE",
"453 546 OFFCURVE",
"494 519 CURVE",
"503 531 OFFCURVE",
"515 545 OFFCURVE",
"527 559 CURVE",
"532 566 OFFCURVE",
"538 573 OFFCURVE",
"543 579 CURVE SMOOTH",
"549 585 OFFCURVE",
"554 591 OFFCURVE",
"558 597 CURVE",
"629 537 LINE",
"560 452 LINE",
"589 403 OFFCURVE",
"604 344 OFFCURVE",
"604 273 CURVE SMOOTH",
"604 98 OFFCURVE",
"509 -13 OFFCURVE",
"352 -13 CURVE SMOOTH",
"295 -13 OFFCURVE",
"248 0 OFFCURVE",
"209 27 CURVE",
"204 21 OFFCURVE",
"199 14 OFFCURVE",
"193 8 CURVE SMOOTH",
"182 -6 OFFCURVE",
"170 -20 OFFCURVE",
"160 -33 CURVE SMOOTH",
"154 -39 OFFCURVE",
"149 -45 OFFCURVE",
"145 -50 CURVE",
"73 8 LINE"
);
}
);
width = 702;
}
);
unicode = 00F8;
},
{
glyphname = ugrave;
lastChange = "2014-11-05 03:31:33 +0000";
layers = (
{
layerId = "D5D14868-B3D8-4E08-9530-062F6179E82D";
paths = (
{
closed = 1;
nodes = (
"73 547 LINE",
"180 547 LINE",
"180 297 LINE",
"185 213 OFFCURVE",
"212 169 OFFCURVE",
"274 169 CURVE SMOOTH",
"314 169 OFFCURVE",
"345 181 OFFCURVE",
"366 206 CURVE SMOOTH",
"388 231 OFFCURVE",
"399 269 OFFCURVE",
"403 313 CURVE",
"408 547 LINE",
"542 547 LINE",
"532 0 LINE",
"411 0 LINE",
"413 42 LINE",
"375 5 OFFCURVE",
"328 -13 OFFCURVE",
"271 -13 CURVE SMOOTH",
"141 -13 OFFCURVE",
"73 67 OFFCURVE",
"73 220 CURVE SMOOTH"
);
},
{
closed = 1;
nodes = (
"206 783 LINE",
"362 576 LINE",
"190 576 LINE",
"76 783 LINE"
);
}
);
width = 615;
}
);
unicode = 00F9;
},
{
glyphname = uacute;
lastChange = "2014-11-05 03:31:33 +0000";
layers = (
{
layerId = "D5D14868-B3D8-4E08-9530-062F6179E82D";
paths = (
{
closed = 1;
nodes = (
"73 547 LINE",
"180 547 LINE",
"180 297 LINE",
"185 213 OFFCURVE",
"212 169 OFFCURVE",
"274 169 CURVE SMOOTH",
"314 169 OFFCURVE",
"345 181 OFFCURVE",
"366 206 CURVE SMOOTH",
"388 231 OFFCURVE",
"399 269 OFFCURVE",
"403 313 CURVE",
"408 547 LINE",
"542 547 LINE",
"532 0 LINE",
"411 0 LINE",
"413 42 LINE",
"375 5 OFFCURVE",
"328 -13 OFFCURVE",
"271 -13 CURVE SMOOTH",
"141 -13 OFFCURVE",
"73 67 OFFCURVE",
"73 220 CURVE SMOOTH"
);
},
{
closed = 1;
nodes = (
"376 783 LINE",
"526 783 LINE",
"329 556 LINE",
"207 556 LINE"
);
}
);
width = 615;
}
);
unicode = 00FA;
},
{
glyphname = ucircumflex;
lastChange = "2014-11-05 03:31:33 +0000";
layers = (
{
layerId = "D5D14868-B3D8-4E08-9530-062F6179E82D";
paths = (
{
closed = 1;
nodes = (
"73 547 LINE",
"180 547 LINE",
"180 297 LINE",
"185 213 OFFCURVE",
"212 169 OFFCURVE",
"274 169 CURVE SMOOTH",
"314 169 OFFCURVE",
"345 181 OFFCURVE",
"366 206 CURVE SMOOTH",
"388 231 OFFCURVE",
"399 269 OFFCURVE",
"403 313 CURVE",
"408 547 LINE",
"542 547 LINE",
"532 0 LINE",
"411 0 LINE",
"413 42 LINE",
"375 5 OFFCURVE",
"328 -13 OFFCURVE",
"271 -13 CURVE SMOOTH",
"141 -13 OFFCURVE",
"73 67 OFFCURVE",
"73 220 CURVE SMOOTH"
);
},
{
closed = 1;
nodes = (
"266 783 LINE",
"354 783 LINE",
"489 575 LINE",
"382 575 LINE",
"310 674 LINE",
"297 658 OFFCURVE",
"285 641 OFFCURVE",
"272 624 CURVE SMOOTH",
"260 607 OFFCURVE",
"248 590 OFFCURVE",
"237 575 CURVE",
"130 575 LINE"
);
}
);
width = 615;
}
);
unicode = 00FB;
},
{
glyphname = udieresis;
lastChange = "2014-11-05 03:31:33 +0000";
layers = (
{
layerId = "D5D14868-B3D8-4E08-9530-062F6179E82D";
paths = (
{
closed = 1;
nodes = (
"73 547 LINE",
"180 547 LINE",
"180 297 LINE",
"185 213 OFFCURVE",
"212 169 OFFCURVE",
"274 169 CURVE SMOOTH",
"314 169 OFFCURVE",
"345 181 OFFCURVE",
"366 206 CURVE SMOOTH",
"388 231 OFFCURVE",
"399 269 OFFCURVE",
"403 313 CURVE",
"408 547 LINE",
"542 547 LINE",
"532 0 LINE",
"411 0 LINE",
"413 42 LINE",
"375 5 OFFCURVE",
"328 -13 OFFCURVE",
"271 -13 CURVE SMOOTH",
"141 -13 OFFCURVE",
"73 67 OFFCURVE",
"73 220 CURVE SMOOTH"
);
},
{
closed = 1;
nodes = (
"348 750 LINE",
"483 750 LINE",
"483 615 LINE",
"348 615 LINE"
);
},
{
closed = 1;
nodes = (
"157 750 LINE",
"292 750 LINE",
"292 615 LINE",
"157 615 LINE"
);
}
);
width = 615;
}
);
unicode = 00FC;
},
{
glyphname = yacute;
lastChange = "2014-11-05 03:31:33 +0000";
layers = (
{
layerId = "D5D14868-B3D8-4E08-9530-062F6179E82D";
paths = (
{
closed = 1;
nodes = (
"400 -36 LINE",
"339 -175 OFFCURVE",
"289 -203 OFFCURVE",
"205 -203 CURVE SMOOTH",
"111 -203 LINE",
"111 -56 LINE",
"188 -56 LINE SMOOTH",
"206 -56 OFFCURVE",
"220 -51 OFFCURVE",
"229 -44 CURVE",
"241 -34 OFFCURVE",
"254 -21 OFFCURVE",
"267 -3 CURVE",
"272 8 OFFCURVE",
"278 19 OFFCURVE",
"284 29 CURVE SMOOTH",
"289 39 OFFCURVE",
"294 50 OFFCURVE",
"300 61 CURVE",
"282 100 OFFCURVE",
"263 139 OFFCURVE",
"244 180 CURVE SMOOTH",
"206 262 OFFCURVE",
"167 346 OFFCURVE",
"129 428 CURVE SMOOTH",
"110 469 OFFCURVE",
"91 508 OFFCURVE",
"73 547 CURVE",
"200 547 LINE",
"369 270 LINE",
"498 547 LINE",
"625 547 LINE"
);
},
{
closed = 1;
nodes = (
"443 783 LINE",
"593 783 LINE",
"396 556 LINE",
"274 556 LINE"
);
}
);
width = 698;
}
);
unicode = 00FD;
},
{
glyphname = thorn;
lastChange = "2014-11-05 03:31:33 +0000";
layers = (
{
layerId = "D5D14868-B3D8-4E08-9530-062F6179E82D";
paths = (
{
closed = 1;
nodes = (
"194 -194 LINE",
"73 -194 LINE",
"73 746 LINE",
"194 746 LINE",
"194 505 LINE",
"231 542 OFFCURVE",
"278 559 OFFCURVE",
"339 559 CURVE SMOOTH",
"474 559 OFFCURVE",
"566 442 OFFCURVE",
"566 273 CURVE SMOOTH",
"566 104 OFFCURVE",
"474 -13 OFFCURVE",
"339 -13 CURVE SMOOTH",
"278 -13 OFFCURVE",
"231 3 OFFCURVE",
"194 41 CURVE"
);
},
{
closed = 1;
nodes = (
"443 388 OFFCURVE",
"394 453 OFFCURVE",
"318 453 CURVE SMOOTH",
"281 453 OFFCURVE",
"251 438 OFFCURVE",
"228 407 CURVE",
"229 407 LINE",
"206 375 OFFCURVE",
"194 331 OFFCURVE",
"194 273 CURVE SMOOTH",
"194 215 OFFCURVE",
"206 170 OFFCURVE",
"229 138 CURVE",
"228 139 LINE",
"250 108 OFFCURVE",
"280 93 OFFCURVE",
"318 93 CURVE SMOOTH",
"357 93 OFFCURVE",
"387 108 OFFCURVE",
"408 138 CURVE SMOOTH",
"431 170 OFFCURVE",
"443 215 OFFCURVE",
"443 273 CURVE SMOOTH"
);
}
);
width = 640;
}
);
unicode = 00FE;
},
{
glyphname = ydieresis;
lastChange = "2014-11-05 03:31:33 +0000";
layers = (
{
layerId = "D5D14868-B3D8-4E08-9530-062F6179E82D";
paths = (
{
closed = 1;
nodes = (
"400 -36 LINE",
"339 -175 OFFCURVE",
"289 -203 OFFCURVE",
"205 -203 CURVE SMOOTH",
"111 -203 LINE",
"111 -56 LINE",
"188 -56 LINE SMOOTH",
"206 -56 OFFCURVE",
"220 -51 OFFCURVE",
"229 -44 CURVE",
"241 -34 OFFCURVE",
"254 -21 OFFCURVE",
"267 -3 CURVE",
"272 8 OFFCURVE",
"278 19 OFFCURVE",
"284 29 CURVE SMOOTH",
"289 39 OFFCURVE",
"294 50 OFFCURVE",
"300 61 CURVE",
"282 100 OFFCURVE",
"263 139 OFFCURVE",
"244 180 CURVE SMOOTH",
"206 262 OFFCURVE",
"167 346 OFFCURVE",
"129 428 CURVE SMOOTH",
"110 469 OFFCURVE",
"91 508 OFFCURVE",
"73 547 CURVE",
"200 547 LINE",
"369 270 LINE",
"498 547 LINE",
"625 547 LINE"
);
},
{
closed = 1;
nodes = (
"361 750 LINE",
"497 750 LINE",
"497 615 LINE",
"361 615 LINE"
);
},
{
closed = 1;
nodes = (
"170 750 LINE",
"306 750 LINE",
"306 615 LINE",
"170 615 LINE"
);
}
);
width = 698;
}
);
unicode = 00FF;
},
{
glyphname = Cacute;
lastChange = "2014-11-05 03:31:33 +0000";
layers = (
{
layerId = "D5D14868-B3D8-4E08-9530-062F6179E82D";
paths = (
{
closed = 1;
nodes = (
"668 516 LINE",
"586 591 OFFCURVE",
"511 627 OFFCURVE",
"435 627 CURVE SMOOTH",
"288 627 OFFCURVE",
"209 536 OFFCURVE",
"209 364 CURVE SMOOTH",
"211 215 OFFCURVE",
"284 166 OFFCURVE",
"435 166 CURVE SMOOTH",
"511 166 OFFCURVE",
"586 202 OFFCURVE",
"668 277 CURVE",
"668 62 LINE",
"594 12 OFFCURVE",
"516 -14 OFFCURVE",
"430 -14 CURVE SMOOTH",
"209 -14 OFFCURVE",
"73 132 OFFCURVE",
"73 364 CURVE SMOOTH",
"73 595 OFFCURVE",
"209 742 OFFCURVE",
"430 742 CURVE SMOOTH",
"515 742 OFFCURVE",
"595 717 OFFCURVE",
"668 667 CURVE"
);
},
{
closed = 1;
nodes = (
"475 914 LINE",
"608 914 LINE",
"473 757 LINE",
"358 757 LINE"
);
}
);
width = 741;
}
);
unicode = 0106;
},
{
glyphname = cacute;
lastChange = "2014-11-05 03:31:33 +0000";
layers = (
{
layerId = "D5D14868-B3D8-4E08-9530-062F6179E82D";
paths = (
{
closed = 1;
nodes = (
"514 405 LINE",
"452 439 OFFCURVE",
"397 456 OFFCURVE",
"352 456 CURVE SMOOTH",
"254 456 OFFCURVE",
"204 388 OFFCURVE",
"203 275 CURVE",
"207 238 OFFCURVE",
"220 209 OFFCURVE",
"239 195 CURVE",
"261 181 OFFCURVE",
"304 171 OFFCURVE",
"349 167 CURVE",
"421 167 LINE SMOOTH",
"442 168 OFFCURVE",
"472 178 OFFCURVE",
"511 201 CURVE",
"514 26 LINE",
"457 0 OFFCURVE",
"402 -13 OFFCURVE",
"343 -13 CURVE SMOOTH",
"179 -13 OFFCURVE",
"73 101 OFFCURVE",
"73 273 CURVE SMOOTH",
"73 449 OFFCURVE",
"178 559 OFFCURVE",
"348 559 CURVE SMOOTH",
"402 559 OFFCURVE",
"457 546 OFFCURVE",
"514 521 CURVE"
);
},
{
closed = 1;
nodes = (
"395 783 LINE",
"544 783 LINE",
"347 556 LINE",
"225 556 LINE"
);
}
);
width = 617;
}
);
unicode = 0107;
},
{
glyphname = Ccaron;
lastChange = "2014-11-05 03:31:33 +0000";
layers = (
{
layerId = "D5D14868-B3D8-4E08-9530-062F6179E82D";
paths = (
{
closed = 1;
nodes = (
"668 516 LINE",
"586 591 OFFCURVE",
"511 627 OFFCURVE",
"435 627 CURVE SMOOTH",
"288 627 OFFCURVE",
"209 536 OFFCURVE",
"209 364 CURVE SMOOTH",
"211 215 OFFCURVE",
"284 166 OFFCURVE",
"435 166 CURVE SMOOTH",
"511 166 OFFCURVE",
"586 202 OFFCURVE",
"668 277 CURVE",
"668 62 LINE",
"594 12 OFFCURVE",
"516 -14 OFFCURVE",
"430 -14 CURVE SMOOTH",
"209 -14 OFFCURVE",
"73 132 OFFCURVE",
"73 364 CURVE SMOOTH",
"73 595 OFFCURVE",
"209 742 OFFCURVE",
"430 742 CURVE SMOOTH",
"515 742 OFFCURVE",
"595 717 OFFCURVE",
"668 667 CURVE"
);
},
{
closed = 1;
nodes = (
"305 757 LINE",
"180 915 LINE",
"289 915 LINE",
"357 842 LINE",
"369 854 OFFCURVE",
"380 866 OFFCURVE",
"392 879 CURVE SMOOTH",
"403 892 OFFCURVE",
"415 904 OFFCURVE",
"425 915 CURVE",
"534 915 LINE",
"408 757 LINE"
);
}
);
width = 741;
}
);
unicode = 010C;
},
{
glyphname = ccaron;
lastChange = "2014-11-05 03:31:33 +0000";
layers = (
{
layerId = "D5D14868-B3D8-4E08-9530-062F6179E82D";
paths = (
{
closed = 1;
nodes = (
"514 405 LINE",
"452 439 OFFCURVE",
"397 456 OFFCURVE",
"352 456 CURVE SMOOTH",
"254 456 OFFCURVE",
"204 388 OFFCURVE",
"203 275 CURVE",
"207 238 OFFCURVE",
"220 209 OFFCURVE",
"239 195 CURVE",
"261 181 OFFCURVE",
"304 171 OFFCURVE",
"349 167 CURVE",
"421 167 LINE SMOOTH",
"442 168 OFFCURVE",
"472 178 OFFCURVE",
"511 201 CURVE",
"514 26 LINE",
"457 0 OFFCURVE",
"402 -13 OFFCURVE",
"343 -13 CURVE SMOOTH",
"179 -13 OFFCURVE",
"73 101 OFFCURVE",
"73 273 CURVE SMOOTH",
"73 449 OFFCURVE",
"178 559 OFFCURVE",
"348 559 CURVE SMOOTH",
"402 559 OFFCURVE",
"457 546 OFFCURVE",
"514 521 CURVE"
);
},
{
closed = 1;
nodes = (
"233 575 LINE",
"98 783 LINE",
"205 783 LINE",
"277 684 LINE",
"301 717 OFFCURVE",
"327 752 OFFCURVE",
"350 783 CURVE",
"457 783 LINE",
"321 575 LINE"
);
}
);
width = 587;
}
);
unicode = 010D;
},
{
glyphname = dcroat;
lastChange = "2014-11-05 03:31:33 +0000";
layers = (
{
layerId = "D5D14868-B3D8-4E08-9530-062F6179E82D";
paths = (
{
closed = 1;
nodes = (
"446 585 LINE",
"297 585 LINE",
"297 679 LINE",
"446 679 LINE",
"446 746 LINE",
"566 746 LINE",
"566 679 LINE",
"636 679 LINE",
"636 585 LINE",
"566 585 LINE",
"566 0 LINE",
"446 0 LINE",
"446 41 LINE",
"409 3 OFFCURVE",
"361 -13 OFFCURVE",
"300 -13 CURVE SMOOTH",
"165 -13 OFFCURVE",
"73 104 OFFCURVE",
"73 273 CURVE SMOOTH",
"73 442 OFFCURVE",
"165 559 OFFCURVE",
"300 559 CURVE SMOOTH",
"361 559 OFFCURVE",
"409 542 OFFCURVE",
"446 505 CURVE"
);
},
{
closed = 1;
nodes = (
"196 242 OFFCURVE",
"208 202 OFFCURVE",
"230 173 CURVE",
"252 147 OFFCURVE",
"283 133 OFFCURVE",
"321 133 CURVE SMOOTH",
"397 133 OFFCURVE",
"446 191 OFFCURVE",
"446 292 CURVE SMOOTH",
"446 396 OFFCURVE",
"397 453 OFFCURVE",
"321 453 CURVE SMOOTH",
"283 453 OFFCURVE",
"252 438 OFFCURVE",
"230 412 CURVE",
"208 383 OFFCURVE",
"196 343 OFFCURVE",
"196 292 CURVE SMOOTH"
);
}
);
width = 709;
}
);
unicode = 0111;
},
{
glyphname = Gbreve;
lastChange = "2014-11-05 03:31:33 +0000";
layers = (
{
layerId = "D5D14868-B3D8-4E08-9530-062F6179E82D";
paths = (
{
closed = 1;
nodes = (
"571 248 LINE",
"423 248 LINE",
"423 385 LINE",
"715 385 LINE",
"715 73 LINE",
"633 15 OFFCURVE",
"541 -14 OFFCURVE",
"437 -14 CURVE SMOOTH",
"324 -14 OFFCURVE",
"234 20 OFFCURVE",
"169 86 CURVE SMOOTH",
"105 154 OFFCURVE",
"73 247 OFFCURVE",
"73 364 CURVE SMOOTH",
"73 600 OFFCURVE",
"210 742 OFFCURVE",
"437 742 CURVE SMOOTH",
"531 742 OFFCURVE",
"619 716 OFFCURVE",
"697 667 CURVE",
"697 527 LINE",
"611 600 OFFCURVE",
"527 637 OFFCURVE",
"445 637 CURVE SMOOTH",
"288 637 OFFCURVE",
"209 549 OFFCURVE",
"209 374 CURVE",
"213 297 OFFCURVE",
"232 242 OFFCURVE",
"268 215 CURVE",
"267 215 LINE",
"305 188 OFFCURVE",
"364 175 OFFCURVE",
"445 175 CURVE SMOOTH",
"478 175 OFFCURVE",
"505 177 OFFCURVE",
"530 183 CURVE",
"529 183 LINE",
"547 187 OFFCURVE",
"561 192 OFFCURVE",
"571 200 CURVE"
);
},
{
closed = 1;
nodes = (
"297 915 LINE",
"305 882 OFFCURVE",
"331 864 OFFCURVE",
"372 864 CURVE SMOOTH",
"412 864 OFFCURVE",
"437 881 OFFCURVE",
"446 915 CURVE",
"534 915 LINE",
"526 818 OFFCURVE",
"471 768 OFFCURVE",
"372 768 CURVE SMOOTH",
"272 768 OFFCURVE",
"217 817 OFFCURVE",
"209 915 CURVE"
);
}
);
width = 788;
}
);
unicode = 011E;
},
{
glyphname = gbreve;
lastChange = "2014-11-05 03:31:33 +0000";
layers = (
{
layerId = "D5D14868-B3D8-4E08-9530-062F6179E82D";
paths = (
{
closed = 1;
nodes = (
"409 339 OFFCURVE",
"397 383 OFFCURVE",
"376 413 CURVE SMOOTH",
"355 442 OFFCURVE",
"324 458 OFFCURVE",
"284 458 CURVE SMOOTH",
"207 458 OFFCURVE",
"179 403 OFFCURVE",
"168 360 CURVE SMOOTH",
"163 338 OFFCURVE",
"160 314 OFFCURVE",
"160 286 CURVE",
"165 233 OFFCURVE",
"176 200 OFFCURVE",
"190 188 CURVE",
"207 178 OFFCURVE",
"237 172 OFFCURVE",
"278 172 CURVE SMOOTH",
"362 172 OFFCURVE",
"409 179 OFFCURVE",
"409 284 CURVE SMOOTH"
);
},
{
closed = 1;
nodes = (
"561 81 LINE SMOOTH",
"557 -28 OFFCURVE",
"535 -112 OFFCURVE",
"494 -156 CURVE SMOOTH",
"452 -203 OFFCURVE",
"388 -226 OFFCURVE",
"303 -226 CURVE SMOOTH",
"242 -226 OFFCURVE",
"185 -215 OFFCURVE",
"125 -194 CURVE",
"125 -1 LINE",
"190 -37 OFFCURVE",
"243 -52 OFFCURVE",
"290 -52 CURVE SMOOTH",
"338 -52 OFFCURVE",
"375 -38 OFFCURVE",
"397 -13 CURVE SMOOTH",
"413 5 OFFCURVE",
"423 23 OFFCURVE",
"432 41 CURVE",
"424 36 OFFCURVE",
"416 30 OFFCURVE",
"406 24 CURVE SMOOTH",
"376 8 OFFCURVE",
"341 0 OFFCURVE",
"300 0 CURVE SMOOTH",
"163 0 OFFCURVE",
"73 114 OFFCURVE",
"73 279 CURVE SMOOTH",
"73 445 OFFCURVE",
"163 559 OFFCURVE",
"300 559 CURVE SMOOTH",
"365 559 OFFCURVE",
"414 541 OFFCURVE",
"451 500 CURVE",
"452 508 OFFCURVE",
"453 517 OFFCURVE",
"454 525 CURVE",
"455 533 OFFCURVE",
"456 541 OFFCURVE",
"456 547 CURVE",
"575 547 LINE"
);
},
{
closed = 1;
nodes = (
"222 769 LINE",
"229 724 OFFCURVE",
"253 701 OFFCURVE",
"294 701 CURVE SMOOTH",
"337 701 OFFCURVE",
"360 723 OFFCURVE",
"368 769 CURVE",
"457 769 LINE",
"449 658 OFFCURVE",
"394 602 OFFCURVE",
"294 602 CURVE SMOOTH",
"194 602 OFFCURVE",
"140 658 OFFCURVE",
"132 769 CURVE"
);
}
);
width = 648;
}
);
unicode = 011F;
},
{
glyphname = Idotaccent;
lastChange = "2014-11-05 03:31:33 +0000";
layers = (
{
layerId = "D5D14868-B3D8-4E08-9530-062F6179E82D";
paths = (
{
closed = 1;
nodes = (
"98 729 LINE",
"223 729 LINE",
"232 0 LINE",
"83 0 LINE"
);
},
{
closed = 1;
nodes = (
"73 902 LINE",
"203 902 LINE",
"203 772 LINE",
"73 772 LINE"
);
}
);
width = 306;
}
);
unicode = 0130;
},
{
glyphname = dotlessi;
lastChange = "2014-11-05 03:31:33 +0000";
layers = (
{
anchors = (
{
name = ogonek;
position = "{133, 0}";
},
{
name = top;
position = "{132, 547}";
}
);
layerId = "D5D14868-B3D8-4E08-9530-062F6179E82D";
paths = (
{
closed = 1;
nodes = (
"73 547 LINE",
"194 547 LINE",
"194 0 LINE",
"73 0 LINE"
);
}
);
width = 267;
}
);
unicode = 0131;
},
{
glyphname = Lslash;
lastChange = "2014-11-05 03:31:33 +0000";
layers = (
{
layerId = "D5D14868-B3D8-4E08-9530-062F6179E82D";
paths = (
{
closed = 1;
nodes = (
"185 729 LINE",
"316 729 LINE",
"316 460 LINE",
"447 552 LINE",
"505 470 LINE",
"316 338 LINE",
"316 116 LINE",
"653 116 LINE",
"653 0 LINE",
"185 0 LINE",
"185 247 LINE",
"130 208 LINE",
"73 290 LINE",
"185 368 LINE"
);
}
);
width = 726;
}
);
unicode = 0141;
},
{
glyphname = lslash;
lastChange = "2014-11-05 03:31:33 +0000";
layers = (
{
layerId = "D5D14868-B3D8-4E08-9530-062F6179E82D";
paths = (
{
closed = 1;
nodes = (
"170 746 LINE",
"291 746 LINE",
"291 489 LINE",
"333 520 LINE",
"389 441 LINE",
"291 372 LINE",
"291 0 LINE",
"170 0 LINE",
"170 287 LINE",
"127 256 LINE",
"73 334 LINE",
"170 403 LINE"
);
}
);
width = 462;
}
);
unicode = 0142;
},
{
glyphname = OE;
lastChange = "2014-11-05 03:31:33 +0000";
layers = (
{
anchors = (
{
name = top;
position = "{561, 729}";
}
);
layerId = "D5D14868-B3D8-4E08-9530-062F6179E82D";
paths = (
{
closed = 1;
nodes = (
"1003 729 LINE",
"1003 632 LINE",
"659 632 LINE",
"659 478 LINE",
"998 478 LINE",
"998 362 LINE",
"659 362 LINE",
"659 167 LINE",
"1012 167 LINE",
"1012 0 LINE",
"500 0 LINE SMOOTH",
"220 0 OFFCURVE",
"73 125 OFFCURVE",
"73 365 CURVE SMOOTH",
"73 484 OFFCURVE",
"110 575 OFFCURVE",
"182 636 CURVE SMOOTH",
"253 697 OFFCURVE",
"359 729 OFFCURVE",
"500 729 CURVE SMOOTH"
);
},
{
closed = 1;
nodes = (
"529 632 LINE",
"487 632 LINE SMOOTH",
"300 632 OFFCURVE",
"209 557 OFFCURVE",
"209 365 CURVE SMOOTH",
"209 316 OFFCURVE",
"234 270 OFFCURVE",
"277 229 CURVE",
"324 188 OFFCURVE",
"394 167 OFFCURVE",
"487 167 CURVE SMOOTH",
"529 167 LINE"
);
}
);
width = 1085;
}
);
unicode = 0152;
},
{
glyphname = oe;
lastChange = "2014-11-05 03:31:33 +0000";
layers = (
{
anchors = (
{
name = top;
position = "{518, 547}";
}
);
layerId = "D5D14868-B3D8-4E08-9530-062F6179E82D";
paths = (
{
closed = 1;
nodes = (
"837 401 LINE",
"832 413 OFFCURVE",
"824 424 OFFCURVE",
"810 439 CURVE SMOOTH",
"788 463 OFFCURVE",
"759 475 OFFCURVE",
"723 475 CURVE SMOOTH",
"682 475 OFFCURVE",
"648 463 OFFCURVE",
"624 440 CURVE",
"624 440 LINE",
"609 426 OFFCURVE",
"598 413 OFFCURVE",
"590 400 CURVE"
);
},
{
closed = 1;
nodes = (
"964 304 LINE",
"579 304 LINE",
"582 260 OFFCURVE",
"586 226 OFFCURVE",
"593 201 CURVE SMOOTH",
"601 175 OFFCURVE",
"610 158 OFFCURVE",
"623 150 CURVE",
"622 150 LINE",
"650 131 OFFCURVE",
"690 122 OFFCURVE",
"742 122 CURVE SMOOTH",
"802 122 OFFCURVE",
"870 142 OFFCURVE",
"944 181 CURVE",
"944 32 LINE",
"874 2 OFFCURVE",
"804 -13 OFFCURVE",
"737 -13 CURVE SMOOTH",
"644 -13 OFFCURVE",
"571 17 OFFCURVE",
"519 75 CURVE",
"495 43 OFFCURVE",
"469 21 OFFCURVE",
"438 7 CURVE SMOOTH",
"406 -7 OFFCURVE",
"369 -13 OFFCURVE",
"326 -13 CURVE SMOOTH",
"247 -13 OFFCURVE",
"185 12 OFFCURVE",
"140 64 CURVE SMOOTH",
"95 115 OFFCURVE",
"73 185 OFFCURVE",
"73 273 CURVE SMOOTH",
"73 449 OFFCURVE",
"168 559 OFFCURVE",
"326 559 CURVE SMOOTH",
"409 559 OFFCURVE",
"474 530 OFFCURVE",
"517 472 CURVE",
"568 533 OFFCURVE",
"636 559 OFFCURVE",
"722 559 CURVE SMOOTH",
"871 559 OFFCURVE",
"964 433 OFFCURVE",
"964 363 CURVE SMOOTH"
);
},
{
closed = 1;
nodes = (
"247 465 OFFCURVE",
"198 405 OFFCURVE",
"198 302 CURVE SMOOTH",
"198 197 OFFCURVE",
"247 139 OFFCURVE",
"326 139 CURVE SMOOTH",
"404 139 OFFCURVE",
"453 199 OFFCURVE",
"453 302 CURVE SMOOTH",
"453 403 OFFCURVE",
"404 465 OFFCURVE",
"326 465 CURVE SMOOTH"
);
}
);
width = 1037;
}
);
unicode = 0153;
},
{
glyphname = Scedilla;
lastChange = "2014-11-05 03:31:33 +0000";
layers = (
{
layerId = "D5D14868-B3D8-4E08-9530-062F6179E82D";
paths = (
{
closed = 1;
nodes = (
"556 567 LINE",
"468 608 OFFCURVE",
"401 628 OFFCURVE",
"345 628 CURVE SMOOTH",
"255 628 OFFCURVE",
"204 594 OFFCURVE",
"204 533 CURVE SMOOTH",
"204 508 OFFCURVE",
"211 489 OFFCURVE",
"225 478 CURVE",
"225 478 LINE",
"241 464 OFFCURVE",
"273 453 OFFCURVE",
"321 444 CURVE SMOOTH",
"378 433 LINE",
"377 433 LINE",
"527 404 OFFCURVE",
"597 333 OFFCURVE",
"597 209 CURVE SMOOTH",
"597 63 OFFCURVE",
"500 -14 OFFCURVE",
"313 -14 CURVE SMOOTH",
"246 -14 OFFCURVE",
"165 3 OFFCURVE",
"76 36 CURVE",
"76 229 LINE",
"168 177 OFFCURVE",
"246 150 OFFCURVE",
"313 150 CURVE SMOOTH",
"363 150 OFFCURVE",
"400 160 OFFCURVE",
"427 179 CURVE SMOOTH",
"451 196 OFFCURVE",
"462 211 OFFCURVE",
"462 226 CURVE SMOOTH",
"462 239 OFFCURVE",
"453 253 OFFCURVE",
"437 269 CURVE",
"419 284 OFFCURVE",
"384 298 OFFCURVE",
"343 307 CURVE SMOOTH",
"286 318 LINE SMOOTH",
"139 346 OFFCURVE",
"73 410 OFFCURVE",
"73 525 CURVE SMOOTH",
"73 660 OFFCURVE",
"175 742 OFFCURVE",
"334 742 CURVE SMOOTH",
"401 742 OFFCURVE",
"475 728 OFFCURVE",
"556 701 CURVE"
);
},
{
closed = 1;
nodes = (
"251 37 LINE",
"292 -10 OFFCURVE",
"311 -45 OFFCURVE",
"311 -80 CURVE SMOOTH",
"311 -146 OFFCURVE",
"268 -180 OFFCURVE",
"184 -180 CURVE SMOOTH",
"154 -180 OFFCURVE",
"123 -175 OFFCURVE",
"86 -165 CURVE",
"86 -61 LINE",
"123 -80 OFFCURVE",
"149 -87 OFFCURVE",
"175 -87 CURVE SMOOTH",
"199 -87 OFFCURVE",
"211 -79 OFFCURVE",
"211 -63 CURVE SMOOTH",
"211 -56 OFFCURVE",
"206 -43 OFFCURVE",
"197 -27 CURVE SMOOTH",
"187 -11 OFFCURVE",
"172 10 OFFCURVE",
"153 37 CURVE"
);
}
);
width = 670;
}
);
unicode = 015E;
},
{
glyphname = scedilla;
lastChange = "2014-11-05 03:31:33 +0000";
layers = (
{
layerId = "D5D14868-B3D8-4E08-9530-062F6179E82D";
paths = (
{
closed = 1;
nodes = (
"518 414 LINE",
"455 445 OFFCURVE",
"397 461 OFFCURVE",
"346 461 CURVE SMOOTH",
"274 461 OFFCURVE",
"235 438 OFFCURVE",
"235 399 CURVE SMOOTH",
"235 383 OFFCURVE",
"241 370 OFFCURVE",
"253 360 CURVE",
"252 360 LINE",
"266 350 OFFCURVE",
"296 339 OFFCURVE",
"337 330 CURVE SMOOTH",
"342 329 OFFCURVE",
"347 328 OFFCURVE",
"352 327 CURVE SMOOTH",
"356 325 OFFCURVE",
"361 324 OFFCURVE",
"365 324 CURVE",
"428 311 OFFCURVE",
"474 291 OFFCURVE",
"501 268 CURVE SMOOTH",
"529 243 OFFCURVE",
"545 206 OFFCURVE",
"545 159 CURVE SMOOTH",
"545 52 OFFCURVE",
"455 -13 OFFCURVE",
"316 -13 CURVE SMOOTH",
"260 -13 OFFCURVE",
"194 -1 OFFCURVE",
"118 24 CURVE",
"118 190 LINE",
"195 150 OFFCURVE",
"262 130 OFFCURVE",
"317 130 CURVE SMOOTH",
"350 130 OFFCURVE",
"374 134 OFFCURVE",
"389 142 CURVE SMOOTH",
"404 149 OFFCURVE",
"413 161 OFFCURVE",
"413 176 CURVE",
"405 189 OFFCURVE",
"399 200 OFFCURVE",
"392 208 CURVE SMOOTH",
"386 213 OFFCURVE",
"360 221 OFFCURVE",
"313 231 CURVE SMOOTH",
"283 238 LINE",
"284 238 LINE",
"174 260 OFFCURVE",
"122 300 OFFCURVE",
"122 391 CURVE SMOOTH",
"122 500 OFFCURVE",
"198 559 OFFCURVE",
"336 559 CURVE SMOOTH",
"401 559 OFFCURVE",
"461 549 OFFCURVE",
"518 526 CURVE"
);
},
{
closed = 1;
nodes = (
"239 37 LINE",
"279 -10 OFFCURVE",
"298 -45 OFFCURVE",
"298 -80 CURVE SMOOTH",
"298 -146 OFFCURVE",
"255 -180 OFFCURVE",
"171 -180 CURVE SMOOTH",
"142 -180 OFFCURVE",
"110 -175 OFFCURVE",
"73 -165 CURVE",
"73 -61 LINE",
"110 -80 OFFCURVE",
"137 -87 OFFCURVE",
"162 -87 CURVE SMOOTH",
"186 -87 OFFCURVE",
"198 -79 OFFCURVE",
"198 -63 CURVE SMOOTH",
"198 -56 OFFCURVE",
"193 -43 OFFCURVE",
"184 -27 CURVE SMOOTH",
"174 -11 OFFCURVE",
"160 10 OFFCURVE",
"140 37 CURVE"
);
}
);
width = 618;
}
);
unicode = 015F;
},
{
glyphname = Scaron;
lastChange = "2014-11-05 03:31:33 +0000";
layers = (
{
layerId = "D5D14868-B3D8-4E08-9530-062F6179E82D";
paths = (
{
closed = 1;
nodes = (
"563 567 LINE",
"476 608 OFFCURVE",
"409 628 OFFCURVE",
"353 628 CURVE SMOOTH",
"262 628 OFFCURVE",
"211 594 OFFCURVE",
"211 533 CURVE SMOOTH",
"211 508 OFFCURVE",
"218 489 OFFCURVE",
"232 478 CURVE",
"232 478 LINE",
"249 464 OFFCURVE",
"281 453 OFFCURVE",
"328 444 CURVE SMOOTH",
"385 433 LINE",
"385 433 LINE",
"535 404 OFFCURVE",
"604 333 OFFCURVE",
"604 209 CURVE SMOOTH",
"604 63 OFFCURVE",
"507 -14 OFFCURVE",
"321 -14 CURVE SMOOTH",
"253 -14 OFFCURVE",
"172 3 OFFCURVE",
"83 36 CURVE",
"83 229 LINE",
"175 177 OFFCURVE",
"253 150 OFFCURVE",
"321 150 CURVE SMOOTH",
"370 150 OFFCURVE",
"408 160 OFFCURVE",
"434 179 CURVE SMOOTH",
"458 196 OFFCURVE",
"470 211 OFFCURVE",
"470 226 CURVE SMOOTH",
"470 239 OFFCURVE",
"460 253 OFFCURVE",
"444 269 CURVE",
"427 284 OFFCURVE",
"391 298 OFFCURVE",
"351 307 CURVE SMOOTH",
"293 318 LINE SMOOTH",
"146 346 OFFCURVE",
"81 410 OFFCURVE",
"81 525 CURVE SMOOTH",
"81 660 OFFCURVE",
"182 742 OFFCURVE",
"342 742 CURVE SMOOTH",
"408 742 OFFCURVE",
"482 728 OFFCURVE",
"563 701 CURVE"
);
},
{
closed = 1;
nodes = (
"198 757 LINE",
"73 915 LINE",
"182 915 LINE",
"250 842 LINE",
"262 854 OFFCURVE",
"273 866 OFFCURVE",
"285 879 CURVE SMOOTH",
"296 892 OFFCURVE",
"308 904 OFFCURVE",
"318 915 CURVE",
"427 915 LINE",
"301 757 LINE"
);
}
);
width = 678;
}
);
unicode = 0160;
},
{
glyphname = scaron;
lastChange = "2014-11-05 03:31:33 +0000";
layers = (
{
layerId = "D5D14868-B3D8-4E08-9530-062F6179E82D";
paths = (
{
closed = 1;
nodes = (
"542 414 LINE",
"479 445 OFFCURVE",
"422 461 OFFCURVE",
"371 461 CURVE SMOOTH",
"299 461 OFFCURVE",
"259 438 OFFCURVE",
"259 399 CURVE SMOOTH",
"259 383 OFFCURVE",
"265 370 OFFCURVE",
"277 360 CURVE",
"277 360 LINE",
"291 350 OFFCURVE",
"321 339 OFFCURVE",
"362 330 CURVE SMOOTH",
"366 329 OFFCURVE",
"371 328 OFFCURVE",
"376 327 CURVE SMOOTH",
"380 325 OFFCURVE",
"385 324 OFFCURVE",
"390 324 CURVE",
"452 311 OFFCURVE",
"498 291 OFFCURVE",
"525 268 CURVE SMOOTH",
"553 243 OFFCURVE",
"569 206 OFFCURVE",
"569 159 CURVE SMOOTH",
"569 52 OFFCURVE",
"479 -13 OFFCURVE",
"340 -13 CURVE SMOOTH",
"284 -13 OFFCURVE",
"218 -1 OFFCURVE",
"143 24 CURVE",
"143 190 LINE",
"220 150 OFFCURVE",
"286 130 OFFCURVE",
"342 130 CURVE SMOOTH",
"375 130 OFFCURVE",
"398 134 OFFCURVE",
"414 142 CURVE SMOOTH",
"429 149 OFFCURVE",
"437 161 OFFCURVE",
"438 176 CURVE",
"430 189 OFFCURVE",
"423 200 OFFCURVE",
"416 208 CURVE SMOOTH",
"411 213 OFFCURVE",
"384 221 OFFCURVE",
"337 231 CURVE SMOOTH",
"308 238 LINE",
"308 238 LINE",
"199 260 OFFCURVE",
"146 300 OFFCURVE",
"146 391 CURVE SMOOTH",
"146 500 OFFCURVE",
"223 559 OFFCURVE",
"361 559 CURVE SMOOTH",
"425 559 OFFCURVE",
"485 549 OFFCURVE",
"542 526 CURVE"
);
},
{
closed = 1;
nodes = (
"257 575 LINE",
"122 783 LINE",
"229 783 LINE",
"301 684 LINE",
"325 717 OFFCURVE",
"351 752 OFFCURVE",
"374 783 CURVE",
"480 783 LINE",
"345 575 LINE"
);
}
);
width = 643;
}
);
unicode = 0161;
},
{
glyphname = Ydieresis;
lastChange = "2014-11-05 03:31:33 +0000";
layers = (
{
layerId = "D5D14868-B3D8-4E08-9530-062F6179E82D";
paths = (
{
closed = 1;
nodes = (
"73 729 LINE",
"215 729 LINE",
"396 395 LINE",
"575 729 LINE",
"717 729 LINE",
"475 250 LINE",
"475 0 LINE",
"311 0 LINE",
"311 250 LINE"
);
},
{
closed = 1;
nodes = (
"441 901 LINE",
"570 901 LINE",
"570 772 LINE",
"441 772 LINE"
);
},
{
closed = 1;
nodes = (
"263 901 LINE",
"393 901 LINE",
"393 772 LINE",
"263 772 LINE"
);
}
);
width = 791;
}
);
unicode = 0178;
},
{
glyphname = zcaron;
lastChange = "2014-11-05 03:31:33 +0000";
layers = (
{
layerId = "D5D14868-B3D8-4E08-9530-062F6179E82D";
paths = (
{
closed = 1;
nodes = (
"187 547 LINE",
"617 547 LINE",
"617 445 LINE",
"352 149 LINE",
"612 149 LINE",
"612 0 LINE",
"167 0 LINE",
"167 147 LINE",
"466 448 LINE",
"187 448 LINE"
);
},
{
closed = 1;
nodes = (
"355 575 LINE",
"220 783 LINE",
"326 783 LINE",
"399 684 LINE",
"423 717 OFFCURVE",
"449 752 OFFCURVE",
"472 783 CURVE",
"578 783 LINE",
"443 575 LINE"
);
}
);
width = 690;
}
);
unicode = 017E;
},
{
glyphname = florin;
lastChange = "2014-11-05 03:31:33 +0000";
layers = (
{
layerId = "D5D14868-B3D8-4E08-9530-062F6179E82D";
paths = (
{
closed = 1;
nodes = (
"682 608 LINE",
"642 640 OFFCURVE",
"613 653 OFFCURVE",
"590 653 CURVE SMOOTH",
"543 653 OFFCURVE",
"514 619 OFFCURVE",
"500 552 CURVE SMOOTH",
"478 424 LINE",
"488 425 OFFCURVE",
"499 426 OFFCURVE",
"510 427 CURVE",
"521 427 OFFCURVE",
"532 428 OFFCURVE",
"543 429 CURVE",
"554 430 OFFCURVE",
"565 431 OFFCURVE",
"575 432 CURVE",
"585 432 OFFCURVE",
"595 433 OFFCURVE",
"604 434 CURVE",
"604 332 LINE",
"458 322 LINE",
"430 116 LINE SMOOTH",
"414 6 OFFCURVE",
"385 -79 OFFCURVE",
"344 -124 CURVE",
"344 -124 LINE",
"301 -171 OFFCURVE",
"249 -194 OFFCURVE",
"187 -194 CURVE SMOOTH",
"149 -194 OFFCURVE",
"114 -186 OFFCURVE",
"73 -167 CURVE",
"108 18 LINE",
"152 -10 OFFCURVE",
"186 -24 OFFCURVE",
"210 -24 CURVE SMOOTH",
"234 -24 OFFCURVE",
"252 -16 OFFCURVE",
"265 0 CURVE",
"280 20 OFFCURVE",
"292 53 OFFCURVE",
"302 99 CURVE",
"301 99 LINE",
"307 139 OFFCURVE",
"312 174 OFFCURVE",
"317 209 CURVE SMOOTH",
"323 244 OFFCURVE",
"328 279 OFFCURVE",
"333 319 CURVE",
"224 311 LINE",
"224 413 LINE",
"354 422 LINE",
"380 559 LINE SMOOTH",
"403 680 OFFCURVE",
"471 746 OFFCURVE",
"573 746 CURVE SMOOTH",
"608 746 OFFCURVE",
"645 738 OFFCURVE",
"682 723 CURVE"
);
}
);
width = 755;
}
);
unicode = 0192;
},
{
glyphname = circumflex;
lastChange = "2014-11-05 03:31:33 +0000";
layers = (
{
anchors = (
{
name = _top;
position = "{252, 547}";
}
);
layerId = "D5D14868-B3D8-4E08-9530-062F6179E82D";
paths = (
{
closed = 1;
nodes = (
"208 783 LINE",
"296 783 LINE",
"432 575 LINE",
"325 575 LINE",
"252 674 LINE",
"240 658 OFFCURVE",
"228 641 OFFCURVE",
"215 624 CURVE SMOOTH",
"203 607 OFFCURVE",
"191 590 OFFCURVE",
"180 575 CURVE",
"73 575 LINE"
);
}
);
width = 505;
}
);
unicode = 02C6;
},
{
glyphname = caron;
lastChange = "2014-11-05 03:31:33 +0000";
layers = (
{
anchors = (
{
name = _top;
position = "{252, 547}";
}
);
layerId = "D5D14868-B3D8-4E08-9530-062F6179E82D";
paths = (
{
closed = 1;
nodes = (
"208 575 LINE",
"73 783 LINE",
"180 783 LINE",
"252 684 LINE",
"276 717 OFFCURVE",
"302 752 OFFCURVE",
"325 783 CURVE",
"432 783 LINE",
"296 575 LINE"
);
}
);
width = 505;
}
);
unicode = 02C7;
},
{
glyphname = breve;
lastChange = "2014-11-05 03:31:33 +0000";
layers = (
{
anchors = (
{
name = _top;
position = "{235, 571}";
}
);
layerId = "D5D14868-B3D8-4E08-9530-062F6179E82D";
paths = (
{
closed = 1;
nodes = (
"163 769 LINE",
"169 724 OFFCURVE",
"194 701 OFFCURVE",
"235 701 CURVE SMOOTH",
"278 701 OFFCURVE",
"301 723 OFFCURVE",
"309 769 CURVE",
"397 769 LINE",
"390 658 OFFCURVE",
"335 602 OFFCURVE",
"235 602 CURVE SMOOTH",
"135 602 OFFCURVE",
"81 658 OFFCURVE",
"73 769 CURVE"
);
}
);
width = 471;
}
);
unicode = 02D8;
},
{
glyphname = dotaccent;
lastChange = "2014-11-05 03:31:33 +0000";
layers = (
{
anchors = (
{
name = _top;
position = "{138, 547}";
}
);
layerId = "D5D14868-B3D8-4E08-9530-062F6179E82D";
paths = (
{
closed = 1;
nodes = (
"73 744 LINE",
"203 744 LINE",
"203 614 LINE",
"73 614 LINE"
);
}
);
width = 276;
}
);
unicode = 02D9;
},
{
glyphname = ring;
lastChange = "2014-11-05 03:31:33 +0000";
layers = (
{
anchors = (
{
name = _top;
position = "{216, 547}";
}
);
layerId = "D5D14868-B3D8-4E08-9530-062F6179E82D";
paths = (
{
closed = 1;
nodes = (
"267 742 OFFCURVE",
"246 763 OFFCURVE",
"216 763 CURVE SMOOTH",
"187 763 OFFCURVE",
"165 742 OFFCURVE",
"165 713 CURVE SMOOTH",
"165 698 OFFCURVE",
"170 686 OFFCURVE",
"179 676 CURVE",
"189 667 OFFCURVE",
"202 662 OFFCURVE",
"216 662 CURVE SMOOTH",
"246 662 OFFCURVE",
"267 684 OFFCURVE",
"267 713 CURVE SMOOTH"
);
},
{
closed = 1;
nodes = (
"359 633 OFFCURVE",
"295 569 OFFCURVE",
"216 569 CURVE SMOOTH",
"137 569 OFFCURVE",
"73 633 OFFCURVE",
"73 713 CURVE SMOOTH",
"73 792 OFFCURVE",
"137 856 OFFCURVE",
"216 856 CURVE SMOOTH",
"295 856 OFFCURVE",
"359 792 OFFCURVE",
"359 713 CURVE SMOOTH"
);
}
);
width = 433;
}
);
unicode = 02DA;
},
{
glyphname = ogonek;
lastChange = "2014-11-05 03:31:33 +0000";
layers = (
{
anchors = (
{
name = _ogonek;
position = "{180, 37}";
}
);
layerId = "D5D14868-B3D8-4E08-9530-062F6179E82D";
paths = (
{
closed = 1;
nodes = (
"231 37 LINE",
"211 10 OFFCURVE",
"196 -12 OFFCURVE",
"187 -28 CURVE SMOOTH",
"178 -44 OFFCURVE",
"173 -57 OFFCURVE",
"173 -64 CURVE SMOOTH",
"173 -80 OFFCURVE",
"184 -87 OFFCURVE",
"205 -87 CURVE SMOOTH",
"221 -87 OFFCURVE",
"246 -79 OFFCURVE",
"280 -63 CURVE",
"280 -167 LINE",
"245 -175 OFFCURVE",
"219 -180 OFFCURVE",
"199 -180 CURVE SMOOTH",
"112 -180 OFFCURVE",
"73 -149 OFFCURVE",
"73 -80 CURVE SMOOTH",
"73 -46 OFFCURVE",
"92 -10 OFFCURVE",
"132 37 CURVE"
);
}
);
width = 353;
}
);
unicode = 02DB;
},
{
glyphname = tilde;
lastChange = "2014-11-05 03:31:33 +0000";
layers = (
{
anchors = (
{
name = _top;
position = "{242, 383}";
}
);
layerId = "D5D14868-B3D8-4E08-9530-062F6179E82D";
paths = (
{
closed = 1;
nodes = (
"202 654 LINE",
"202 654 LINE",
"193 663 OFFCURVE",
"187 667 OFFCURVE",
"184 667 CURVE SMOOTH",
"178 667 OFFCURVE",
"174 662 OFFCURVE",
"171 650 CURVE SMOOTH",
"169 639 OFFCURVE",
"167 622 OFFCURVE",
"167 597 CURVE",
"73 597 LINE",
"75 702 OFFCURVE",
"114 762 OFFCURVE",
"181 762 CURVE SMOOTH",
"209 762 OFFCURVE",
"229 752 OFFCURVE",
"256 729 CURVE SMOOTH",
"283 704 LINE",
"282 704 LINE",
"292 695 OFFCURVE",
"298 691 OFFCURVE",
"301 691 CURVE SMOOTH",
"306 691 OFFCURVE",
"311 696 OFFCURVE",
"313 708 CURVE SMOOTH",
"315 719 OFFCURVE",
"317 737 OFFCURVE",
"318 762 CURVE",
"411 762 LINE",
"409 656 OFFCURVE",
"371 597 OFFCURVE",
"304 597 CURVE SMOOTH",
"274 597 OFFCURVE",
"253 605 OFFCURVE",
"228 629 CURVE"
);
}
);
width = 484;
}
);
unicode = 02DC;
},
{
glyphname = hungarumlaut;
lastChange = "2014-11-05 03:31:33 +0000";
layers = (
{
anchors = (
{
name = _top;
position = "{265, 547}";
}
);
layerId = "D5D14868-B3D8-4E08-9530-062F6179E82D";
paths = (
{
closed = 1;
nodes = (
"331 783 LINE",
"457 783 LINE",
"319 575 LINE",
"218 575 LINE"
);
},
{
closed = 1;
nodes = (
"178 783 LINE",
"299 783 LINE",
"175 575 LINE",
"73 575 LINE"
);
}
);
width = 530;
}
);
unicode = 02DD;
},
{
glyphname = pi;
lastChange = "2016-06-07 00:23:15 +0000";
layers = (
{
layerId = "D5D14868-B3D8-4E08-9530-062F6179E82D";
paths = (
{
closed = 1;
nodes = (
"193 524 OFFCURVE",
"153 513 OFFCURVE",
"128 491 CURVE",
"104 468 OFFCURVE",
"84 423 OFFCURVE",
"73 355 CURVE",
"184 355 LINE",
"186 377 OFFCURVE",
"190 393 OFFCURVE",
"196 403 CURVE",
"201 414 OFFCURVE",
"208 419 OFFCURVE",
"217 420 CURVE",
"93 0 LINE",
"265 0 LINE",
"276 68 OFFCURVE",
"289 138 OFFCURVE",
"302 210 CURVE SMOOTH",
"308 246 OFFCURVE",
"314 282 OFFCURVE",
"321 317 CURVE SMOOTH",
"327 352 OFFCURVE",
"333 386 OFFCURVE",
"339 420 CURVE",
"449 420 LINE",
"444 405 OFFCURVE",
"440 392 OFFCURVE",
"437 380 CURVE SMOOTH",
"434 368 OFFCURVE",
"430 356 OFFCURVE",
"427 345 CURVE SMOOTH",
"424 333 OFFCURVE",
"420 321 OFFCURVE",
"417 309 CURVE",
"413 296 OFFCURVE",
"409 283 OFFCURVE",
"405 268 CURVE",
"405 269 LINE",
"397 244 OFFCURVE",
"390 223 OFFCURVE",
"385 204 CURVE SMOOTH",
"375 167 OFFCURVE",
"370 133 OFFCURVE",
"370 103 CURVE SMOOTH",
"370 67 OFFCURVE",
"387 32 OFFCURVE",
"415 5 CURVE SMOOTH",
"442 -22 OFFCURVE",
"479 -39 OFFCURVE",
"520 -39 CURVE SMOOTH",
"539 -39 OFFCURVE",
"560 -36 OFFCURVE",
"587 -28 CURVE",
"606 104 LINE",
"585 102 OFFCURVE",
"569 100 OFFCURVE",
"560 98 CURVE SMOOTH",
"555 97 OFFCURVE",
"550 97 OFFCURVE",
"547 97 CURVE",
"543 96 OFFCURVE",
"540 96 OFFCURVE",
"539 96 CURVE SMOOTH",
"520 96 OFFCURVE",
"511 106 OFFCURVE",
"511 126 CURVE SMOOTH",
"511 139 OFFCURVE",
"515 163 OFFCURVE",
"519 180 CURVE",
"520 189 OFFCURVE",
"522 198 OFFCURVE",
"524 208 CURVE SMOOTH",
"527 226 OFFCURVE",
"531 244 OFFCURVE",
"535 262 CURVE SMOOTH",
"539 279 OFFCURVE",
"543 297 OFFCURVE",
"546 315 CURVE",
"554 350 OFFCURVE",
"561 385 OFFCURVE",
"568 420 CURVE",
"651 420 LINE",
"676 524 LINE",
"248 524 LINE SMOOTH"
);
}
);
width = 749;
}
);
note = pi;
unicode = 03C0;
},
{
glyphname = endash;
lastChange = "2014-11-05 03:31:33 +0000";
layers = (
{
layerId = "D5D14868-B3D8-4E08-9530-062F6179E82D";
paths = (
{
closed = 1;
nodes = (
"73 325 LINE",
"576 325 LINE",
"576 223 LINE",
"73 223 LINE"
);
}
);
width = 649;
}
);
unicode = 2013;
},
{
glyphname = emdash;
lastChange = "2014-11-05 03:31:33 +0000";
layers = (
{
layerId = "D5D14868-B3D8-4E08-9530-062F6179E82D";
paths = (
{
closed = 1;
nodes = (
"73 325 LINE",
"1043 325 LINE",
"1043 223 LINE",
"73 223 LINE"
);
}
);
width = 1116;
}
);
unicode = 2014;
},
{
glyphname = quoteleft;
lastChange = "2014-11-05 03:31:33 +0000";
layers = (
{
layerId = "D5D14868-B3D8-4E08-9530-062F6179E82D";
paths = (
{
closed = 1;
nodes = (
"229 417 LINE",
"73 417 LINE",
"73 536 LINE",
"172 729 LINE",
"279 729 LINE",
"229 529 LINE"
);
}
);
width = 352;
}
);
unicode = 2018;
},
{
glyphname = quoteright;
lastChange = "2014-11-05 03:31:33 +0000";
layers = (
{
layerId = "D5D14868-B3D8-4E08-9530-062F6179E82D";
paths = (
{
closed = 1;
nodes = (
"124 725 LINE",
"277 725 LINE",
"277 618 LINE",
"180 428 LINE",
"73 428 LINE",
"124 625 LINE"
);
}
);
width = 351;
}
);
unicode = 2019;
},
{
glyphname = quotesinglbase;
lastChange = "2014-11-05 03:31:33 +0000";
layers = (
{
layerId = "D5D14868-B3D8-4E08-9530-062F6179E82D";
paths = (
{
closed = 1;
nodes = (
"116 152 LINE",
"249 152 LINE",
"249 51 LINE",
"167 -108 LINE",
"73 -108 LINE",
"116 58 LINE"
);
}
);
width = 322;
}
);
unicode = 201A;
},
{
glyphname = quotedblleft;
lastChange = "2014-11-05 03:31:33 +0000";
layers = (
{
layerId = "D5D14868-B3D8-4E08-9530-062F6179E82D";
paths = (
{
closed = 1;
nodes = (
"229 401 LINE",
"73 401 LINE",
"73 522 LINE",
"173 717 LINE",
"281 717 LINE",
"229 515 LINE"
);
},
{
closed = 1;
nodes = (
"461 401 LINE",
"306 401 LINE",
"306 522 LINE",
"405 717 LINE",
"513 717 LINE",
"461 515 LINE"
);
}
);
width = 586;
}
);
unicode = 201C;
},
{
glyphname = quotedblright;
lastChange = "2014-11-05 03:31:33 +0000";
layers = (
{
layerId = "D5D14868-B3D8-4E08-9530-062F6179E82D";
paths = (
{
closed = 1;
nodes = (
"122 717 LINE",
"270 717 LINE",
"270 603 LINE",
"176 420 LINE",
"73 420 LINE",
"122 610 LINE"
);
},
{
closed = 1;
nodes = (
"339 717 LINE",
"487 717 LINE",
"487 603 LINE",
"393 420 LINE",
"290 420 LINE",
"339 610 LINE"
);
}
);
width = 560;
}
);
unicode = 201D;
},
{
glyphname = quotedblbase;
lastChange = "2014-11-05 03:31:33 +0000";
layers = (
{
layerId = "D5D14868-B3D8-4E08-9530-062F6179E82D";
paths = (
{
closed = 1;
nodes = (
"360 209 LINE",
"518 209 LINE",
"518 88 LINE",
"417 -108 LINE",
"308 -108 LINE",
"360 96 LINE"
);
},
{
closed = 1;
nodes = (
"125 209 LINE",
"283 209 LINE",
"283 88 LINE",
"182 -108 LINE",
"73 -108 LINE",
"125 96 LINE"
);
}
);
width = 591;
}
);
unicode = 201E;
},
{
glyphname = dagger;
lastChange = "2014-11-05 03:31:33 +0000";
layers = (
{
layerId = "D5D14868-B3D8-4E08-9530-062F6179E82D";
paths = (
{
closed = 1;
nodes = (
"241 717 LINE",
"357 717 LINE",
"357 525 LINE",
"524 525 LINE",
"524 419 LINE",
"357 419 LINE",
"357 -90 LINE",
"241 -90 LINE",
"241 419 LINE",
"73 419 LINE",
"73 525 LINE",
"241 525 LINE"
);
}
);
width = 598;
}
);
unicode = 2020;
},
{
glyphname = daggerdbl;
lastChange = "2014-11-05 03:31:33 +0000";
layers = (
{
layerId = "D5D14868-B3D8-4E08-9530-062F6179E82D";
paths = (
{
closed = 1;
nodes = (
"524 70 LINE",
"376 70 LINE",
"377 57 OFFCURVE",
"378 44 OFFCURVE",
"379 30 CURVE SMOOTH",
"380 2 OFFCURVE",
"382 -25 OFFCURVE",
"383 -52 CURVE SMOOTH",
"384 -65 OFFCURVE",
"385 -78 OFFCURVE",
"385 -90 CURVE",
"212 -90 LINE",
"221 70 LINE",
"73 70 LINE",
"73 208 LINE",
"232 208 LINE",
"233 246 OFFCURVE",
"234 280 OFFCURVE",
"236 313 CURVE SMOOTH",
"236 330 OFFCURVE",
"237 347 OFFCURVE",
"238 364 CURVE SMOOTH",
"239 381 OFFCURVE",
"240 400 OFFCURVE",
"240 419 CURVE",
"73 419 LINE",
"73 525 LINE",
"240 525 LINE",
"240 717 LINE",
"357 717 LINE",
"357 525 LINE",
"524 525 LINE",
"524 419 LINE",
"357 419 LINE",
"359 384 OFFCURVE",
"360 349 OFFCURVE",
"362 315 CURVE SMOOTH",
"363 281 OFFCURVE",
"364 246 OFFCURVE",
"366 208 CURVE",
"524 208 LINE"
);
}
);
width = 598;
}
);
unicode = 2021;
},
{
glyphname = bullet;
lastChange = "2014-11-05 03:31:33 +0000";
layers = (
{
layerId = "D5D14868-B3D8-4E08-9530-062F6179E82D";
paths = (
{
closed = 1;
nodes = (
"73 450 OFFCURVE",
"142 518 OFFCURVE",
"228 518 CURVE SMOOTH",
"312 518 OFFCURVE",
"380 450 OFFCURVE",
"380 366 CURVE SMOOTH",
"380 279 OFFCURVE",
"312 212 OFFCURVE",
"227 212 CURVE SMOOTH",
"141 212 OFFCURVE",
"73 280 OFFCURVE",
"73 366 CURVE SMOOTH"
);
}
);
width = 454;
}
);
unicode = 2022;
},
{
glyphname = ellipsis;
lastChange = "2014-11-05 03:31:33 +0000";
layers = (
{
layerId = "D5D14868-B3D8-4E08-9530-062F6179E82D";
paths = (
{
closed = 1;
nodes = (
"384 202 LINE",
"567 202 LINE",
"567 0 LINE",
"384 0 LINE"
);
},
{
closed = 1;
nodes = (
"694 202 LINE",
"878 202 LINE",
"878 0 LINE",
"694 0 LINE"
);
},
{
closed = 1;
nodes = (
"73 202 LINE",
"257 202 LINE",
"257 0 LINE",
"73 0 LINE"
);
}
);
width = 951;
}
);
unicode = 2026;
},
{
glyphname = perthousand;
lastChange = "2014-11-05 03:31:33 +0000";
layers = (
{
layerId = "D5D14868-B3D8-4E08-9530-062F6179E82D";
paths = (
{
closed = 1;
nodes = (
"1043 299 OFFCURVE",
"1018 272 OFFCURVE",
"1018 227 CURVE SMOOTH",
"1018 181 OFFCURVE",
"1043 154 OFFCURVE",
"1084 154 CURVE SMOOTH",
"1125 154 OFFCURVE",
"1150 181 OFFCURVE",
"1150 227 CURVE SMOOTH",
"1150 271 OFFCURVE",
"1125 299 OFFCURVE",
"1084 299 CURVE SMOOTH"
);
},
{
closed = 1;
nodes = (
"1191 394 OFFCURVE",
"1259 313 OFFCURVE",
"1259 190 CURVE SMOOTH",
"1259 129 OFFCURVE",
"1245 80 OFFCURVE",
"1212 43 CURVE SMOOTH",
"1180 5 OFFCURVE",
"1138 -13 OFFCURVE",
"1084 -13 CURVE SMOOTH",
"976 -13 OFFCURVE",
"909 66 OFFCURVE",
"909 190 CURVE SMOOTH",
"909 313 OFFCURVE",
"978 394 OFFCURVE",
"1084 394 CURVE SMOOTH"
);
},
{
closed = 1;
nodes = (
"354 729 OFFCURVE",
"424 648 OFFCURVE",
"424 526 CURVE SMOOTH",
"424 402 OFFCURVE",
"355 322 OFFCURVE",
"248 322 CURVE SMOOTH",
"141 322 OFFCURVE",
"73 402 OFFCURVE",
"73 526 CURVE SMOOTH",
"73 647 OFFCURVE",
"141 729 OFFCURVE",
"248 729 CURVE SMOOTH"
);
},
{
closed = 1;
nodes = (
"650 729 LINE",
"765 729 LINE",
"317 -13 LINE",
"168 -13 LINE"
);
},
{
closed = 1;
nodes = (
"207 635 OFFCURVE",
"182 604 OFFCURVE",
"182 554 CURVE SMOOTH",
"182 502 OFFCURVE",
"207 473 OFFCURVE",
"248 473 CURVE SMOOTH",
"290 473 OFFCURVE",
"315 502 OFFCURVE",
"315 554 CURVE SMOOTH",
"315 604 OFFCURVE",
"289 635 OFFCURVE",
"248 635 CURVE SMOOTH"
);
},
{
closed = 1;
nodes = (
"771 394 OFFCURVE",
"814 375 OFFCURVE",
"847 337 CURVE SMOOTH",
"878 300 OFFCURVE",
"894 251 OFFCURVE",
"894 190 CURVE SMOOTH",
"894 67 OFFCURVE",
"826 -13 OFFCURVE",
"719 -13 CURVE SMOOTH",
"611 -13 OFFCURVE",
"542 67 OFFCURVE",
"542 190 CURVE SMOOTH",
"542 251 OFFCURVE",
"558 300 OFFCURVE",
"589 337 CURVE SMOOTH",
"622 375 OFFCURVE",
"666 394 OFFCURVE",
"719 394 CURVE SMOOTH"
);
},
{
closed = 1;
nodes = (
"677 299 OFFCURVE",
"652 272 OFFCURVE",
"652 227 CURVE SMOOTH",
"652 181 OFFCURVE",
"677 154 OFFCURVE",
"719 154 CURVE SMOOTH",
"759 154 OFFCURVE",
"784 181 OFFCURVE",
"784 227 CURVE SMOOTH",
"784 271 OFFCURVE",
"759 299 OFFCURVE",
"719 299 CURVE SMOOTH"
);
}
);
width = 1333;
}
);
unicode = 2030;
},
{
glyphname = guilsinglleft;
lastChange = "2014-11-05 03:31:33 +0000";
layers = (
{
layerId = "D5D14868-B3D8-4E08-9530-062F6179E82D";
paths = (
{
closed = 1;
nodes = (
"324 542 LINE",
"324 406 LINE",
"196 292 LINE",
"324 178 LINE",
"324 42 LINE",
"73 265 LINE",
"73 318 LINE"
);
}
);
width = 397;
}
);
unicode = 2039;
},
{
glyphname = guilsinglright;
lastChange = "2014-11-05 03:31:33 +0000";
layers = (
{
layerId = "D5D14868-B3D8-4E08-9530-062F6179E82D";
paths = (
{
closed = 1;
nodes = (
"73 542 LINE",
"323 318 LINE",
"323 265 LINE",
"73 42 LINE",
"73 178 LINE",
"201 292 LINE",
"73 406 LINE"
);
}
);
width = 396;
}
);
unicode = 203A;
},
{
glyphname = fraction;
lastChange = "2014-11-05 03:31:33 +0000";
layers = (
{
layerId = "D5D14868-B3D8-4E08-9530-062F6179E82D";
paths = (
{
closed = 1;
nodes = (
"350 878 LINE",
"455 875 LINE",
"217 79 LINE",
"73 84 LINE"
);
}
);
width = 528;
}
);
unicode = 2044;
},
{
glyphname = trademark;
lastChange = "2014-11-05 03:31:33 +0000";
layers = (
{
layerId = "D5D14868-B3D8-4E08-9530-062F6179E82D";
paths = (
{
closed = 1;
nodes = (
"474 717 LINE",
"538 590 LINE",
"549 611 OFFCURVE",
"561 632 OFFCURVE",
"572 654 CURVE SMOOTH",
"583 676 OFFCURVE",
"595 697 OFFCURVE",
"605 717 CURVE",
"711 717 LINE",
"721 417 LINE",
"604 417 LINE",
"612 545 LINE",
"605 527 OFFCURVE",
"598 509 OFFCURVE",
"591 492 CURVE SMOOTH",
"584 475 OFFCURVE",
"577 458 OFFCURVE",
"570 440 CURVE",
"502 440 LINE",
"456 550 LINE",
"458 527 OFFCURVE",
"459 504 OFFCURVE",
"460 481 CURVE SMOOTH",
"461 459 OFFCURVE",
"463 438 OFFCURVE",
"464 417 CURVE",
"346 417 LINE",
"367 717 LINE"
);
},
{
closed = 1;
nodes = (
"346 717 LINE",
"346 638 LINE",
"254 638 LINE",
"269 417 LINE",
"150 417 LINE",
"164 638 LINE",
"73 638 LINE",
"73 717 LINE"
);
}
);
width = 794;
}
);
unicode = 2122;
},
{
glyphname = Omega;
lastChange = "2014-11-05 03:31:33 +0000";
layers = (
{
anchors = (
{
name = topleft;
position = "{-17, 729}";
}
);
layerId = "D5D14868-B3D8-4E08-9530-062F6179E82D";
paths = (
{
closed = 1;
nodes = (
"763 147 LINE",
"763 0 LINE",
"448 0 LINE",
"448 142 LINE",
"567 181 OFFCURVE",
"622 276 OFFCURVE",
"622 394 CURVE SMOOTH",
"622 563 OFFCURVE",
"541 644 OFFCURVE",
"418 644 CURVE SMOOTH",
"356 644 OFFCURVE",
"307 623 OFFCURVE",
"270 582 CURVE",
"270 582 LINE",
"232 542 OFFCURVE",
"214 479 OFFCURVE",
"214 394 CURVE SMOOTH",
"214 334 OFFCURVE",
"228 283 OFFCURVE",
"257 237 CURVE",
"257 238 LINE",
"286 193 OFFCURVE",
"330 161 OFFCURVE",
"388 142 CURVE",
"388 0 LINE",
"73 0 LINE",
"73 147 LINE",
"192 147 LINE",
"159 180 OFFCURVE",
"135 209 OFFCURVE",
"117 239 CURVE SMOOTH",
"93 278 OFFCURVE",
"81 328 OFFCURVE",
"81 389 CURVE SMOOTH",
"81 596 OFFCURVE",
"219 737 OFFCURVE",
"418 737 CURVE SMOOTH",
"517 737 OFFCURVE",
"598 705 OFFCURVE",
"661 641 CURVE SMOOTH",
"724 577 OFFCURVE",
"755 495 OFFCURVE",
"755 394 CURVE SMOOTH",
"755 331 OFFCURVE",
"743 279 OFFCURVE",
"720 240 CURVE SMOOTH",
"703 210 OFFCURVE",
"677 179 OFFCURVE",
"644 147 CURVE"
);
}
);
width = 836;
}
);
unicode = 2126;
},
{
glyphname = partialdiff;
lastChange = "2014-11-05 03:31:33 +0000";
layers = (
{
layerId = "D5D14868-B3D8-4E08-9530-062F6179E82D";
paths = (
{
closed = 1;
nodes = (
"315 405 OFFCURVE",
"353 389 OFFCURVE",
"378 357 CURVE",
"382 389 OFFCURVE",
"384 420 OFFCURVE",
"384 449 CURVE SMOOTH",
"384 515 OFFCURVE",
"369 549 OFFCURVE",
"337 550 CURVE",
"289 547 OFFCURVE",
"264 543 OFFCURVE",
"261 539 CURVE",
"253 520 OFFCURVE",
"239 510 OFFCURVE",
"220 510 CURVE SMOOTH",
"203 510 OFFCURVE",
"190 511 OFFCURVE",
"183 517 CURVE SMOOTH",
"176 522 OFFCURVE",
"173 532 OFFCURVE",
"173 549 CURVE SMOOTH",
"173 600 OFFCURVE",
"225 626 OFFCURVE",
"254 634 CURVE SMOOTH",
"269 638 OFFCURVE",
"285 640 OFFCURVE",
"303 640 CURVE SMOOTH",
"424 640 OFFCURVE",
"500 529 OFFCURVE",
"500 361 CURVE SMOOTH",
"500 255 OFFCURVE",
"478 167 OFFCURVE",
"431 98 CURVE SMOOTH",
"384 25 OFFCURVE",
"325 -11 OFFCURVE",
"253 -11 CURVE SMOOTH",
"150 -11 OFFCURVE",
"73 71 OFFCURVE",
"73 180 CURVE SMOOTH",
"73 307 OFFCURVE",
"157 405 OFFCURVE",
"266 405 CURVE SMOOTH"
);
},
{
closed = 1;
nodes = (
"331 312 OFFCURVE",
"307 339 OFFCURVE",
"265 339 CURVE SMOOTH",
"235 339 OFFCURVE",
"210 325 OFFCURVE",
"189 296 CURVE SMOOTH",
"168 266 OFFCURVE",
"157 225 OFFCURVE",
"157 176 CURVE SMOOTH",
"157 127 OFFCURVE",
"180 101 OFFCURVE",
"223 101 CURVE SMOOTH",
"252 101 OFFCURVE",
"278 116 OFFCURVE",
"298 144 CURVE SMOOTH",
"319 175 OFFCURVE",
"331 215 OFFCURVE",
"331 263 CURVE SMOOTH"
);
}
);
width = 574;
}
);
unicode = 2202;
},
